<svg xmlns="http://www.w3.org/2000/svg" width="54" height="48.004" viewBox="0 0 54 48.004">
  <path id="house-solid" d="M53.986,23.955a3.029,3.029,0,0,1-3,3.01h-3l.066,15.02a6.88,6.88,0,0,1-.047.759v1.51A3.749,3.749,0,0,1,44.254,48h-1.5c-.1,0-.206,0-.309-.009-.131.009-.263.009-.394.009h-5.3A3.749,3.749,0,0,1,33,44.254V36a3,3,0,0,0-3-3H24a3,3,0,0,0-3,3v8.251A3.749,3.749,0,0,1,17.251,48H12.01c-.141,0-.281-.009-.422-.019-.113.009-.225.019-.338.019h-1.5A3.749,3.749,0,0,1,6,44.254v-10.5a2.457,2.457,0,0,1,.009-.263V26.965H3a2.964,2.964,0,0,1-3-3.01A3.047,3.047,0,0,1,.938,21.7L24.977.75A2.705,2.705,0,0,1,27.04,0a3.114,3.114,0,0,1,1.969.656L52.954,21.7A2.568,2.568,0,0,1,53.986,23.955Z" fill="#003566"/>
</svg>
