<svg xmlns="http://www.w3.org/2000/svg" xmlns:xlink="http://www.w3.org/1999/xlink" width="146" height="146" viewBox="0 0 146 146">
  <defs>
    <filter id="Ellipse_5" x="7" y="7" width="132" height="132" filterUnits="userSpaceOnUse">
      <feOffset dy="3" input="SourceAlpha"/>
      <feGaussianBlur stdDeviation="3" result="blur"/>
      <feFlood flood-color="#003566" flood-opacity="0.322"/>
      <feComposite operator="in" in2="blur"/>
      <feComposite in="SourceGraphic"/>
    </filter>
    <filter id="Ellipse_4" x="0" y="0" width="146" height="146" filterUnits="userSpaceOnUse">
      <feOffset dy="3" input="SourceAlpha"/>
      <feGaussianBlur stdDeviation="3" result="blur-2"/>
      <feFlood flood-color="#003566" flood-opacity="0.322"/>
      <feComposite operator="in" in2="blur-2"/>
      <feComposite in="SourceGraphic"/>
    </filter>
    <clipPath id="clip-path">
      <g transform="matrix(1, 0, 0, 1, 0, 0)" filter="url(#Ellipse_5)">
        <circle id="Ellipse_5-2" data-name="Ellipse 5" cx="57" cy="57" r="57" transform="translate(-0.33 -0.33)" fill="#fff"/>
      </g>
    </clipPath>
    <clipPath id="clip-path-2">
      <rect id="Rectangle_13" data-name="Rectangle 13" width="123.657" height="122.013" fill="none"/>
    </clipPath>
    <clipPath id="clip-path-3">
      <rect id="Rectangle_10" data-name="Rectangle 10" width="77.668" height="77.667" fill="none"/>
    </clipPath>
  </defs>
  <g id="Group_24" data-name="Group 24" transform="translate(-3895 -1459)">
    <g id="player3" transform="translate(3714.866 1144.866)">
      <g transform="matrix(1, 0, 0, 1, 180.13, 314.13)" filter="url(#Ellipse_4)">
        <g id="Ellipse_4-2" data-name="Ellipse 4" transform="translate(9 6)" fill="#fff" stroke="#00bbf9" stroke-width="3">
          <circle cx="64" cy="64" r="64" stroke="none"/>
          <circle cx="64" cy="64" r="62.5" fill="none"/>
        </g>
      </g>
      <g id="Mask_Group_1" data-name="Mask Group 1" transform="translate(196.462 327.462)" clip-path="url(#clip-path)">
        <g id="Group_13" data-name="Group 13" transform="translate(-7.156 -4.335)">
          <g id="Group_12" data-name="Group 12" clip-path="url(#clip-path-2)">
            <path id="Path_55" data-name="Path 55" d="M23.035,12.124a2.107,2.107,0,0,1-1.514-.62,2,2,0,0,1-.546-1.473c.063-1.907-.261-4.973-1.033-5.77-.088-.091-.128-.091-.145-.091a.314.314,0,0,0-.06.007,2.221,2.221,0,0,1-.448.046,2.146,2.146,0,0,1-2.108-1.97A1.936,1.936,0,0,1,18.761.106,5.083,5.083,0,0,1,19.777,0,4.128,4.128,0,0,1,22.8,1.3c2.441,2.523,2.4,7.773,2.363,8.8a2.077,2.077,0,0,1-2.127,2.023" transform="translate(-13.194 0.001)" fill="#81ffcf"/>
            <path id="Path_56" data-name="Path 56" d="M95.4,11.02a1.993,1.993,0,0,1-2.01-2.014A2.078,2.078,0,0,1,95.41,6.832,53.5,53.5,0,0,0,104.6,5.687a2.221,2.221,0,0,1,.466-.05,2.138,2.138,0,0,1,2.1,1.953A1.947,1.947,0,0,1,105.6,9.754a58.876,58.876,0,0,1-10.107,1.264l-.086,0Z" transform="translate(-71.769 -4.332)" fill="#81ffcf"/>
            <path id="Path_57" data-name="Path 57" d="M204.448,12.409a1.934,1.934,0,0,1-1.486-.719A11.024,11.024,0,0,0,196.53,7.9a1.926,1.926,0,0,1-1.59-2.132,2.153,2.153,0,0,1,2.118-1.985,2.245,2.245,0,0,1,.432.043,14.853,14.853,0,0,1,8.553,5.028,2.086,2.086,0,0,1,.307,2.275,2.137,2.137,0,0,1-1.9,1.276Z" transform="translate(-149.798 -2.91)" fill="#81ffcf"/>
            <path id="Path_58" data-name="Path 58" d="M281.962,13.61a2.248,2.248,0,0,1-1.725-.815,2.066,2.066,0,0,1-.419-1.752,9.542,9.542,0,0,1,7.4-7.374,2.234,2.234,0,0,1,.436-.044,2.151,2.151,0,0,1,2.115,1.98,1.929,1.929,0,0,1-1.587,2.137,5.394,5.394,0,0,0-4.3,4.274,1.935,1.935,0,0,1-1.926,1.592Z" transform="translate(-214.996 -2.786)" fill="#81ffcf"/>
            <path id="Path_59" data-name="Path 59" d="M377.419,7.844a2.08,2.08,0,0,1-2.045-1.88,2,2,0,0,1,1.514-2.238,36.862,36.862,0,0,1,13.1-.978,2.164,2.164,0,0,1,1.934,2.314A1.9,1.9,0,0,1,390,6.937a2.235,2.235,0,0,1-.235-.013,34.4,34.4,0,0,0-3.58-.189,33.092,33.092,0,0,0-8.219,1.038,2.2,2.2,0,0,1-.546.07" transform="translate(-288.45 -1.957)" fill="#81ffcf"/>
            <path id="Path_60" data-name="Path 60" d="M460.816,18.423a2.169,2.169,0,0,1-2.047-1.649,1.965,1.965,0,0,1,1-2.263c2.841-1.548,5.544-3.279,4.709-5.9a1.976,1.976,0,0,1,.265-1.788,2.169,2.169,0,0,1,1.755-.863,2.061,2.061,0,0,1,1.994,1.457c1.932,6.054-4.538,9.58-6.665,10.739a2.091,2.091,0,0,1-1.01.265Z" transform="translate(-352.499 -4.582)" fill="#81ffcf"/>
            <path id="Path_61" data-name="Path 61" d="M500.085,56.94a2.138,2.138,0,0,1-1.9-1.279,2.083,2.083,0,0,1,.312-2.273,19.329,19.329,0,0,0,3.728-6.775,2.052,2.052,0,0,1,1.99-1.463,2.172,2.172,0,0,1,1.755.862,1.983,1.983,0,0,1,.272,1.786,24.08,24.08,0,0,1-4.668,8.427,1.937,1.937,0,0,1-1.485.716Z" transform="translate(-382.681 -34.696)" fill="#81ffcf"/>
            <path id="Path_62" data-name="Path 62" d="M498.608,148.309a2.144,2.144,0,0,1-1.714-.851,10.7,10.7,0,0,0-4.032-3.173,1.891,1.891,0,0,1-1.1-2.177,2.207,2.207,0,0,1,2.123-1.736,2.145,2.145,0,0,1,.915.208,14.962,14.962,0,0,1,5.559,4.548,1.871,1.871,0,0,1,.233,2,2.24,2.24,0,0,1-1.988,1.184Z" transform="translate(-377.87 -107.872)" fill="#81ffcf"/>
            <path id="Path_63" data-name="Path 63" d="M496.541,218a2.219,2.219,0,0,1-2.01-1.387,1.971,1.971,0,0,1,.51-2.2,13.171,13.171,0,0,0,3.815-6.522,1.968,1.968,0,0,1,1.955-1.542,2.215,2.215,0,0,1,1.736.833,2.021,2.021,0,0,1,.361,1.768,17.329,17.329,0,0,1-4.951,8.469,2.039,2.039,0,0,1-1.415.577Z" transform="translate(-379.924 -158.572)" fill="#81ffcf"/>
            <path id="Path_64" data-name="Path 64" d="M496.161,299.814a1.9,1.9,0,0,1-1.91-1.62,18.385,18.385,0,0,0-2.534-6.607,1.955,1.955,0,0,1-.076-2.032,2.219,2.219,0,0,1,1.918-1.119,2.025,2.025,0,0,1,1.743.985,22.158,22.158,0,0,1,3.03,7.848,2.093,2.093,0,0,1-.453,1.741,2.266,2.266,0,0,1-1.718.8" transform="translate(-377.621 -221.655)" fill="#81ffcf"/>
            <path id="Path_65" data-name="Path 65" d="M488.971,380.8a2.048,2.048,0,0,1-1.1-.336l-8.229-5.284a2.057,2.057,0,0,1-.878-2.356,2.1,2.1,0,0,1,1.963-1.55,2.05,2.05,0,0,1,1.1.336l8.229,5.284a2.056,2.056,0,0,1,.878,2.356,2.1,2.1,0,0,1-1.962,1.55Z" transform="translate(-367.844 -285.312)" fill="#81ffcf"/>
            <path id="Path_66" data-name="Path 66" d="M472.935,434.741a1.972,1.972,0,0,1-1.916-1.7,2.131,2.131,0,0,1,1.361-2.415,13.555,13.555,0,0,0,6.052-4.478,1.887,1.887,0,0,1,1.5-.767,2.2,2.2,0,0,1,1.632,3.535,17.536,17.536,0,0,1-7.9,5.695,2.1,2.1,0,0,1-.726.134Z" transform="translate(-361.936 -326.891)" fill="#81ffcf"/>
            <path id="Path_67" data-name="Path 67" d="M507.565,497.721a2.119,2.119,0,0,1-2.172-1.97,9.2,9.2,0,0,0-.9-3.309,2.078,2.078,0,0,1,.1-2.047,2.243,2.243,0,0,1,1.85-1.048,1.915,1.915,0,0,1,1.741,1.126,14.03,14.03,0,0,1,1.387,5.113,1.952,1.952,0,0,1-.495,1.5,2.057,2.057,0,0,1-1.515.635Z" transform="translate(-387.519 -376.048)" fill="#81ffcf"/>
            <path id="Path_68" data-name="Path 68" d="M433.805,472.194a2.078,2.078,0,0,1-1.734-.927,104.355,104.355,0,0,0-7.139-9.278,2.073,2.073,0,0,1-.326-2.269,2.167,2.167,0,0,1,1.911-1.286,1.945,1.945,0,0,1,1.482.706,111.173,111.173,0,0,1,7.608,9.887,1.931,1.931,0,0,1,.146,2.019,2.213,2.213,0,0,1-1.947,1.147Z" transform="translate(-326.144 -352.293)" fill="#81ffcf"/>
            <path id="Path_69" data-name="Path 69" d="M368.507,496.45a2.08,2.08,0,0,1-2.045-1.879,2,2,0,0,1,1.513-2.239c2.538-.652,5.078-1.422,7.55-2.29a2.117,2.117,0,0,1,.7-.123,1.984,1.984,0,0,1,1.935,1.728,2.11,2.11,0,0,1-1.385,2.39c-2.53.888-5.128,1.676-7.724,2.343A2.2,2.2,0,0,1,368.507,496.45Z" transform="translate(-281.602 -376.488)" fill="#81ffcf"/>
            <path id="Path_70" data-name="Path 70" d="M299.45,458.966a2.01,2.01,0,0,1-1.519-.653,1.9,1.9,0,0,1-.436-1.524l1.062-8.291a2.191,2.191,0,0,1,2.215-1.908,2.011,2.011,0,0,1,1.519.653,1.9,1.9,0,0,1,.436,1.524l-1.062,8.29a2.191,2.191,0,0,1-2.215,1.908Z" transform="translate(-228.602 -343.191)" fill="#81ffcf"/>
            <path id="Path_71" data-name="Path 71" d="M254.433,489.369a1.933,1.933,0,0,1-1.743-1.109,28.7,28.7,0,0,0-4.288-6.312,2.074,2.074,0,0,1-.362-2.257,2.171,2.171,0,0,1,1.929-1.3,1.97,1.97,0,0,1,1.472.682,32.809,32.809,0,0,1,4.929,7.2,2.061,2.061,0,0,1-.078,2.047,2.238,2.238,0,0,1-1.858,1.057Z" transform="translate(-190.47 -367.626)" fill="#81ffcf"/>
            <path id="Path_72" data-name="Path 72" d="M188.41,498.331a2.23,2.23,0,0,1-.434-.043,8.245,8.245,0,0,1-6.309-5.977,2.006,2.006,0,0,1,.34-1.774,2.2,2.2,0,0,1,1.74-.839,1.988,1.988,0,0,1,1.965,1.524,4.071,4.071,0,0,0,3.228,2.993,1.927,1.927,0,0,1,1.588,2.135,2.152,2.152,0,0,1-2.117,1.982Z" transform="translate(-139.548 -376.318)" fill="#81ffcf"/>
            <path id="Path_73" data-name="Path 73" d="M110.444,483.5a2.215,2.215,0,0,1-2.167-2.058,1.879,1.879,0,0,1,1.637-2.058,10.712,10.712,0,0,0,7.62-5.025,2.014,2.014,0,0,1,1.744-1,2.22,2.22,0,0,1,1.911,1.113,1.965,1.965,0,0,1-.061,2.034,14.818,14.818,0,0,1-10.335,6.964,2.262,2.262,0,0,1-.349.028Z" transform="translate(-83.203 -363.766)" fill="#81ffcf"/>
            <path id="Path_74" data-name="Path 74" d="M50.545,482.242a2.031,2.031,0,0,1-2.095-2.059v-6.22a2.094,2.094,0,0,1,4.188,0v6.22a2.009,2.009,0,0,1-.692,1.553A2.144,2.144,0,0,1,50.545,482.242Z" transform="translate(-37.232 -362.644)" fill="#81ffcf"/>
            <path id="Path_75" data-name="Path 75" d="M2.163,447.849a2.216,2.216,0,0,1-1.926-1.128,1.965,1.965,0,0,1,.1-2.028,93.651,93.651,0,0,1,7-9.516,1.929,1.929,0,0,1,1.489-.726,2.136,2.136,0,0,1,1.9,1.271,2.093,2.093,0,0,1-.3,2.278A87.277,87.277,0,0,0,3.9,446.881a2.041,2.041,0,0,1-1.741.968Z" transform="translate(0 -333.863)" fill="#81ffcf"/>
            <path id="Path_76" data-name="Path 76" d="M24.044,383.163a2.168,2.168,0,0,1-.612-.091,26.626,26.626,0,0,1-6.721-3.039,2.049,2.049,0,0,1-.889-2.348,2.1,2.1,0,0,1,1.97-1.558,2.057,2.057,0,0,1,1.1.33,22.269,22.269,0,0,0,5.692,2.589,2.107,2.107,0,0,1-.537,4.118Z" transform="translate(-12.092 -289.043)" fill="#81ffcf"/>
            <path id="Path_77" data-name="Path 77" d="M80.474,444.98a1.987,1.987,0,0,1-1.746-1.054,8.468,8.468,0,0,0-2.406-2.771,2.11,2.11,0,0,1-.656-2.816,2.185,2.185,0,0,1,1.844-1.036,1.862,1.862,0,0,1,1.1.353,12.987,12.987,0,0,1,3.753,4.2,2.014,2.014,0,0,1-.009,2.043,2.228,2.228,0,0,1-1.884,1.084Z" transform="translate(-57.923 -336.055)" fill="#81ffcf"/>
            <path id="Path_78" data-name="Path 78" d="M14.814,314.956a1.988,1.988,0,0,1-1.746-1.053,37,37,0,0,1-3.317-8.073,1.992,1.992,0,0,1,.32-1.778,2.194,2.194,0,0,1,1.744-.846,2.007,2.007,0,0,1,1.973,1.506,32.153,32.153,0,0,0,2.918,7.116,2.012,2.012,0,0,1-.007,2.042,2.228,2.228,0,0,1-1.885,1.085Z" transform="translate(-7.43 -233.005)" fill="#81ffcf"/>
            <path id="Path_79" data-name="Path 79" d="M34.855,263.113c-.719,0-1.445-.027-2.157-.081a2.127,2.127,0,0,1-1.972-2.254,1.933,1.933,0,0,1,1.959-1.935q.084,0,.172.006c.705.053,1.41.081,2.093.081a24.879,24.879,0,0,0,3.953-.311,2.248,2.248,0,0,1,.359-.029,2.211,2.211,0,0,1,2.161,2.048,1.884,1.884,0,0,1-1.632,2.068,31.071,31.071,0,0,1-4.938.407" transform="translate(-23.611 -198.719)" fill="#81ffcf"/>
            <path id="Path_80" data-name="Path 80" d="M27.127,210.792a2.1,2.1,0,0,1-1.728-.9l-4.743-6.634a1.907,1.907,0,0,1-.18-2.011,2.24,2.24,0,0,1,1.963-1.162,2.1,2.1,0,0,1,1.728.9l4.743,6.634a1.908,1.908,0,0,1,.181,2.011,2.241,2.241,0,0,1-1.963,1.162Z" transform="translate(-15.576 -153.763)" fill="#81ffcf"/>
            <path id="Path_81" data-name="Path 81" d="M7.979,135.828a2.239,2.239,0,0,1-1.985-1.183,1.875,1.875,0,0,1,.227-2,19.791,19.791,0,0,1,5.159-4.771,2.056,2.056,0,0,1,1.1-.331,2.1,2.1,0,0,1,1.968,1.557,2.051,2.051,0,0,1-.887,2.35,14.724,14.724,0,0,0-3.865,3.521,2.14,2.14,0,0,1-1.716.855Z" transform="translate(-4.459 -98.015)" fill="#81ffcf"/>
            <path id="Path_82" data-name="Path 82" d="M24.224,82.593a2.058,2.058,0,0,1-1.4-.555,17.062,17.062,0,0,0-4.736-3.026,1.854,1.854,0,0,1-1.14-2.133A2.254,2.254,0,0,1,19.108,75.1a2.169,2.169,0,0,1,.864.182,20.786,20.786,0,0,1,5.74,3.726,1.95,1.95,0,0,1,.54,2.181A2.224,2.224,0,0,1,24.224,82.593Z" transform="translate(-12.99 -57.711)" fill="#81ffcf"/>
            <path id="Path_83" data-name="Path 83" d="M81.668,62.279a2.161,2.161,0,0,1-1.777-.893,1.91,1.91,0,0,1-.175-1.8A7.116,7.116,0,0,1,88.1,55.177,1.987,1.987,0,0,1,89.63,57.4a2.088,2.088,0,0,1-2.057,1.9,2.2,2.2,0,0,1-.529-.066,2.777,2.777,0,0,0-.667-.081,2.9,2.9,0,0,0-2.69,1.76,2.121,2.121,0,0,1-2.018,1.371Z" transform="translate(-61.148 -42.239)" fill="#81ffcf"/>
            <path id="Path_84" data-name="Path 84" d="M173.229,69.318A2.195,2.195,0,0,1,171.6,65.78a10.334,10.334,0,0,0,1.971-4.292,1.948,1.948,0,0,1,1.934-1.581,2.239,2.239,0,0,1,1.728.819,2.056,2.056,0,0,1,.406,1.756,14.73,14.73,0,0,1-2.913,6.076,1.9,1.9,0,0,1-1.5.76Z" transform="translate(-131.509 -46.037)" fill="#81ffcf"/>
            <path id="Path_85" data-name="Path 85" d="M240.149,84.684a1.894,1.894,0,0,1-1.907-1.856,2.177,2.177,0,0,1,1.922-2.334,17.984,17.984,0,0,0,7.332-2.548,2.048,2.048,0,0,1,1.074-.311,2.113,2.113,0,0,1,1.991,1.583,2.025,2.025,0,0,1-.92,2.325,22.594,22.594,0,0,1-9.236,3.125,2.223,2.223,0,0,1-.255.015Z" transform="translate(-183.079 -59.66)" fill="#81ffcf"/>
            <path id="Path_86" data-name="Path 86" d="M338.656,59.948a1.9,1.9,0,0,1-1.912-1.863,2.172,2.172,0,0,1,1.927-2.326l7.567-.837a2.4,2.4,0,0,1,.266-.016,1.9,1.9,0,0,1,1.912,1.863,2.172,2.172,0,0,1-1.927,2.326l-7.586.839A2.229,2.229,0,0,1,338.656,59.948Z" transform="translate(-258.775 -42.194)" fill="#81ffcf"/>
            <path id="Path_87" data-name="Path 87" d="M403.3,73.447a2.035,2.035,0,0,1-1.417-.58,23.294,23.294,0,0,1-5.158-7.156,2.1,2.1,0,0,1,.132-2.047,2.218,2.218,0,0,1,1.84-1.037,1.892,1.892,0,0,1,1.737,1.149,19.794,19.794,0,0,0,4.369,6.089,1.974,1.974,0,0,1,.506,2.2A2.218,2.218,0,0,1,403.3,73.447Z" transform="translate(-304.716 -48.127)" fill="#81ffcf"/>
            <path id="Path_88" data-name="Path 88" d="M447.374,122.067a2.24,2.24,0,0,1-1.978-1.176,1.885,1.885,0,0,1,.212-2,11.968,11.968,0,0,0,2.41-6.19,2.129,2.129,0,0,1,2.178-1.961,2.052,2.052,0,0,1,1.517.639,1.945,1.945,0,0,1,.486,1.5,15.993,15.993,0,0,1-3.1,8.319,2.13,2.13,0,0,1-1.72.869Z" transform="translate(-342.123 -85.098)" fill="#81ffcf"/>
            <path id="Path_89" data-name="Path 89" d="M468.219,187.11a2.181,2.181,0,0,1-1.972-1.349,2.019,2.019,0,0,1,.442-2.226,4.734,4.734,0,0,0,1.389-3.615,2,2,0,0,1,.545-1.475,2.1,2.1,0,0,1,1.512-.62,2.08,2.08,0,0,1,2.13,2.021,8.947,8.947,0,0,1-2.6,6.637,2.022,2.022,0,0,1-1.445.625Z" transform="translate(-358.174 -136.655)" fill="#81ffcf"/>
            <path id="Path_90" data-name="Path 90" d="M437.887,257.8a2.162,2.162,0,0,1-2.028-1.33,17.008,17.008,0,0,0-4.736-6.368,1.911,1.911,0,0,1-.6-2.152,2.234,2.234,0,0,1,2.062-1.438,2.093,2.093,0,0,1,1.369.514,21.366,21.366,0,0,1,5.848,8.072,1.88,1.88,0,0,1-.133,1.8,2.146,2.146,0,0,1-1.787.9Z" transform="translate(-330.756 -189.436)" fill="#81ffcf"/>
            <path id="Path_91" data-name="Path 91" d="M443.067,331.187a2.154,2.154,0,0,1-1.764-.874,1.953,1.953,0,0,1-.232-1.791,11.617,11.617,0,0,0,.572-5.145,1.921,1.921,0,0,1,.46-1.516,2.028,2.028,0,0,1,1.517-.646,2.162,2.162,0,0,1,2.2,1.933,15.144,15.144,0,0,1-.748,6.612,2.092,2.092,0,0,1-2,1.426Z" transform="translate(-338.86 -246.845)" fill="#81ffcf"/>
            <path id="Path_92" data-name="Path 92" d="M423.638,405.58a9.265,9.265,0,0,1-3.056-.516,2.107,2.107,0,0,1-1.389-2.385,1.987,1.987,0,0,1,1.939-1.733,2.116,2.116,0,0,1,.7.122,5.551,5.551,0,0,0,1.827.317,5.22,5.22,0,0,0,3.983-1.874,1.947,1.947,0,0,1,1.481-.706,2.167,2.167,0,0,1,1.911,1.286,2.1,2.1,0,0,1-.326,2.268,9.33,9.33,0,0,1-7.067,3.221" transform="translate(-322.113 -306.47)" fill="#81ffcf"/>
            <path id="Path_93" data-name="Path 93" d="M351.848,432.558a2.25,2.25,0,0,1-2.153-1.773,1.86,1.86,0,0,1,1.132-2.141l4.055-1.776c.221-.1.491-.193.8-.3a6.706,6.706,0,0,0,2.118-1.022,1.984,1.984,0,0,1,1.955-1.5,2.2,2.2,0,0,1,1.74.84,2.007,2.007,0,0,1,.342,1.773c-.5,1.93-2.134,2.65-3.324,3.175q-1.933.854-3.871,1.7l-1.926.841a2.167,2.167,0,0,1-.873.186Z" transform="translate(-268.696 -325.867)" fill="#81ffcf"/>
            <path id="Path_94" data-name="Path 94" d="M394.481,357.407a2.272,2.272,0,0,1-1.718-.8,2.1,2.1,0,0,1-.459-1.738,17.358,17.358,0,0,0,.161-4.645,1.938,1.938,0,0,1,.478-1.508,2.044,2.044,0,0,1,1.516-.64,2.14,2.14,0,0,1,2.185,1.953,21.507,21.507,0,0,1-.257,5.755,1.9,1.9,0,0,1-1.905,1.625Z" transform="translate(-301.448 -267.485)" fill="#81ffcf"/>
            <path id="Path_95" data-name="Path 95" d="M382.271,279.079a2.049,2.049,0,0,1-1.911-1.491,2.115,2.115,0,0,1,.8-2.409,5.283,5.283,0,0,0,1.769-6.262,1.912,1.912,0,0,1,.176-1.8,2.161,2.161,0,0,1,1.776-.891A2.119,2.119,0,0,1,386.9,267.6a9.437,9.437,0,0,1-3.474,11.095,2,2,0,0,1-1.154.382Z" transform="translate(-292.214 -204.589)" fill="#81ffcf"/>
            <path id="Path_96" data-name="Path 96" d="M407.49,178.191a2.221,2.221,0,0,1-1.905-1.107,1.976,1.976,0,0,1,.046-2.036,7.4,7.4,0,0,0,.687-6.275,1.968,1.968,0,0,1,.253-1.789,2.163,2.163,0,0,1,1.758-.867,2.071,2.071,0,0,1,2,1.446,11.5,11.5,0,0,1-1.092,9.617A2,2,0,0,1,407.49,178.191Z" transform="translate(-311.48 -127.656)" fill="#81ffcf"/>
            <path id="Path_97" data-name="Path 97" d="M374.055,117.168a2.1,2.1,0,0,1-1.514-.623,1.988,1.988,0,0,1-.535-1.479,10.04,10.04,0,0,0-.813-4.531,2.119,2.119,0,0,1,.162-2.047,2.223,2.223,0,0,1,1.83-1.025,1.871,1.871,0,0,1,1.733,1.171,14.494,14.494,0,0,1,1.275,6.523,2.092,2.092,0,0,1-2.137,2.012Z" transform="translate(-285.105 -82.581)" fill="#81ffcf"/>
            <path id="Path_98" data-name="Path 98" d="M295.136,107.475a8.224,8.224,0,0,1-1.629-.164,1.933,1.933,0,0,1-1.583-2.142,2.149,2.149,0,0,1,2.112-1.975,2.232,2.232,0,0,1,.442.045,3.53,3.53,0,0,0,.7.07,3.642,3.642,0,0,0,3.039-1.679,2.038,2.038,0,0,1,1.742-.971,2.216,2.216,0,0,1,1.924,1.126,1.968,1.968,0,0,1-.093,2.029,7.862,7.862,0,0,1-6.653,3.661Z" transform="translate(-224.327 -77.354)" fill="#81ffcf"/>
            <path id="Path_99" data-name="Path 99" d="M185.163,125.461A10.1,10.1,0,0,1,179,123.145a1.881,1.881,0,0,1-.637-2.129,2.242,2.242,0,0,1,2.089-1.464,2.119,2.119,0,0,1,1.343.483,5.674,5.674,0,0,0,3.432,1.24,2.068,2.068,0,0,1,2.026,2.158,2,2,0,0,1-2.02,2.03h-.069" transform="translate(-136.981 -91.871)" fill="#81ffcf"/>
            <path id="Path_100" data-name="Path 100" d="M93.094,116.312a21.587,21.587,0,0,1-2.186-.112,2.161,2.161,0,0,1-1.938-2.308,1.907,1.907,0,0,1,1.924-1.881,2.226,2.226,0,0,1,.229.012,18.718,18.718,0,0,0,1.9.1,17.448,17.448,0,0,0,5.4-.849,2.146,2.146,0,0,1,.653-.1,2.031,2.031,0,0,1,1.971,1.777,2.073,2.073,0,0,1-1.429,2.342,21.372,21.372,0,0,1-6.515,1.027Z" transform="translate(-68.368 -85.429)" fill="#81ffcf"/>
            <path id="Path_101" data-name="Path 101" d="M62.257,161.567a2.028,2.028,0,0,1-1.867-1.44,2.168,2.168,0,0,1,.725-2.453,3.081,3.081,0,0,0,1.121-2.884,2.106,2.106,0,0,1,.469-1.735,2.276,2.276,0,0,1,1.716-.8,1.887,1.887,0,0,1,1.9,1.633,7.371,7.371,0,0,1-2.872,7.251,1.956,1.956,0,0,1-1.192.424Z" transform="translate(-46.314 -117.006)" fill="#81ffcf"/>
            <path id="Path_102" data-name="Path 102" d="M107.261,221.283a2.031,2.031,0,0,1-2.095-2.059v-7.948a2.094,2.094,0,0,1,4.188,0v7.948a2.01,2.01,0,0,1-.692,1.553A2.145,2.145,0,0,1,107.261,221.283Z" transform="translate(-80.817 -160.778)" fill="#81ffcf"/>
            <path id="Path_103" data-name="Path 103" d="M65.484,314.32A1.877,1.877,0,0,1,63.6,312.5a2.212,2.212,0,0,1,1.684-2.329,6.631,6.631,0,0,0,.492-1.614c.041-.186.077-.341.106-.446l.918-3.3a2.007,2.007,0,0,1,1.972-1.506,2.194,2.194,0,0,1,1.745.846,1.991,1.991,0,0,1,.32,1.777c-.144.519-.275,1.041-.414,1.594a28.8,28.8,0,0,1-1.183,3.919,4.175,4.175,0,0,1-3.465,2.861,2.214,2.214,0,0,1-.29.019Z" transform="translate(-48.871 -233.08)" fill="#81ffcf"/>
            <path id="Path_104" data-name="Path 104" d="M94.75,381.028a1.949,1.949,0,0,1-1.946-1.56,37.055,37.055,0,0,1-.966-8.493,2.035,2.035,0,0,1,2.1-2.056,2.141,2.141,0,0,1,1.512.609,2.026,2.026,0,0,1,.579,1.453,32.1,32.1,0,0,0,.837,7.456,2.037,2.037,0,0,1-.381,1.763,2.225,2.225,0,0,1-1.732.826" transform="translate(-70.574 -283.504)" fill="#81ffcf"/>
            <path id="Path_105" data-name="Path 105" d="M151.978,430.239a2.138,2.138,0,0,1-2.024-1.354,9.506,9.506,0,0,0-5.327-5.275,2.159,2.159,0,0,1-1.326-2.45,1.955,1.955,0,0,1,1.89-1.667,2.073,2.073,0,0,1,.76.149,13.853,13.853,0,0,1,7.964,7.9,1.9,1.9,0,0,1-.156,1.8,2.153,2.153,0,0,1-1.781.9Z" transform="translate(-110.092 -322.368)" fill="#81ffcf"/>
            <path id="Path_106" data-name="Path 106" d="M208.9,414.479a1.944,1.944,0,0,1-1.874-1.646,2.175,2.175,0,0,1,1.306-2.47l7.906-3.214a2.067,2.067,0,0,1,.779-.158,1.944,1.944,0,0,1,1.874,1.646,2.175,2.175,0,0,1-1.306,2.47l-7.906,3.214A2.065,2.065,0,0,1,208.9,414.479Z" transform="translate(-159.062 -312.761)" fill="#81ffcf"/>
            <path id="Path_107" data-name="Path 107" d="M293.873,381.434a2.172,2.172,0,0,1-2.054-1.656,1.959,1.959,0,0,1,1.008-2.256l4.494-2.416a2.1,2.1,0,0,1,1-.259,2.172,2.172,0,0,1,2.054,1.656,1.959,1.959,0,0,1-1.008,2.256l-4.494,2.416A2.1,2.1,0,0,1,293.873,381.434Z" transform="translate(-224.205 -288.058)" fill="#81ffcf"/>
            <path id="Path_108" data-name="Path 108" d="M341,369.209a2.11,2.11,0,0,1-2.15-2,25.556,25.556,0,0,0-1.065-6.023,1.971,1.971,0,0,1,.29-1.784,2.181,2.181,0,0,1,1.75-.855,2.036,2.036,0,0,1,1.985,1.479,30.373,30.373,0,0,1,1.225,7.067,1.976,1.976,0,0,1-.522,1.487,2.082,2.082,0,0,1-1.514.627" transform="translate(-259.506 -275.534)" fill="#81ffcf"/>
            <path id="Path_109" data-name="Path 109" d="M325.69,294.128a4.037,4.037,0,0,1-.938-.116,1.977,1.977,0,0,1-1.536-2.208,2.12,2.12,0,0,1,2.067-1.91h.026a21.652,21.652,0,0,0,.646-5.46,2.008,2.008,0,0,1,.558-1.466,2.118,2.118,0,0,1,1.512-.615,2.063,2.063,0,0,1,2.118,2.035c.054,2.416-.14,6.759-2.047,8.709a3.3,3.3,0,0,1-2.4,1.031" transform="translate(-248.37 -216.98)" fill="#81ffcf"/>
            <path id="Path_110" data-name="Path 110" d="M347.359,228.47a2.106,2.106,0,0,1-.987-.25,3.793,3.793,0,0,0-1.779-.447,3.948,3.948,0,0,0-.875.1,2.218,2.218,0,0,1-.491.056h0a2.128,2.128,0,0,1-2.08-1.93,1.963,1.963,0,0,1,1.552-2.187,8.465,8.465,0,0,1,1.875-.214,8.163,8.163,0,0,1,3.829.96,1.946,1.946,0,0,1,1.024,2.242,2.179,2.179,0,0,1-2.066,1.671" transform="translate(-262.149 -171.829)" fill="#81ffcf"/>
            <path id="Path_111" data-name="Path 111" d="M340.438,163.581a1.954,1.954,0,0,1-1.194-.426,20.507,20.507,0,0,1-6.926-9.494,1.94,1.94,0,0,1,.215-1.793,2.148,2.148,0,0,1,1.767-.879,2.081,2.081,0,0,1,2.009,1.411,15.915,15.915,0,0,0,5.272,7.29,2.17,2.17,0,0,1,.722,2.454,2.027,2.027,0,0,1-1.865,1.437Z" transform="translate(-255.28 -116.031)" fill="#81ffcf"/>
            <path id="Path_112" data-name="Path 112" d="M259.724,162.926a2.1,2.1,0,0,1-.721-.132,22.434,22.434,0,0,1-8.433-5.415,2.021,2.021,0,0,1-.437-2.228,2.18,2.18,0,0,1,1.969-1.346,2.019,2.019,0,0,1,1.446.629,17.976,17.976,0,0,0,6.731,4.374,2.126,2.126,0,0,1,1.366,2.409A1.975,1.975,0,0,1,259.724,162.926Z" transform="translate(-192.095 -118.195)" fill="#81ffcf"/>
            <path id="Path_113" data-name="Path 113" d="M142.023,169.6a1.988,1.988,0,0,1-1.965-1.525,4.857,4.857,0,0,0-3.553-3.517,1.994,1.994,0,0,1-1.519-2.231,2.083,2.083,0,0,1,2.05-1.887,2.194,2.194,0,0,1,.539.069,9.052,9.052,0,0,1,6.527,6.478,2.008,2.008,0,0,1-.341,1.774,2.2,2.2,0,0,1-1.74.839Z" transform="translate(-103.72 -123.297)" fill="#81ffcf"/>
            <path id="Path_114" data-name="Path 114" d="M134.234,254.455a2.045,2.045,0,0,1-2.047-2.118,2.019,2.019,0,0,1,1.908-2.066,7.566,7.566,0,0,0,1.051-2.632c.047-.162.086-.3.118-.4a25.853,25.853,0,0,0,.831-3.6,1.882,1.882,0,0,1,1.9-1.638,2.28,2.28,0,0,1,1.715.8,2.108,2.108,0,0,1,.475,1.732,28.039,28.039,0,0,1-1.918,6.608c-.429.991-1.432,3.312-3.982,3.312Z" transform="translate(-101.582 -185.975)" fill="#81ffcf"/>
            <path id="Path_115" data-name="Path 115" d="M130.778,334.368a2.125,2.125,0,0,1-1.513-.614,2.013,2.013,0,0,1-.562-1.464,8.652,8.652,0,0,0-2.251-6.08,2.069,2.069,0,0,1-.369-2.254,2.171,2.171,0,0,1,1.933-1.309,1.974,1.974,0,0,1,1.47.677,12.845,12.845,0,0,1,3.405,9.005,2.057,2.057,0,0,1-2.112,2.039" transform="translate(-96.751 -247.946)" fill="#81ffcf"/>
            <path id="Path_116" data-name="Path 116" d="M177.849,384.164a1.951,1.951,0,0,1-1.195-.428,10.162,10.162,0,0,0-5.148-2.145,2.17,2.17,0,0,1-1.929-2.322,1.9,1.9,0,0,1,1.914-1.867,2.292,2.292,0,0,1,.244.013,14.2,14.2,0,0,1,7.257,2.857,2.171,2.171,0,0,1,.72,2.456A2.026,2.026,0,0,1,177.849,384.164Z" transform="translate(-130.313 -290.023)" fill="#81ffcf"/>
            <path id="Path_117" data-name="Path 117" d="M239.3,326.571a2.252,2.252,0,0,1-1.724-.813,2.071,2.071,0,0,1-.426-1.75,11.31,11.31,0,0,1,5.656-7.7,2.087,2.087,0,0,1,1.018-.27,2.165,2.165,0,0,1,2.041,1.641,1.972,1.972,0,0,1-.99,2.27,7.159,7.159,0,0,0-3.651,5.019,1.929,1.929,0,0,1-1.923,1.6Z" transform="translate(-182.208 -242.87)" fill="#81ffcf"/>
            <path id="Path_118" data-name="Path 118" d="M289.759,230.617a2.12,2.12,0,0,1-2.172-1.97,19.908,19.908,0,0,0-2.025-7.316,2.067,2.067,0,0,1,.087-2.047,2.24,2.24,0,0,1,1.856-1.054,1.927,1.927,0,0,1,1.742,1.114,24.853,24.853,0,0,1,2.521,9.136,1.951,1.951,0,0,1-.494,1.5A2.057,2.057,0,0,1,289.759,230.617Z" transform="translate(-219.27 -167.704)" fill="#81ffcf"/>
            <path id="Path_119" data-name="Path 119" d="M217.186,193.225a2.083,2.083,0,0,1-1.023-.274,38.368,38.368,0,0,1-5.9-4.071,1.9,1.9,0,0,1-.61-2.144,2.236,2.236,0,0,1,2.072-1.447,2.1,2.1,0,0,1,1.36.5,33.39,33.39,0,0,0,5.152,3.522,1.978,1.978,0,0,1,.984,2.276,2.163,2.163,0,0,1-2.036,1.635Z" transform="translate(-161.024 -142.389)" fill="#81ffcf"/>
            <path id="Path_120" data-name="Path 120" d="M196.028,224.518a2.063,2.063,0,0,1-1.057-.3,10.218,10.218,0,0,1-4.8-6.47,2.031,2.031,0,0,1,.372-1.766,2.219,2.219,0,0,1,1.734-.829,1.957,1.957,0,0,1,1.951,1.552,6.057,6.057,0,0,0,2.862,3.9,2.009,2.009,0,0,1,.943,2.308,2.122,2.122,0,0,1-2.007,1.6Z" transform="translate(-146.096 -165.34)" fill="#81ffcf"/>
            <path id="Path_121" data-name="Path 121" d="M253.849,252.722a2.212,2.212,0,0,1-1.95-1.15,1.928,1.928,0,0,1,.151-2.018,7.141,7.141,0,0,0,1.005-6.3,1.969,1.969,0,0,1,.288-1.784,2.179,2.179,0,0,1,1.751-.856,2.038,2.038,0,0,1,1.986,1.477,11.283,11.283,0,0,1-1.5,9.712A2.083,2.083,0,0,1,253.849,252.722Z" transform="translate(-193.41 -184.902)" fill="#81ffcf"/>
            <path id="Path_122" data-name="Path 122" d="M170.2,286.852a2.248,2.248,0,0,1-2.149-1.768,1.864,1.864,0,0,1,1.127-2.146,9.495,9.495,0,0,0,4.586-4.167,1.984,1.984,0,0,1,1.746-1.057A2.229,2.229,0,0,1,177.4,278.8a2.016,2.016,0,0,1,.013,2.043,13.351,13.351,0,0,1-6.327,5.823,2.164,2.164,0,0,1-.879.189" transform="translate(-129.11 -213.415)" fill="#81ffcf"/>
            <path id="Path_123" data-name="Path 123" d="M205.777,321.21a2.225,2.225,0,0,1-2.03-1.407,1.948,1.948,0,0,1,.543-2.18,4.756,4.756,0,0,0,1.645-3.381,2.148,2.148,0,0,1,3.658-1.378,1.982,1.982,0,0,1,.527,1.483,9.042,9.042,0,0,1-2.945,6.31,2.061,2.061,0,0,1-1.4.552Z" transform="translate(-156.472 -239.947)" fill="#81ffcf"/>
          </g>
        </g>
      </g>
      <g id="Group_4" data-name="Group 4" transform="translate(214.3 347.474)">
        <g id="Group_1" data-name="Group 1" clip-path="url(#clip-path-3)">
          <path id="Path_1" data-name="Path 1" d="M38.834,0A38.849,38.849,0,0,0,1.965,26.607l0,.011q-.081.244-.158.489a.087.087,0,0,0,0,.014q-.4,1.257-.711,2.55s0,.005,0,.009q-.059.243-.115.487c-.006.029-.012.058-.02.086-.031.138-.061.276-.091.414-.009.041-.017.081-.026.122-.027.127-.053.255-.079.383-.009.046-.018.092-.028.139-.024.124-.047.247-.07.372-.01.048-.019.1-.028.146-.022.124-.044.247-.066.372l-.024.143c-.022.13-.044.26-.064.39-.006.041-.013.083-.02.124-.023.151-.046.3-.068.455,0,.02-.005.04-.009.06q-.073.52-.132,1.046c-.005.046-.01.092-.015.139l-.04.377c-.005.061-.012.123-.017.184-.011.112-.021.223-.031.335-.005.068-.011.135-.017.2-.008.107-.017.213-.024.32-.005.07-.011.141-.015.212-.007.1-.013.208-.02.312,0,.072-.009.145-.012.217-.005.1-.011.209-.015.314,0,.071-.007.143-.01.214,0,.108-.008.217-.012.324,0,.068,0,.137-.006.2,0,.119-.005.237-.008.356,0,.058,0,.116,0,.173q0,.265,0,.531A38.834,38.834,0,0,0,38.834,77.667c.181,0,.362,0,.542,0l.177,0,.366-.008.206-.007c.112,0,.224-.007.336-.012l.214-.009.332-.017.21-.012.345-.022.191-.013.4-.033.13-.011q.269-.023.537-.051l.077-.008.452-.05.165-.02.365-.045.186-.025.346-.048.188-.028.351-.053.174-.028.383-.064.137-.024q.529-.093,1.054-.2l.063-.014.453-.1.128-.029c.13-.028.26-.059.389-.089l.142-.034.38-.092.137-.035.4-.1.109-.029c.159-.043.317-.085.475-.13l.028-.008q.527-.148,1.047-.311l.015-.005q.244-.076.486-.156l.071-.023.435-.147.08-.028.435-.153.065-.024q.24-.087.479-.176l.011,0q1.02-.384,2.01-.823l.006,0c.163-.072.325-.146.486-.22l.009,0A38.839,38.839,0,0,0,38.834,0m25.45,65.341a4.1,4.1,0,0,1-2.122-.022c-1.887-.621-5.04,1.976-5.562,2.962a.821.821,0,0,1-1.392.115c-1.618-1.618-5.633-.193-6.522,1.3a1.1,1.1,0,0,1-1.828.044c-1.33-2.13-5.477-1.158-6.844-.02a1.6,1.6,0,0,1-2.379-.338c-1.1-1.771-4.177-2.379-6.147-1.558-.644.269-2.333.451-2.962-.317a5.622,5.622,0,0,0-3.465-1.749c-1.571-.281-1.941-.979-1.82-2.067a4.9,4.9,0,0,0-3.97-4.924,2.443,2.443,0,0,1-1.936-2.955c.811-2.486-1.965-5.545-3.962-5.711-1.071-.089-2.023-1.934-1.4-3.377.986-2.287-.8-5.97-2.378-6.54A2.3,2.3,0,0,1,8.484,36.8c1.238-2.026,1.252-4.839-.045-6.136-1.125-1.125-1.661-1.682-1.223-3.028a5.208,5.208,0,0,0,.369-3.537,4.543,4.543,0,0,1,.908-3.212c4.614-4.9,1.765-4.345,3.176-6.721.039-.066.076-.132.113-.2a36.747,36.747,0,1,1,52.5,51.378" transform="translate(0 0)" fill="#003566"/>
          <path id="Path_2" data-name="Path 2" d="M111.235,23.46A36.65,36.65,0,0,0,84.182,35.338c-.037.066-.074.132-.113.2-1.411,2.376,1.438,1.825-3.176,6.721a4.544,4.544,0,0,0-.908,3.212,5.208,5.208,0,0,1-.369,3.537c-.438,1.347.1,1.9,1.223,3.028,1.3,1.3,1.283,4.111.045,6.136a2.3,2.3,0,0,0,1.108,3.385c1.574.57,3.364,4.253,2.378,6.54-.623,1.443.329,3.289,1.4,3.378,2,.165,4.774,3.225,3.962,5.711A2.443,2.443,0,0,0,91.67,80.14a4.9,4.9,0,0,1,3.97,4.924c-.121,1.088.25,1.787,1.82,2.067a5.622,5.622,0,0,1,3.465,1.749c.629.768,2.318.587,2.962.317,1.97-.821,5.042-.213,6.147,1.558a1.6,1.6,0,0,0,2.379.338c1.367-1.138,5.514-2.109,6.844.02a1.1,1.1,0,0,0,1.828-.044c.889-1.492,4.9-2.917,6.522-1.3A.821.821,0,0,0,129,89.655c.523-.986,3.675-3.583,5.562-2.962a4.1,4.1,0,0,0,2.122.022,36.748,36.748,0,0,0-25.45-63.256m25.627,40.659c.086-2.3,1.507-4.2,2.951-4.2a2.061,2.061,0,0,1,1.813,1.274A.454.454,0,0,1,141,61.8a1.8,1.8,0,0,0-.876-.221c-1.119,0-2.222,1.1-2.762,2.663a.26.26,0,0,1-.507-.094c0-.01,0-.019,0-.028m-8.3,2a4.163,4.163,0,0,1,3.674-2.948,3.473,3.473,0,0,1,3.313,3.074.3.3,0,0,1-.547.217,3.334,3.334,0,0,0-2.841-1.627,3.926,3.926,0,0,0-3.013,1.609.34.34,0,0,1-.588-.325M118.6,63.046A4.621,4.621,0,0,1,122.364,61a4.318,4.318,0,0,1,4.293,4.463.36.36,0,0,1-.7.126,4.453,4.453,0,0,0-4.178-2.921,4.631,4.631,0,0,0-2.68.873.361.361,0,0,1-.506-.5m-4.23-37.414a4.334,4.334,0,0,0,3.028-.7.451.451,0,0,1,.6-.07.847.847,0,0,1,.308.343c.261.609-1.059,1.19-2.986,1.12a8.833,8.833,0,0,1-1-.091.3.3,0,0,1,.054-.6M98.25,62.674a4.456,4.456,0,0,0-.649.046.421.421,0,0,1-.331-.739A4.2,4.2,0,0,1,99.985,61a4.763,4.763,0,0,1,4.629,4.735,4.514,4.514,0,0,1-.731,2.541.421.421,0,0,1-.772-.252c0-.1.007-.2.005-.3a5.047,5.047,0,0,0-4.867-5.056M94.015,51.219a.392.392,0,0,1-.065-.754,3.895,3.895,0,0,1,5.224,4.081A4.934,4.934,0,0,1,97.7,57.97a.392.392,0,0,1-.641-.419,5.32,5.32,0,0,0,.34-1.776,4.361,4.361,0,0,0-3.383-4.556m10.127-.478a.315.315,0,0,1-.116-.61,4.725,4.725,0,0,1,1.563-.3,4.557,4.557,0,0,1,4.662,4.582,4.666,4.666,0,0,1-.563,2.223.376.376,0,0,1-.7-.236,4.974,4.974,0,0,0,.06-.768,4.828,4.828,0,0,0-4.9-4.892m4.5-17.484a.348.348,0,0,1,.473-.5,2.562,2.562,0,0,1,1.239,2.162,3.448,3.448,0,0,1-1.975,2.833.348.348,0,0,1-.4-.562,3.285,3.285,0,0,0,1.177-2.377,2.594,2.594,0,0,0-.511-1.561m-.665,28.995a4.736,4.736,0,0,1,7.656,5.063.34.34,0,0,1-.658-.087,4.983,4.983,0,0,0-6.579-4.265.421.421,0,0,1-.42-.71m3.173-31.794a3.1,3.1,0,0,0,.412-.058c1.507-.374,2.5-1.273,2.4-2.2,0-.028-.008-.057-.012-.084a.3.3,0,0,1,.506-.271,1.456,1.456,0,0,1,.472.882c.133,1.136-1.544,2.231-3.753,2.227a.25.25,0,0,1-.022-.5m-6.279-4.609a.252.252,0,0,1,.254-.213q.26.007.538,0c1.79-.062,3.288-.626,3.614-1.181a.249.249,0,0,1,.273-.117c.607.14.99.368.989.676,0,.578-1.576,1.247-3.5,1.313a6.651,6.651,0,0,1-1.984-.2.25.25,0,0,1-.18-.278m-3.522,4.939c1.725-.45,3.083-1.527,3.2-2.523a1.184,1.184,0,0,0-.073-.583.251.251,0,0,1,.313-.33c.791.266,1.267.762,1.187,1.435-.132,1.137-2.012,2.376-4.134,2.547-.141.012-.28.019-.414.02a.288.288,0,0,1-.076-.567m-.794,9.521a.221.221,0,0,1,.2-.2,3.64,3.64,0,0,1,4.113,3.721,4.444,4.444,0,0,1-1.349,2.954.422.422,0,0,1-.671-.5,4.487,4.487,0,0,0,.537-1.958,3.742,3.742,0,0,0-2.68-3.79.22.22,0,0,1-.154-.236M98.441,33.7A.474.474,0,0,1,99,33a2.126,2.126,0,0,1,1.481,2.37,4.918,4.918,0,0,1-3.488,3.571.348.348,0,0,1-.3-.619,4.643,4.643,0,0,0,2.08-3.027,2.335,2.335,0,0,0-.331-1.593m-5.515-2.154A5.036,5.036,0,0,0,95.5,29.064a1.422,1.422,0,0,0,.068-.484.527.527,0,0,1,.6-.545c.943.138,1.46.664,1.2,1.5-.362,1.177-2.274,2.569-4.145,2.9a.473.473,0,0,1-.3-.889m1.782,12.925a5.273,5.273,0,0,1-2.855,4.08.362.362,0,0,1-.436-.559A5.459,5.459,0,0,0,92.7,45.019a3.242,3.242,0,0,0-1.429-3.226.363.363,0,0,1,.128-.67,2.847,2.847,0,0,1,3.309,3.351m-7.63-4.593A6.012,6.012,0,0,0,89.4,36.545a2.305,2.305,0,0,0-.2-1.691.43.43,0,0,1,.325-.651,1.765,1.765,0,0,1,2.04,2.338,5.72,5.72,0,0,1-3.945,3.945c-.1.02-.191.036-.283.047a.363.363,0,0,1-.259-.652m-4.1,10.052a.421.421,0,0,1-.406-.667,6.471,6.471,0,0,0,1.235-3.032,3.511,3.511,0,0,0-.468-2.473.668.668,0,0,1,.291-1.006,2.553,2.553,0,0,1,.281-.1c1.472-.41,2.6.859,2.34,2.954s-1.819,4.081-3.273,4.321m3.48,2.212a.42.42,0,0,1-.059-.738,2.849,2.849,0,0,1,1.2-.444c1.749-.216,3.257,1.518,3.17,3.924a4.823,4.823,0,0,1-2.218,4.036.421.421,0,0,1-.586-.545,5.8,5.8,0,0,0,.527-2.239,4.056,4.056,0,0,0-2.031-3.994m5.2,17.334a5.3,5.3,0,0,0,.074-1.055c-.062-2.318-1.614-4.441-3.59-4.8a.6.6,0,0,1-.263-1.062A3.069,3.069,0,0,1,89.8,61.9c2.045,0,3.907,2.056,3.975,4.546a4.2,4.2,0,0,1-1.433,3.427.42.42,0,0,1-.68-.4m.987,4.546a.6.6,0,0,1-.55-.914,3.24,3.24,0,0,1,3.066-1.475,5.009,5.009,0,0,1,4.47,4.469,3.273,3.273,0,0,1-1.179,2.853.362.362,0,0,1-.584-.252,5.245,5.245,0,0,0-5.222-4.681m11.7,12.743a.359.359,0,0,1-.277.027.364.364,0,0,1-.214-.18,5.426,5.426,0,0,0-4.34-2.687,4.662,4.662,0,0,0-1.451.112.36.36,0,0,1-.444-.308c-.206-1.724,1.379-3.026,3.583-2.866,2.314.162,4.35,1.884,4.462,3.639a2.329,2.329,0,0,1-1.319,2.263m-.169-12.25a4.749,4.749,0,0,0-2.079.418.361.361,0,0,1-.478-.476,4.2,4.2,0,0,1,4-2.364,4.647,4.647,0,0,1,4.663,4.362,3.165,3.165,0,0,1-.639,2.1.36.36,0,0,1-.639-.154,5.012,5.012,0,0,0-4.829-3.886M115.7,84.568a2.719,2.719,0,0,1-.824,1.749.361.361,0,0,1-.561-.062,4.668,4.668,0,0,0-3.979-1.936,5.292,5.292,0,0,0-2.511.609.36.36,0,0,1-.53-.284c0-.025,0-.051-.006-.076-.113-1.753,1.768-3.338,4.2-3.336s4.319,1.583,4.206,3.336m.153-9.415a5.16,5.16,0,0,0-2.994,1.037.36.36,0,0,1-.555-.411,4.815,4.815,0,0,1,4.423-3.049,3.9,3.9,0,0,1,4.1,5.17.361.361,0,0,1-.679.006,4.374,4.374,0,0,0-4.3-2.754m8.732,12.071a.361.361,0,0,1-.578.042,3.738,3.738,0,0,0-3.174-1.114,5.7,5.7,0,0,0-3.225,1.319.361.361,0,0,1-.589-.219c-.3-1.912,1.887-3.984,4.443-4.162,2.9-.21,4.453,2.035,3.122,4.134m-1.16-11.386a.361.361,0,0,1-.627-.309,5.042,5.042,0,0,1,4.39-3.891,3.268,3.268,0,0,1,3.488,4.1.261.261,0,0,1-.487.069,3.372,3.372,0,0,0-3.335-1.779,5.075,5.075,0,0,0-3.429,1.81m9.83,6.911a.361.361,0,0,1-.548.148,2.74,2.74,0,0,0-2.12-.407,5.89,5.89,0,0,0-3.428,2.067.361.361,0,0,1-.625-.132,2.362,2.362,0,0,1-.034-1.056,5.424,5.424,0,0,1,4.238-3.87c2.226-.351,3.344,1.3,2.517,3.25m-.646-6.767a.261.261,0,0,1-.5-.1,4.438,4.438,0,0,1,.023-.68c.237-2.165,2.015-4.2,3.767-4.411,1.635-.2,2.648,1.106,2.576,2.9a.261.261,0,0,1-.175.236.258.258,0,0,1-.283-.076,2.174,2.174,0,0,0-2-.725,4.913,4.913,0,0,0-3.409,2.858m7.417,5.528c-.02.09-.044.179-.071.268a.361.361,0,0,1-.453.241,1.847,1.847,0,0,0-1.062.028,5.977,5.977,0,0,0-3.068,2.669.359.359,0,0,1-.631-.023,2.277,2.277,0,0,1-.086-1.54,5.98,5.98,0,0,1,3.552-3.987c1.476-.414,2.2.688,1.82,2.346m4.211-9.685a.484.484,0,0,1-.426.107,1.182,1.182,0,0,0-.537.007c-1,.226-2.122,1.669-2.631,3.38a.261.261,0,0,1-.5-.022,4.336,4.336,0,0,1-.028-1.425c.255-2.015,1.571-3.936,2.724-4.192.9-.2,1.452.544,1.564,1.737a.481.481,0,0,1-.162.408m2.077-9.575a.445.445,0,0,1-.361.176h-.012c-.724,0-1.495,1.216-1.795,2.858a.3.3,0,0,1-.312.24.3.3,0,0,1-.282-.28,7.09,7.09,0,0,1-.007-.718c.078-2.06.987-3.749,1.825-3.748.449,0,.793.414,1.007,1.075a.436.436,0,0,1-.064.4m.125-8.172c-.547.159-.965,1.5-.9,3.205a.215.215,0,0,1-.427.049,8.785,8.785,0,0,1-.155-1.374c-.07-1.928.512-3.248,1.121-2.986a1.261,1.261,0,0,1,.555.7.3.3,0,0,1-.191.405" transform="translate(-72.401 -21.375)" fill="#fff"/>
          <path id="Path_3" data-name="Path 3" d="M370.98,33.9c0,.578-1.576,1.247-3.5,1.313a6.652,6.652,0,0,1-1.984-.2.25.25,0,0,1,.074-.492c.173,0,.353,0,.538,0,1.79-.062,3.288-.626,3.614-1.181a.249.249,0,0,1,.273-.117c.607.14.99.368.989.676" transform="translate(-332.84 -30.264)" fill="#003566"/>
          <path id="Path_4" data-name="Path 4" d="M469.895,39.836a8.833,8.833,0,0,1-1-.091.3.3,0,0,1,.054-.6,4.334,4.334,0,0,0,3.028-.7.451.451,0,0,1,.6-.07.847.847,0,0,1,.307.343c.261.609-1.059,1.19-2.986,1.12" transform="translate(-426.983 -34.888)" fill="#003566"/>
          <path id="Path_5" data-name="Path 5" d="M232.687,76.373c-.362,1.177-2.274,2.569-4.144,2.9a.473.473,0,0,1-.3-.889,5.036,5.036,0,0,0,2.572-2.485,1.422,1.422,0,0,0,.068-.484.527.527,0,0,1,.6-.545c.943.138,1.46.664,1.2,1.5" transform="translate(-207.72 -68.212)" fill="#003566"/>
          <path id="Path_6" data-name="Path 6" d="M328.13,68.55C328,69.687,326.118,70.926,324,71.1c-.141.012-.28.019-.414.02a.288.288,0,0,1-.076-.567c1.725-.45,3.083-1.527,3.2-2.523a1.183,1.183,0,0,0-.073-.583.251.251,0,0,1,.313-.33c.791.266,1.267.762,1.187,1.435" transform="translate(-294.556 -61.138)" fill="#003566"/>
          <path id="Path_7" data-name="Path 7" d="M433.669,75.091a.25.25,0,0,1-.022-.5,3.1,3.1,0,0,0,.412-.058c1.507-.374,2.5-1.273,2.4-2.2,0-.028-.008-.057-.012-.084a.3.3,0,0,1,.506-.271,1.458,1.458,0,0,1,.472.882c.133,1.136-1.544,2.231-3.753,2.227" transform="translate(-394.895 -65.508)" fill="#003566"/>
          <path id="Path_8" data-name="Path 8" d="M436.242,107.824Z" transform="translate(-397.468 -98.24)" fill="#003566"/>
          <path id="Path_9" data-name="Path 9" d="M168.108,146.507a5.72,5.72,0,0,1-3.945,3.945c-.1.02-.191.036-.283.047a.362.362,0,0,1-.259-.651,6.011,6.011,0,0,0,2.317-3.336,2.305,2.305,0,0,0-.2-1.691.43.43,0,0,1,.325-.652,1.765,1.765,0,0,1,2.04,2.338" transform="translate(-148.944 -131.341)" fill="#003566"/>
          <path id="Path_10" data-name="Path 10" d="M275.542,132.878a4.918,4.918,0,0,1-3.488,3.571.348.348,0,0,1-.3-.619,4.644,4.644,0,0,0,2.08-3.027,2.336,2.336,0,0,0-.331-1.593.474.474,0,0,1,.56-.7,2.127,2.127,0,0,1,1.481,2.37" transform="translate(-247.462 -118.882)" fill="#003566"/>
          <path id="Path_11" data-name="Path 11" d="M401.485,129.679a3.448,3.448,0,0,1-1.975,2.833.348.348,0,0,1-.4-.562,3.285,3.285,0,0,0,1.177-2.377,2.594,2.594,0,0,0-.511-1.561.348.348,0,0,1,.473-.5,2.562,2.562,0,0,1,1.239,2.162" transform="translate(-363.531 -116.13)" fill="#003566"/>
          <path id="Path_12" data-name="Path 12" d="M117.259,241.629c-.257,2.1-1.819,4.08-3.273,4.32a.421.421,0,0,1-.406-.667,6.472,6.472,0,0,0,1.235-3.032,3.511,3.511,0,0,0-.468-2.473.668.668,0,0,1,.291-1.006,2.559,2.559,0,0,1,.281-.1c1.472-.41,2.6.859,2.34,2.954" transform="translate(-103.408 -217.391)" fill="#003566"/>
          <path id="Path_13" data-name="Path 13" d="M213.91,225.119a5.273,5.273,0,0,1-2.855,4.08.362.362,0,0,1-.435-.559,5.46,5.46,0,0,0,1.283-2.976,3.242,3.242,0,0,0-1.429-3.225.363.363,0,0,1,.128-.67,2.847,2.847,0,0,1,3.309,3.351" transform="translate(-191.604 -202.02)" fill="#003566"/>
          <path id="Path_14" data-name="Path 14" d="M321.081,214.435a4.444,4.444,0,0,1-1.349,2.954.422.422,0,0,1-.671-.5,4.486,4.486,0,0,0,.537-1.958,3.742,3.742,0,0,0-2.68-3.79.221.221,0,0,1,.05-.432,3.64,3.64,0,0,1,4.113,3.721" transform="translate(-288.609 -191.974)" fill="#003566"/>
          <path id="Path_15" data-name="Path 15" d="M159.893,336.638a4.823,4.823,0,0,1-2.218,4.036.421.421,0,0,1-.586-.545,5.8,5.8,0,0,0,.527-2.239,4.056,4.056,0,0,0-2.031-3.994.42.42,0,0,1-.059-.738,2.847,2.847,0,0,1,1.2-.444c1.749-.216,3.257,1.518,3.17,3.924" transform="translate(-141.528 -303.125)" fill="#003566"/>
          <path id="Path_16" data-name="Path 16" d="M245.036,328.887a4.934,4.934,0,0,1-1.476,3.424.392.392,0,0,1-.641-.419,5.32,5.32,0,0,0,.34-1.776,4.361,4.361,0,0,0-3.383-4.556.392.392,0,0,1-.065-.754,3.895,3.895,0,0,1,5.224,4.081" transform="translate(-218.262 -295.715)" fill="#003566"/>
          <path id="Path_17" data-name="Path 17" d="M359.944,324.743a4.665,4.665,0,0,1-.564,2.223.376.376,0,0,1-.7-.236,4.98,4.98,0,0,0,.059-.768,4.828,4.828,0,0,0-4.9-4.892.315.315,0,0,1-.117-.61,4.725,4.725,0,0,1,1.564-.3,4.556,4.556,0,0,1,4.662,4.582" transform="translate(-322.094 -291.704)" fill="#003566"/>
          <path id="Path_18" data-name="Path 18" d="M817.883,356.1a.3.3,0,0,1-.187.159c-.547.159-.965,1.5-.9,3.205a.215.215,0,0,1-.427.049,8.8,8.8,0,0,1-.155-1.374c-.07-1.928.512-3.248,1.121-2.987a1.261,1.261,0,0,1,.555.7.3.3,0,0,1,0,.246" transform="translate(-743.66 -323.556)" fill="#003566"/>
          <path id="Path_19" data-name="Path 19" d="M822.813,404Z" transform="translate(-749.68 -368.093)" fill="#003566"/>
          <path id="Path_20" data-name="Path 20" d="M176.271,463.964a.42.42,0,0,1-.68-.4,5.3,5.3,0,0,0,.074-1.055c-.062-2.318-1.614-4.442-3.59-4.8a.6.6,0,0,1-.263-1.062,3.069,3.069,0,0,1,1.917-.659c2.045,0,3.907,2.056,3.975,4.546a4.2,4.2,0,0,1-1.433,3.427" transform="translate(-156.331 -415.461)" fill="#003566"/>
          <path id="Path_21" data-name="Path 21" d="M285.6,450.6a4.515,4.515,0,0,1-.73,2.541.421.421,0,0,1-.772-.252c0-.1.007-.2.005-.3a5.048,5.048,0,0,0-4.867-5.056,4.451,4.451,0,0,0-.649.046.421.421,0,0,1-.331-.74,4.2,4.2,0,0,1,2.715-.976A4.763,4.763,0,0,1,285.6,450.6" transform="translate(-253.386 -406.241)" fill="#003566"/>
          <path id="Path_22" data-name="Path 22" d="M406.527,452.381a.34.34,0,0,1-.658-.087,4.983,4.983,0,0,0-6.579-4.265.421.421,0,0,1-.42-.71,4.736,4.736,0,0,1,7.656,5.063" transform="translate(-363.293 -406.441)" fill="#003566"/>
          <path id="Path_23" data-name="Path 23" d="M527.146,450.333a.36.36,0,0,1-.7.126,4.453,4.453,0,0,0-4.178-2.92,4.632,4.632,0,0,0-2.68.873.361.361,0,0,1-.506-.5,4.622,4.622,0,0,1,3.768-2.042,4.319,4.319,0,0,1,4.293,4.463" transform="translate(-472.891 -406.241)" fill="#003566"/>
          <path id="Path_24" data-name="Path 24" d="M638.431,473.689a.3.3,0,0,1-.363-.117,3.334,3.334,0,0,0-2.841-1.627,3.926,3.926,0,0,0-3.013,1.609.34.34,0,0,1-.588-.325,4.163,4.163,0,0,1,3.674-2.948,3.473,3.473,0,0,1,3.314,3.074.3.3,0,0,1-.184.334" transform="translate(-575.469 -428.481)" fill="#003566"/>
          <path id="Path_25" data-name="Path 25" d="M729.917,435.467a.456.456,0,0,1-.535.074,1.8,1.8,0,0,0-.875-.221c-1.119,0-2.222,1.1-2.762,2.663a.26.26,0,0,1-.507-.094.278.278,0,0,1,0-.029c.086-2.3,1.506-4.2,2.951-4.2A2.06,2.06,0,0,1,730,434.934a.455.455,0,0,1-.086.533" transform="translate(-660.778 -395.116)" fill="#003566"/>
          <path id="Path_26" data-name="Path 26" d="M803.138,444.792a.446.446,0,0,1-.361.176h-.012c-.724,0-1.495,1.216-1.794,2.859a.3.3,0,0,1-.312.24.3.3,0,0,1-.282-.28,7.158,7.158,0,0,1-.007-.718c.078-2.06.987-3.749,1.825-3.748.449,0,.793.414,1.007,1.075a.437.437,0,0,1-.064.4" transform="translate(-729.227 -403.917)" fill="#003566"/>
          <path id="Path_27" data-name="Path 27" d="M227.044,572.733a.361.361,0,0,1-.584-.252,5.245,5.245,0,0,0-5.222-4.681.6.6,0,0,1-.55-.914,3.24,3.24,0,0,1,3.065-1.474,5.009,5.009,0,0,1,4.47,4.469,3.273,3.273,0,0,1-1.18,2.853" transform="translate(-200.992 -515.148)" fill="#003566"/>
          <path id="Path_28" data-name="Path 28" d="M337.13,575a3.165,3.165,0,0,1-.639,2.1.36.36,0,0,1-.639-.154,5.012,5.012,0,0,0-4.829-3.886,4.748,4.748,0,0,0-2.079.418.361.361,0,0,1-.478-.476,4.2,4.2,0,0,1,4-2.364A4.647,4.647,0,0,1,337.13,575" transform="translate(-299.242 -519.919)" fill="#003566"/>
          <path id="Path_29" data-name="Path 29" d="M457.429,581.9a4,4,0,0,1-.215,1.062.361.361,0,0,1-.679.006,4.374,4.374,0,0,0-4.3-2.754,5.159,5.159,0,0,0-2.995,1.037.36.36,0,0,1-.556-.411,4.815,4.815,0,0,1,4.423-3.049,4.006,4.006,0,0,1,4.317,4.108" transform="translate(-408.79 -526.433)" fill="#003566"/>
          <path id="Path_30" data-name="Path 30" d="M574.792,569.511a.261.261,0,0,1-.487.069,3.372,3.372,0,0,0-3.335-1.779,5.075,5.075,0,0,0-3.429,1.81.361.361,0,0,1-.627-.309,5.043,5.043,0,0,1,4.39-3.891,3.269,3.269,0,0,1,3.488,4.1" transform="translate(-516.52 -515.149)" fill="#003566"/>
          <path id="Path_31" data-name="Path 31" d="M678.123,558.655a.261.261,0,0,1-.175.236.258.258,0,0,1-.282-.077,2.175,2.175,0,0,0-2-.725,4.913,4.913,0,0,0-3.409,2.858.261.261,0,0,1-.5-.1,4.472,4.472,0,0,1,.023-.68c.237-2.165,2.015-4.2,3.767-4.411,1.635-.2,2.648,1.106,2.576,2.9" transform="translate(-612.047 -506.339)" fill="#003566"/>
          <path id="Path_32" data-name="Path 32" d="M765.44,545.29a.486.486,0,0,1-.426.107,1.176,1.176,0,0,0-.537.007c-1,.226-2.122,1.669-2.631,3.38a.261.261,0,0,1-.5-.022,4.336,4.336,0,0,1-.028-1.425c.255-2.015,1.571-3.935,2.724-4.191.895-.2,1.452.544,1.565,1.737a.482.482,0,0,1-.162.408" transform="translate(-693.606 -494.841)" fill="#003566"/>
          <path id="Path_33" data-name="Path 33" d="M290.331,675.107a.36.36,0,0,1-.277.027.364.364,0,0,1-.214-.18,5.426,5.426,0,0,0-4.34-2.687,4.661,4.661,0,0,0-1.451.112.362.362,0,0,1-.292-.054.358.358,0,0,1-.152-.253c-.206-1.724,1.379-3.025,3.583-2.866,2.314.162,4.35,1.884,4.462,3.639a2.329,2.329,0,0,1-1.319,2.263" transform="translate(-258.382 -609.713)" fill="#003566"/>
          <path id="Path_34" data-name="Path 34" d="M400.861,676.786a2.718,2.718,0,0,1-.824,1.749.361.361,0,0,1-.561-.062,4.667,4.667,0,0,0-3.979-1.936,5.293,5.293,0,0,0-2.511.609.36.36,0,0,1-.53-.283c0-.025,0-.051-.006-.076-.113-1.753,1.768-3.338,4.205-3.336s4.319,1.583,4.206,3.336" transform="translate(-357.565 -613.593)" fill="#003566"/>
          <path id="Path_35" data-name="Path 35" d="M509.249,698.344a.361.361,0,0,1-.578.042,3.739,3.739,0,0,0-3.174-1.114,5.7,5.7,0,0,0-3.225,1.319.36.36,0,0,1-.589-.219c-.3-1.912,1.887-3.984,4.443-4.162,2.9-.21,4.453,2.035,3.122,4.134" transform="translate(-457.067 -632.495)" fill="#003566"/>
          <path id="Path_36" data-name="Path 36" d="M614.952,656.714a.361.361,0,0,1-.548.148,2.738,2.738,0,0,0-2.12-.407,5.889,5.889,0,0,0-3.428,2.067.361.361,0,0,1-.625-.132,2.362,2.362,0,0,1-.034-1.056,5.424,5.424,0,0,1,4.238-3.87c2.226-.351,3.344,1.3,2.517,3.25" transform="translate(-554.1 -595.34)" fill="#003566"/>
          <path id="Path_37" data-name="Path 37" d="M704.838,651.639c-.021.09-.044.179-.071.268a.361.361,0,0,1-.453.241,1.846,1.846,0,0,0-1.062.028,5.977,5.977,0,0,0-3.068,2.669.36.36,0,0,1-.631-.023,2.277,2.277,0,0,1-.086-1.54,5.98,5.98,0,0,1,3.552-3.987c1.476-.414,2.2.688,1.82,2.346" transform="translate(-637.215 -591.504)" fill="#003566"/>
        </g>
      </g>
    </g>
  </g>
</svg>
