<svg xmlns="http://www.w3.org/2000/svg" xmlns:xlink="http://www.w3.org/1999/xlink" width="146" height="146" viewBox="0 0 146 146">
  <defs>
    <filter id="Ellipse_1" x="0" y="0" width="146" height="146" filterUnits="userSpaceOnUse">
      <feOffset dy="3" input="SourceAlpha"/>
      <feGaussianBlur stdDeviation="3" result="blur"/>
      <feFlood flood-color="#003566" flood-opacity="0.322"/>
      <feComposite operator="in" in2="blur"/>
      <feComposite in="SourceGraphic"/>
    </filter>
    <clipPath id="clip-path">
      <rect id="Rectangle_12" data-name="Rectangle 12" width="116.816" height="116.743" fill="none"/>
    </clipPath>
    <clipPath id="clip-path-2">
      <rect id="Rectangle_10" data-name="Rectangle 10" width="77.858" height="77.857" fill="none"/>
    </clipPath>
    <clipPath id="clip-path-3">
      <rect id="Rectangle_11" data-name="Rectangle 11" width="35.623" height="28.573" fill="#ffc300" stroke="#003566" stroke-width="0.5"/>
    </clipPath>
  </defs>
  <g id="player1_" data-name="player1`" transform="translate(-114.299 -314.299)">
    <g transform="matrix(1, 0, 0, 1, 114.3, 314.3)" filter="url(#Ellipse_1)">
      <g id="Ellipse_1-2" data-name="Ellipse 1" transform="translate(9 6)" fill="#fff" stroke="#00bbf9" stroke-width="3">
        <circle cx="64" cy="64" r="64" stroke="none"/>
        <circle cx="64" cy="64" r="62.5" fill="none"/>
      </g>
    </g>
    <g id="Group_9" data-name="Group 9" transform="translate(128.33 326.447)">
      <g id="Group_8" data-name="Group 8" clip-path="url(#clip-path)">
        <path id="Path_40" data-name="Path 40" d="M144.044,8.227c1.667,1.911,3.107,3.561,5.994,3.561s4.326-1.65,5.994-3.561C157.885,6.1,159.985,3.7,164.159,3.7s6.274,2.407,8.128,4.532c1.667,1.911,3.107,3.561,5.993,3.561s4.325-1.65,5.993-3.561a15.967,15.967,0,0,1,3.493-3.252,58.536,58.536,0,0,0-47.219,0,15.955,15.955,0,0,1,3.5,3.254" transform="translate(-105.746 -0.001)" fill="rgba(255,214,10,0.38)"/>
        <path id="Path_41" data-name="Path 41" d="M150.351,375.422c-3.9-.153-5.93-2.464-7.721-4.517-1.667-1.911-3.106-3.561-5.992-3.561s-4.325,1.65-5.993,3.561c-1.853,2.124-3.953,4.531-8.127,4.531s-6.275-2.407-8.128-4.531c-1.667-1.911-3.107-3.561-5.994-3.561s-4.326,1.65-5.993,3.561c-1.853,2.124-3.954,4.531-8.128,4.531s-6.275-2.407-8.128-4.531c-1.667-1.911-3.107-3.561-5.994-3.561s-4.326,1.65-5.994,3.561c-1.792,2.054-3.821,4.366-7.727,4.517a58.743,58.743,0,0,0,6.989,6.16,8.9,8.9,0,0,1,6.731-3c4.174,0,6.275,2.407,8.128,4.532,1.667,1.911,3.107,3.561,5.994,3.561s4.326-1.65,5.994-3.561c1.853-2.124,3.954-4.532,8.128-4.532s6.274,2.407,8.128,4.532c1.667,1.911,3.107,3.561,5.993,3.561s4.325-1.65,5.993-3.561c1.853-2.124,3.953-4.532,8.127-4.532a8.9,8.9,0,0,1,6.728,3,58.711,58.711,0,0,0,6.986-6.157" transform="translate(-49.984 -276.386)" fill="rgba(255,214,10,0.38)"/>
        <path id="Path_42" data-name="Path 42" d="M118.061,314.074c-1.853,2.124-3.954,4.531-8.128,4.531s-6.274-2.407-8.127-4.531c-1.667-1.911-3.107-3.561-5.992-3.561s-4.326,1.65-5.993,3.561c-1.853,2.124-3.953,4.531-8.127,4.531s-6.275-2.407-8.128-4.531c-1.667-1.911-3.107-3.561-5.993-3.561s-4.326,1.65-5.993,3.561c-1.853,2.124-3.954,4.531-8.128,4.531s-6.275-2.407-8.128-4.531c-1.667-1.911-3.107-3.561-5.994-3.561s-4.326,1.65-5.994,3.561c-1.853,2.124-3.954,4.531-8.128,4.531s-6.275-2.407-8.129-4.531c-1.443-1.654-2.718-3.11-4.905-3.473a58.3,58.3,0,0,0,10.379,18.654,5.841,5.841,0,0,0,2.655.59c2.886,0,4.326-1.65,5.994-3.561,1.853-2.124,3.954-4.531,8.128-4.531s6.275,2.407,8.128,4.531c1.667,1.911,3.107,3.561,5.994,3.561s4.326-1.65,5.994-3.561c1.853-2.124,3.954-4.531,8.128-4.531s6.274,2.407,8.128,4.531c1.667,1.911,3.107,3.561,5.993,3.561s4.326-1.65,5.993-3.561c1.853-2.124,3.953-4.531,8.127-4.531s6.274,2.407,8.127,4.531c1.667,1.911,3.106,3.561,5.992,3.561a5.839,5.839,0,0,0,2.647-.587A58.306,58.306,0,0,0,122.962,310.6c-2.185.363-3.459,1.819-4.9,3.472" transform="translate(-9.16 -233.627)" fill="rgba(255,214,10,0.38)"/>
        <path id="Path_43" data-name="Path 43" d="M165,424.176c-2.886,0-4.325,1.65-5.993,3.561-1.853,2.124-3.953,4.531-8.127,4.531s-6.275-2.407-8.128-4.531c-1.667-1.911-3.107-3.561-5.993-3.561s-4.326,1.65-5.993,3.561c-1.853,2.124-3.954,4.531-8.128,4.531s-6.275-2.407-8.128-4.531c-1.667-1.911-3.107-3.561-5.994-3.561a6,6,0,0,0-4.386,1.833,58.091,58.091,0,0,0,29.68,9.88,9.409,9.409,0,0,1,5.9,0,58.09,58.09,0,0,0,29.675-9.882A6,6,0,0,0,165,424.176" transform="translate(-78.349 -319.146)" fill="rgba(255,214,10,0.38)"/>
        <path id="Path_44" data-name="Path 44" d="M116.032,196.95a6.574,6.574,0,0,0-1.138-.1c-2.887,0-4.326,1.65-5.994,3.561-1.853,2.124-3.954,4.531-8.128,4.531s-6.274-2.407-8.126-4.531c-1.667-1.911-3.106-3.561-5.992-3.561s-4.326,1.65-5.993,3.561c-1.853,2.124-3.953,4.531-8.127,4.531s-6.275-2.407-8.128-4.531c-1.667-1.911-3.107-3.561-5.993-3.561s-4.326,1.65-5.994,3.561c-1.853,2.124-3.953,4.531-8.128,4.531s-6.275-2.407-8.128-4.531c-1.667-1.911-3.107-3.561-5.994-3.561s-4.326,1.65-5.994,3.561c-1.853,2.124-3.954,4.531-8.128,4.531s-6.275-2.407-8.129-4.531c-1.667-1.911-3.108-3.561-5.995-3.561a6.579,6.579,0,0,0-1.141.1A58.8,58.8,0,0,0,0,206.518c0,.59.011,1.177.029,1.763a9.44,9.44,0,0,1,1.9-.189c4.175,0,6.275,2.408,8.129,4.531,1.668,1.911,3.108,3.561,5.995,3.561s4.326-1.65,5.994-3.561C23.9,210.5,26,208.091,30.17,208.091s6.275,2.408,8.128,4.531c1.667,1.911,3.107,3.561,5.994,3.561s4.326-1.65,5.994-3.561c1.853-2.124,3.954-4.531,8.128-4.531s6.274,2.408,8.128,4.531c1.667,1.911,3.107,3.561,5.993,3.561s4.326-1.65,5.993-3.561c1.853-2.124,3.953-4.531,8.127-4.531s6.274,2.408,8.127,4.531c1.667,1.911,3.107,3.561,5.992,3.561s4.326-1.65,5.993-3.561c1.853-2.124,3.954-4.531,8.128-4.531a9.454,9.454,0,0,1,1.894.189c.017-.586.029-1.172.029-1.762a58.783,58.783,0,0,0-.784-9.568" transform="translate(0 -148.11)" fill="rgba(255,214,10,0.38)"/>
        <path id="Path_45" data-name="Path 45" d="M112.973,143.582c-1.853,2.124-3.954,4.531-8.128,4.531s-6.274-2.408-8.127-4.532c-1.667-1.911-3.107-3.561-5.992-3.561s-4.325,1.65-5.993,3.561c-1.853,2.124-3.953,4.532-8.127,4.532s-6.275-2.408-8.128-4.532c-1.667-1.911-3.107-3.561-5.993-3.561s-4.326,1.65-5.993,3.561c-1.853,2.124-3.954,4.532-8.128,4.532s-6.275-2.408-8.128-4.531c-1.667-1.911-3.107-3.561-5.994-3.561s-4.326,1.65-5.994,3.561c-1.853,2.124-3.954,4.531-8.128,4.531s-6.275-2.408-8.129-4.531a11.923,11.923,0,0,0-3.185-2.891,57.958,57.958,0,0,0-3.395,10.591c.192-.011.384-.021.585-.021,4.174,0,6.275,2.407,8.129,4.531,1.667,1.911,3.107,3.561,5.995,3.561s4.326-1.65,5.994-3.561c1.853-2.124,3.954-4.531,8.128-4.531s6.275,2.407,8.128,4.531c1.667,1.911,3.107,3.561,5.994,3.561s4.326-1.65,5.994-3.561c1.853-2.124,3.954-4.531,8.128-4.531s6.274,2.407,8.128,4.531c1.667,1.911,3.107,3.561,5.993,3.561s4.325-1.65,5.993-3.561c1.853-2.124,3.953-4.531,8.127-4.531s6.274,2.407,8.127,4.531c1.667,1.911,3.106,3.561,5.992,3.561s4.326-1.65,5.993-3.561c1.853-2.124,3.954-4.531,8.128-4.531.2,0,.391.01.582.021a57.944,57.944,0,0,0-3.395-10.589,11.931,11.931,0,0,0-3.181,2.89" transform="translate(-4.073 -105.35)" fill="rgba(255,214,10,0.38)"/>
        <path id="Path_46" data-name="Path 46" d="M10.611,269.453c1.667,1.911,3.107,3.561,5.995,3.561s4.326-1.65,5.994-3.561c1.853-2.124,3.954-4.531,8.128-4.531s6.275,2.407,8.128,4.531c1.667,1.911,3.107,3.561,5.994,3.561s4.326-1.65,5.994-3.561c1.853-2.124,3.954-4.531,8.128-4.531s6.274,2.407,8.128,4.532c1.667,1.91,3.107,3.561,5.993,3.561s4.326-1.65,5.993-3.561c1.853-2.124,3.953-4.532,8.127-4.532s6.274,2.407,8.127,4.532c1.667,1.911,3.107,3.561,5.992,3.561s4.326-1.65,5.993-3.561c1.822-2.089,3.888-4.446,7.926-4.524a58.228,58.228,0,0,0,1.941-11.01,6.207,6.207,0,0,0-1.739-.237c-2.886,0-4.326,1.65-5.994,3.561-1.853,2.124-3.954,4.531-8.128,4.531s-6.274-2.407-8.127-4.531c-1.667-1.911-3.107-3.561-5.992-3.561s-4.325,1.65-5.993,3.561c-1.853,2.124-3.953,4.531-8.127,4.531s-6.275-2.407-8.128-4.531c-1.667-1.911-3.107-3.561-5.994-3.561s-4.326,1.65-5.993,3.561c-1.853,2.124-3.954,4.531-8.128,4.531s-6.275-2.407-8.128-4.531c-1.667-1.911-3.107-3.561-5.994-3.561s-4.326,1.65-5.994,3.561c-1.853,2.124-3.954,4.531-8.128,4.531s-6.275-2.407-8.129-4.531c-1.667-1.911-3.108-3.561-5.995-3.561a6.209,6.209,0,0,0-1.742.237,58.219,58.219,0,0,0,1.941,11.009c4.04.077,6.107,2.435,7.929,4.524" transform="translate(-0.558 -190.869)" fill="rgba(255,214,10,0.38)"/>
        <path id="Path_47" data-name="Path 47" d="M28.054,98.961c1.667,1.911,3.108,3.561,5.995,3.561s4.326-1.65,5.994-3.561C41.9,96.837,44,94.429,48.17,94.429s6.275,2.407,8.128,4.531c1.667,1.911,3.107,3.561,5.994,3.561s4.326-1.65,5.994-3.561c1.853-2.124,3.954-4.531,8.128-4.531s6.274,2.407,8.128,4.531c1.667,1.911,3.107,3.561,5.993,3.561s4.326-1.65,5.993-3.561c1.853-2.124,3.953-4.531,8.127-4.531s6.274,2.407,8.127,4.531c1.667,1.911,3.107,3.561,5.992,3.561s4.326-1.65,5.993-3.561a14.2,14.2,0,0,1,4.127-3.613,58.351,58.351,0,0,0-3.816-6.646,8.7,8.7,0,0,1-6.3,2.581c-4.174,0-6.274-2.407-8.127-4.532-1.667-1.911-3.106-3.561-5.992-3.561s-4.325,1.65-5.993,3.561c-1.853,2.124-3.953,4.532-8.127,4.532s-6.275-2.407-8.128-4.532C80.739,84.84,79.3,83.19,76.413,83.19s-4.326,1.65-5.993,3.561c-1.853,2.124-3.954,4.532-8.128,4.532s-6.275-2.407-8.128-4.531C52.5,84.84,51.057,83.19,48.17,83.19s-4.326,1.65-5.994,3.561c-1.853,2.124-3.954,4.531-8.128,4.531A8.7,8.7,0,0,1,27.741,88.7a58.351,58.351,0,0,0-3.817,6.647,14.188,14.188,0,0,1,4.13,3.614" transform="translate(-18 -62.591)" fill="rgba(255,214,10,0.38)"/>
        <path id="Path_48" data-name="Path 48" d="M115.263,29.92c-1.853,2.124-3.953,4.532-8.127,4.532s-6.275-2.408-8.128-4.532c-1.667-1.911-3.107-3.561-5.994-3.561s-4.326,1.65-5.993,3.561c-1.853,2.124-3.954,4.532-8.128,4.532s-6.275-2.408-8.128-4.531c-1.421-1.629-2.681-3.065-4.809-3.454A58.674,58.674,0,0,0,45.989,43.591a6.164,6.164,0,0,0,4.661,2.1c2.887,0,4.326-1.65,5.994-3.561C58.5,40.006,60.6,37.6,64.772,37.6s6.275,2.407,8.128,4.531c1.667,1.911,3.107,3.561,5.994,3.561s4.326-1.65,5.994-3.561c1.853-2.124,3.954-4.531,8.128-4.531s6.274,2.407,8.128,4.531c1.667,1.911,3.107,3.561,5.993,3.561s4.326-1.65,5.993-3.561c1.853-2.124,3.953-4.531,8.127-4.531s6.274,2.407,8.127,4.531c1.667,1.911,3.107,3.561,5.992,3.561a6.16,6.16,0,0,0,4.658-2.1,58.664,58.664,0,0,0-19.967-17.125c-2.124.391-3.382,1.825-4.8,3.453" transform="translate(-34.602 -19.832)" fill="rgba(255,214,10,0.38)"/>
      </g>
    </g>
    <g id="Group_2" data-name="Group 2" transform="translate(148.37 347.549)">
      <g id="Group_1" data-name="Group 1" clip-path="url(#clip-path-2)">
        <path id="Path_1" data-name="Path 1" d="M38.929,0A38.944,38.944,0,0,0,1.97,26.672l0,.011q-.082.245-.159.49a.087.087,0,0,0,0,.014q-.4,1.26-.713,2.556s0,.005,0,.009q-.059.243-.115.488c-.006.029-.012.058-.02.086-.031.138-.061.276-.091.415-.009.041-.017.081-.026.122-.027.127-.053.256-.079.384-.009.046-.018.093-.028.139-.024.124-.047.248-.07.372-.01.048-.019.1-.028.146-.022.124-.045.248-.066.372l-.024.143c-.022.13-.044.26-.064.391-.006.041-.013.083-.02.125-.023.151-.046.3-.068.456,0,.02-.005.04-.009.06Q.309,33.974.249,34.5c-.005.046-.01.093-.015.139l-.04.378c-.005.061-.012.123-.017.184-.011.112-.021.224-.031.336-.005.068-.011.135-.017.2-.008.107-.017.214-.024.321-.005.07-.011.142-.015.213-.007.1-.013.208-.02.313,0,.072-.009.145-.012.217-.005.1-.011.209-.015.315,0,.071-.007.143-.01.215,0,.109-.008.217-.012.325,0,.069,0,.137-.006.2,0,.119-.005.238-.008.357,0,.058,0,.116,0,.174q0,.266,0,.532A38.929,38.929,0,0,0,38.929,77.857c.182,0,.363,0,.543,0l.177,0,.367-.008.207-.007c.112,0,.225-.007.337-.012l.215-.009.332-.017.21-.012.346-.022.192-.013.4-.033.13-.011q.27-.023.538-.051L43,77.646l.454-.05.166-.02.366-.045.186-.025.347-.048.188-.028.352-.053.175-.029.384-.064.137-.024q.531-.094,1.057-.2l.063-.014.454-.1.128-.029c.13-.029.26-.059.39-.089l.143-.034.381-.093.137-.035.4-.1.11-.029c.159-.043.318-.086.476-.13l.028-.008q.528-.148,1.05-.312l.015-.005q.245-.076.487-.157l.071-.023.436-.147.08-.028.436-.153.065-.024q.241-.087.48-.176l.011,0q1.022-.385,2.015-.825l.006,0c.163-.072.326-.146.487-.22l.009,0A38.934,38.934,0,0,0,38.929,0M64.441,65.5a4.112,4.112,0,0,1-2.128-.022c-1.892-.623-5.052,1.981-5.576,2.969a.823.823,0,0,1-1.4.115c-1.622-1.622-5.647-.193-6.538,1.3a1.1,1.1,0,0,1-1.833.045c-1.333-2.135-5.49-1.161-6.861-.02a1.608,1.608,0,0,1-2.385-.339c-1.107-1.776-4.188-2.385-6.162-1.562-.646.27-2.339.452-2.97-.318a5.636,5.636,0,0,0-3.474-1.753c-1.574-.282-1.946-.982-1.825-2.072a4.911,4.911,0,0,0-3.98-4.936,2.449,2.449,0,0,1-1.941-2.963c.813-2.492-1.97-5.559-3.972-5.725-1.074-.089-2.028-1.939-1.4-3.386.988-2.293-.806-5.985-2.384-6.556A2.3,2.3,0,0,1,8.5,36.887c1.241-2.031,1.255-4.851-.045-6.151C7.331,29.607,6.794,29.05,7.233,27.7a5.221,5.221,0,0,0,.37-3.546,4.555,4.555,0,0,1,.911-3.22c4.625-4.908,1.769-4.356,3.183-6.738.039-.066.076-.133.113-.2A36.837,36.837,0,1,1,64.441,65.5" transform="translate(0 0)" fill="#003566"/>
        <path id="Path_2" data-name="Path 2" d="M111.313,23.46A36.74,36.74,0,0,0,84.194,35.367c-.037.066-.074.133-.113.2-1.414,2.382,1.442,1.829-3.183,6.738a4.555,4.555,0,0,0-.911,3.22,5.221,5.221,0,0,1-.37,3.546c-.439,1.35.1,1.908,1.226,3.036,1.3,1.3,1.287,4.121.045,6.151A2.3,2.3,0,0,0,82,61.649c1.578.571,3.372,4.263,2.384,6.556-.625,1.447.33,3.3,1.4,3.386,2,.166,4.785,3.232,3.972,5.725A2.449,2.449,0,0,0,91.7,80.278a4.911,4.911,0,0,1,3.98,4.936C95.558,86.3,95.93,87,97.5,87.287a5.636,5.636,0,0,1,3.474,1.753c.631.77,2.324.588,2.97.318,1.974-.823,5.055-.214,6.162,1.562a1.608,1.608,0,0,0,2.385.339c1.37-1.14,5.528-2.114,6.861.02a1.1,1.1,0,0,0,1.833-.045c.891-1.5,4.916-2.924,6.538-1.3a.823.823,0,0,0,1.4-.115c.524-.988,3.684-3.592,5.576-2.969a4.112,4.112,0,0,0,2.128.022,36.837,36.837,0,0,0-25.512-63.41M137,64.218c.086-2.309,1.51-4.21,2.958-4.21a2.066,2.066,0,0,1,1.818,1.277.455.455,0,0,1-.623.609,1.806,1.806,0,0,0-.878-.222c-1.122,0-2.227,1.1-2.768,2.669a.261.261,0,0,1-.508-.094c0-.01,0-.019,0-.029m-8.324,2.008a4.173,4.173,0,0,1,3.683-2.955,3.482,3.482,0,0,1,3.322,3.082.3.3,0,0,1-.548.217,3.342,3.342,0,0,0-2.848-1.63,3.935,3.935,0,0,0-3.02,1.613.341.341,0,0,1-.589-.326m-9.987-3.084a4.632,4.632,0,0,1,3.777-2.047,4.329,4.329,0,0,1,4.3,4.474.361.361,0,0,1-.7.127,4.464,4.464,0,0,0-4.189-2.928,4.642,4.642,0,0,0-2.686.875.362.362,0,0,1-.507-.5m-4.24-37.505a4.345,4.345,0,0,0,3.036-.7.452.452,0,0,1,.6-.07.849.849,0,0,1,.308.344c.262.61-1.061,1.193-2.994,1.123a8.854,8.854,0,0,1-1-.091.3.3,0,0,1,.054-.6M98.3,62.769a4.465,4.465,0,0,0-.65.046.422.422,0,0,1-.331-.741,4.208,4.208,0,0,1,2.722-.978,4.775,4.775,0,0,1,4.64,4.746,4.525,4.525,0,0,1-.732,2.547.422.422,0,0,1-.774-.252c0-.1.007-.2.005-.3A5.06,5.06,0,0,0,98.3,62.769M94.051,51.287a.393.393,0,0,1-.065-.756,3.9,3.9,0,0,1,5.237,4.091,4.946,4.946,0,0,1-1.48,3.432.393.393,0,0,1-.642-.42,5.333,5.333,0,0,0,.341-1.78,4.371,4.371,0,0,0-3.391-4.567m10.152-.479a.316.316,0,0,1-.117-.611,4.736,4.736,0,0,1,1.567-.3,4.568,4.568,0,0,1,4.673,4.593,4.677,4.677,0,0,1-.565,2.228.377.377,0,0,1-.7-.236,4.985,4.985,0,0,0,.06-.77,4.839,4.839,0,0,0-4.915-4.9m4.513-17.527a.349.349,0,0,1,.474-.5,2.568,2.568,0,0,1,1.242,2.168,3.456,3.456,0,0,1-1.98,2.84.349.349,0,0,1-.4-.563,3.293,3.293,0,0,0,1.18-2.382,2.6,2.6,0,0,0-.512-1.565m-.666,29.066a4.748,4.748,0,0,1,7.675,5.075.341.341,0,0,1-.659-.087,5,5,0,0,0-6.6-4.276.422.422,0,0,1-.421-.712m3.181-31.871a3.109,3.109,0,0,0,.413-.058c1.511-.375,2.511-1.276,2.4-2.2,0-.029-.008-.057-.012-.085a.3.3,0,0,1,.507-.272,1.46,1.46,0,0,1,.473.884c.134,1.139-1.548,2.236-3.762,2.233a.251.251,0,0,1-.022-.5m-6.295-4.621a.252.252,0,0,1,.255-.214q.261.007.539,0c1.794-.062,3.3-.627,3.623-1.184a.25.25,0,0,1,.274-.118c.609.141.993.369.992.678,0,.579-1.58,1.25-3.512,1.316a6.668,6.668,0,0,1-1.989-.2.251.251,0,0,1-.181-.279M101.4,30.806c1.729-.451,3.091-1.531,3.206-2.53a1.187,1.187,0,0,0-.073-.584.251.251,0,0,1,.314-.331c.793.266,1.27.764,1.189,1.439-.133,1.14-2.017,2.382-4.144,2.554-.142.012-.281.019-.415.02a.289.289,0,0,1-.077-.568m-.8,9.544a.222.222,0,0,1,.2-.2,3.649,3.649,0,0,1,4.123,3.731,4.455,4.455,0,0,1-1.353,2.962.423.423,0,0,1-.673-.5,4.5,4.5,0,0,0,.538-1.963,3.751,3.751,0,0,0-2.686-3.8.221.221,0,0,1-.154-.237m-2.121-6.622a.475.475,0,0,1,.561-.7,2.132,2.132,0,0,1,1.484,2.376,4.93,4.93,0,0,1-3.5,3.58.349.349,0,0,1-.3-.62,4.655,4.655,0,0,0,2.085-3.035,2.341,2.341,0,0,0-.331-1.6m-5.529-2.16a5.048,5.048,0,0,0,2.579-2.491,1.426,1.426,0,0,0,.068-.486.529.529,0,0,1,.6-.546c.945.138,1.464.666,1.2,1.5-.363,1.18-2.28,2.575-4.155,2.909a.475.475,0,0,1-.3-.891m1.786,12.957a5.286,5.286,0,0,1-2.862,4.09.363.363,0,0,1-.437-.56,5.473,5.473,0,0,0,1.286-2.983A3.25,3.25,0,0,0,91.3,41.838a.363.363,0,0,1,.128-.672,2.854,2.854,0,0,1,3.317,3.359m-7.648-4.6a6.026,6.026,0,0,0,2.323-3.344,2.311,2.311,0,0,0-.2-1.7.431.431,0,0,1,.326-.653,1.769,1.769,0,0,1,2.045,2.344,5.734,5.734,0,0,1-3.955,3.954c-.1.021-.192.037-.283.047a.363.363,0,0,1-.259-.653M82.987,50a.422.422,0,0,1-.407-.669,6.487,6.487,0,0,0,1.238-3.039,3.52,3.52,0,0,0-.47-2.479.67.67,0,0,1,.291-1.009,2.562,2.562,0,0,1,.282-.1c1.475-.411,2.609.861,2.346,2.962S84.445,49.757,82.987,50m3.488,2.218a.421.421,0,0,1-.059-.74,2.855,2.855,0,0,1,1.2-.445c1.753-.216,3.265,1.522,3.178,3.934A4.835,4.835,0,0,1,88.57,59.01a.422.422,0,0,1-.587-.546,5.816,5.816,0,0,0,.528-2.244,4.066,4.066,0,0,0-2.036-4m5.215,17.376a5.314,5.314,0,0,0,.074-1.058c-.062-2.324-1.618-4.452-3.6-4.81a.6.6,0,0,1-.264-1.065A3.076,3.076,0,0,1,89.824,62c2.05,0,3.917,2.061,3.984,4.557a4.21,4.21,0,0,1-1.436,3.436.421.421,0,0,1-.682-.4m.99,4.557a.6.6,0,0,1-.552-.916A3.248,3.248,0,0,1,95.2,71.755a5.021,5.021,0,0,1,4.481,4.48,3.281,3.281,0,0,1-1.182,2.86.362.362,0,0,1-.585-.253,5.258,5.258,0,0,0-5.234-4.693m11.731,12.774a.36.36,0,0,1-.278.027.365.365,0,0,1-.215-.18,5.439,5.439,0,0,0-4.351-2.693,4.674,4.674,0,0,0-1.454.112.361.361,0,0,1-.445-.308c-.207-1.729,1.382-3.033,3.592-2.873,2.319.162,4.36,1.889,4.473,3.648a2.334,2.334,0,0,1-1.322,2.268m-.169-12.28a4.76,4.76,0,0,0-2.084.419.362.362,0,0,1-.479-.478,4.208,4.208,0,0,1,4.011-2.37,4.658,4.658,0,0,1,4.674,4.373,3.173,3.173,0,0,1-.641,2.105.361.361,0,0,1-.641-.154,5.025,5.025,0,0,0-4.841-3.9m11.544,10.074a2.725,2.725,0,0,1-.826,1.753.362.362,0,0,1-.562-.062,4.679,4.679,0,0,0-3.989-1.941,5.3,5.3,0,0,0-2.517.61.361.361,0,0,1-.531-.284c0-.025,0-.051-.006-.077-.113-1.757,1.772-3.347,4.215-3.344s4.329,1.587,4.216,3.344m.153-9.438a5.173,5.173,0,0,0-3,1.04.361.361,0,0,1-.557-.412,4.827,4.827,0,0,1,4.434-3.056,3.906,3.906,0,0,1,4.112,5.183.362.362,0,0,1-.681.006,4.385,4.385,0,0,0-4.306-2.761m8.753,12.1a.362.362,0,0,1-.579.042,3.747,3.747,0,0,0-3.182-1.116,5.713,5.713,0,0,0-3.232,1.322.361.361,0,0,1-.591-.219c-.3-1.917,1.892-3.993,4.454-4.172,2.909-.21,4.464,2.04,3.13,4.144M123.53,75.966a.362.362,0,0,1-.628-.31,5.055,5.055,0,0,1,4.4-3.9,3.276,3.276,0,0,1,3.5,4.11.261.261,0,0,1-.488.07,3.38,3.38,0,0,0-3.343-1.783,5.088,5.088,0,0,0-3.437,1.814m9.854,6.928a.362.362,0,0,1-.55.148,2.746,2.746,0,0,0-2.125-.408,5.9,5.9,0,0,0-3.437,2.072.362.362,0,0,1-.626-.133,2.368,2.368,0,0,1-.034-1.059,5.437,5.437,0,0,1,4.248-3.879c2.231-.352,3.352,1.3,2.523,3.258m-.648-6.783a.262.262,0,0,1-.5-.1,4.45,4.45,0,0,1,.023-.682c.238-2.17,2.02-4.206,3.776-4.422,1.639-.2,2.654,1.108,2.582,2.907a.262.262,0,0,1-.176.236.259.259,0,0,1-.283-.077,2.18,2.18,0,0,0-2.008-.727,4.925,4.925,0,0,0-3.418,2.865m7.435,5.541c-.021.09-.045.179-.071.268a.362.362,0,0,1-.454.241,1.851,1.851,0,0,0-1.065.028,5.992,5.992,0,0,0-3.076,2.676.36.36,0,0,1-.633-.023,2.283,2.283,0,0,1-.086-1.544,6,6,0,0,1,3.56-4c1.48-.415,2.21.69,1.825,2.351m4.221-9.709a.486.486,0,0,1-.427.107,1.184,1.184,0,0,0-.538.007c-1.006.226-2.128,1.673-2.637,3.388a.261.261,0,0,1-.506-.022,4.347,4.347,0,0,1-.028-1.428c.256-2.02,1.575-3.945,2.731-4.2.9-.2,1.456.545,1.568,1.741a.482.482,0,0,1-.162.409m2.082-9.6a.446.446,0,0,1-.362.176H146.1c-.726,0-1.5,1.219-1.8,2.865a.3.3,0,0,1-.313.241.3.3,0,0,1-.282-.281,7.1,7.1,0,0,1-.007-.72c.078-2.065.99-3.758,1.829-3.757.45,0,.795.415,1.01,1.078a.437.437,0,0,1-.064.4m.126-8.192c-.548.159-.968,1.5-.906,3.213a.216.216,0,0,1-.428.049,8.8,8.8,0,0,1-.155-1.377c-.07-1.933.513-3.256,1.124-2.994a1.264,1.264,0,0,1,.557.7.3.3,0,0,1-.192.406" transform="translate(-72.384 -21.37)" fill="#fff"/>
        <path id="Path_3" data-name="Path 3" d="M370.993,33.9c0,.579-1.58,1.25-3.512,1.316a6.669,6.669,0,0,1-1.989-.2.251.251,0,0,1,.074-.493q.26.007.539,0c1.794-.062,3.3-.627,3.623-1.184a.25.25,0,0,1,.273-.118c.609.141.993.369.992.678" transform="translate(-332.76 -30.256)" fill="#003566"/>
        <path id="Path_4" data-name="Path 4" d="M469.9,39.84a8.851,8.851,0,0,1-1-.091.3.3,0,0,1,.054-.6,4.345,4.345,0,0,0,3.036-.7.452.452,0,0,1,.6-.07.849.849,0,0,1,.308.344c.262.61-1.061,1.193-2.994,1.123" transform="translate(-426.882 -34.88)" fill="#003566"/>
        <path id="Path_5" data-name="Path 5" d="M232.7,76.377c-.363,1.18-2.28,2.575-4.155,2.909a.475.475,0,0,1-.3-.891,5.048,5.048,0,0,0,2.579-2.491,1.428,1.428,0,0,0,.068-.486.529.529,0,0,1,.6-.546c.945.138,1.464.666,1.2,1.5" transform="translate(-207.671 -68.196)" fill="#003566"/>
        <path id="Path_6" data-name="Path 6" d="M328.142,68.554c-.133,1.14-2.017,2.382-4.144,2.554-.142.012-.281.019-.415.021a.289.289,0,0,1-.077-.568c1.729-.451,3.091-1.531,3.206-2.53a1.187,1.187,0,0,0-.073-.584.251.251,0,0,1,.314-.331c.793.266,1.27.764,1.189,1.439" transform="translate(-294.486 -61.123)" fill="#003566"/>
        <path id="Path_7" data-name="Path 7" d="M433.669,75.1a.251.251,0,0,1-.022-.5,3.108,3.108,0,0,0,.413-.058c1.511-.375,2.511-1.276,2.4-2.2,0-.029-.008-.057-.012-.085a.3.3,0,0,1,.507-.272,1.46,1.46,0,0,1,.473.884c.134,1.139-1.548,2.236-3.762,2.233" transform="translate(-394.801 -65.492)" fill="#003566"/>
        <path id="Path_8" data-name="Path 8" d="M436.242,107.824Z" transform="translate(-397.374 -98.217)" fill="#003566"/>
        <path id="Path_9" data-name="Path 9" d="M168.119,146.513a5.733,5.733,0,0,1-3.955,3.954c-.1.021-.192.037-.283.047a.363.363,0,0,1-.259-.653,6.026,6.026,0,0,0,2.323-3.344,2.311,2.311,0,0,0-.2-1.7.431.431,0,0,1,.326-.653,1.769,1.769,0,0,1,2.045,2.344" transform="translate(-148.908 -131.31)" fill="#003566"/>
        <path id="Path_10" data-name="Path 10" d="M275.552,132.884a4.93,4.93,0,0,1-3.5,3.58.349.349,0,0,1-.3-.62,4.655,4.655,0,0,0,2.085-3.035,2.342,2.342,0,0,0-.331-1.6.475.475,0,0,1,.561-.7,2.132,2.132,0,0,1,1.484,2.376" transform="translate(-247.403 -118.853)" fill="#003566"/>
        <path id="Path_11" data-name="Path 11" d="M401.492,129.684a3.456,3.456,0,0,1-1.98,2.84.349.349,0,0,1-.4-.563,3.293,3.293,0,0,0,1.18-2.382,2.6,2.6,0,0,0-.512-1.565.349.349,0,0,1,.474-.5,2.568,2.568,0,0,1,1.242,2.168" transform="translate(-363.444 -116.102)" fill="#003566"/>
        <path id="Path_12" data-name="Path 12" d="M117.268,241.636c-.258,2.1-1.823,4.09-3.281,4.331a.422.422,0,0,1-.407-.669,6.487,6.487,0,0,0,1.238-3.039,3.519,3.519,0,0,0-.47-2.479.67.67,0,0,1,.291-1.009,2.564,2.564,0,0,1,.282-.1c1.475-.411,2.609.861,2.346,2.962" transform="translate(-103.384 -217.339)" fill="#003566"/>
        <path id="Path_13" data-name="Path 13" d="M213.919,225.128a5.286,5.286,0,0,1-2.862,4.09.363.363,0,0,1-.436-.56,5.473,5.473,0,0,0,1.286-2.983,3.25,3.25,0,0,0-1.433-3.233.363.363,0,0,1,.128-.672,2.854,2.854,0,0,1,3.317,3.359" transform="translate(-191.558 -201.972)" fill="#003566"/>
        <path id="Path_14" data-name="Path 14" d="M321.092,214.444a4.455,4.455,0,0,1-1.353,2.962.423.423,0,0,1-.673-.5,4.5,4.5,0,0,0,.538-1.963,3.752,3.752,0,0,0-2.686-3.8.222.222,0,0,1,.05-.433,3.649,3.649,0,0,1,4.123,3.731" transform="translate(-288.54 -191.929)" fill="#003566"/>
        <path id="Path_15" data-name="Path 15" d="M159.9,336.648a4.835,4.835,0,0,1-2.223,4.046.422.422,0,0,1-.587-.546,5.816,5.816,0,0,0,.528-2.244,4.066,4.066,0,0,0-2.036-4,.421.421,0,0,1-.059-.739,2.855,2.855,0,0,1,1.2-.445c1.753-.217,3.265,1.522,3.178,3.934" transform="translate(-141.495 -303.053)" fill="#003566"/>
        <path id="Path_16" data-name="Path 16" d="M245.049,328.9a4.946,4.946,0,0,1-1.48,3.432.393.393,0,0,1-.642-.42,5.334,5.334,0,0,0,.341-1.78,4.371,4.371,0,0,0-3.391-4.567.393.393,0,0,1-.065-.756,3.9,3.9,0,0,1,5.237,4.091" transform="translate(-218.21 -295.645)" fill="#003566"/>
        <path id="Path_17" data-name="Path 17" d="M359.959,324.754a4.676,4.676,0,0,1-.565,2.228.377.377,0,0,1-.7-.236,4.988,4.988,0,0,0,.06-.77,4.839,4.839,0,0,0-4.915-4.9.316.316,0,0,1-.117-.611,4.74,4.74,0,0,1,1.567-.3,4.568,4.568,0,0,1,4.673,4.593" transform="translate(-322.017 -291.634)" fill="#003566"/>
        <path id="Path_18" data-name="Path 18" d="M817.887,356.1a.3.3,0,0,1-.187.159c-.548.159-.967,1.5-.906,3.213a.216.216,0,0,1-.428.049,8.823,8.823,0,0,1-.155-1.377c-.07-1.933.513-3.256,1.123-2.994a1.264,1.264,0,0,1,.557.7.3.3,0,0,1,0,.247" transform="translate(-743.483 -323.479)" fill="#003566"/>
        <path id="Path_19" data-name="Path 19" d="M822.813,404Z" transform="translate(-749.502 -368.005)" fill="#003566"/>
        <path id="Path_20" data-name="Path 20" d="M176.282,463.983a.421.421,0,0,1-.682-.4,5.306,5.306,0,0,0,.074-1.057c-.062-2.324-1.618-4.452-3.6-4.81a.6.6,0,0,1-.264-1.065,3.076,3.076,0,0,1,1.922-.661c2.05,0,3.917,2.061,3.984,4.557a4.21,4.21,0,0,1-1.436,3.436" transform="translate(-156.294 -415.362)" fill="#003566"/>
        <path id="Path_21" data-name="Path 21" d="M285.618,450.616a4.525,4.525,0,0,1-.732,2.547.422.422,0,0,1-.774-.252c0-.1.007-.2.005-.3a5.06,5.06,0,0,0-4.879-5.068,4.455,4.455,0,0,0-.65.046.422.422,0,0,1-.331-.741,4.209,4.209,0,0,1,2.722-.978,4.775,4.775,0,0,1,4.64,4.746" transform="translate(-253.326 -406.144)" fill="#003566"/>
        <path id="Path_22" data-name="Path 22" d="M406.546,452.4a.341.341,0,0,1-.659-.087,5,5,0,0,0-6.6-4.276.422.422,0,0,1-.421-.712,4.748,4.748,0,0,1,7.675,5.075" transform="translate(-363.206 -406.344)" fill="#003566"/>
        <path id="Path_23" data-name="Path 23" d="M527.166,450.344a.361.361,0,0,1-.7.126,4.463,4.463,0,0,0-4.188-2.928,4.643,4.643,0,0,0-2.686.875.362.362,0,0,1-.507-.5,4.633,4.633,0,0,1,3.777-2.047,4.329,4.329,0,0,1,4.3,4.474" transform="translate(-472.778 -406.144)" fill="#003566"/>
        <path id="Path_24" data-name="Path 24" d="M638.447,473.7a.3.3,0,0,1-.364-.118,3.342,3.342,0,0,0-2.848-1.63,3.935,3.935,0,0,0-3.02,1.613.341.341,0,0,1-.589-.326,4.173,4.173,0,0,1,3.683-2.955,3.481,3.481,0,0,1,3.322,3.082.3.3,0,0,1-.184.335" transform="translate(-575.332 -428.379)" fill="#003566"/>
        <path id="Path_25" data-name="Path 25" d="M729.928,435.471a.457.457,0,0,1-.536.074,1.806,1.806,0,0,0-.878-.222c-1.122,0-2.227,1.1-2.768,2.669a.261.261,0,0,1-.508-.094c0-.01,0-.019,0-.029.086-2.309,1.51-4.21,2.958-4.21a2.066,2.066,0,0,1,1.818,1.277.456.456,0,0,1-.086.535" transform="translate(-660.621 -395.022)" fill="#003566"/>
        <path id="Path_26" data-name="Path 26" d="M803.145,444.8a.446.446,0,0,1-.362.176h-.012c-.726,0-1.5,1.219-1.8,2.865a.3.3,0,0,1-.313.241.3.3,0,0,1-.283-.281,7.123,7.123,0,0,1-.007-.72c.078-2.065.99-3.758,1.829-3.757.45,0,.795.415,1.009,1.078a.437.437,0,0,1-.064.4" transform="translate(-729.053 -403.821)" fill="#003566"/>
        <path id="Path_27" data-name="Path 27" d="M227.06,572.751a.362.362,0,0,1-.585-.253,5.258,5.258,0,0,0-5.235-4.693.6.6,0,0,1-.551-.916,3.248,3.248,0,0,1,3.073-1.478,5.021,5.021,0,0,1,4.481,4.48,3.281,3.281,0,0,1-1.182,2.86" transform="translate(-200.944 -515.026)" fill="#003566"/>
        <path id="Path_28" data-name="Path 28" d="M337.151,575.012a3.172,3.172,0,0,1-.641,2.105.361.361,0,0,1-.641-.154,5.025,5.025,0,0,0-4.841-3.9,4.758,4.758,0,0,0-2.084.419.362.362,0,0,1-.479-.478,4.208,4.208,0,0,1,4.011-2.37,4.658,4.658,0,0,1,4.674,4.373" transform="translate(-299.171 -519.795)" fill="#003566"/>
        <path id="Path_29" data-name="Path 29" d="M457.451,581.907a4.006,4.006,0,0,1-.216,1.065.362.362,0,0,1-.681.006,4.385,4.385,0,0,0-4.306-2.761,5.172,5.172,0,0,0-3,1.04.361.361,0,0,1-.557-.412,4.827,4.827,0,0,1,4.434-3.056,4.016,4.016,0,0,1,4.327,4.118" transform="translate(-408.692 -526.308)" fill="#003566"/>
        <path id="Path_30" data-name="Path 30" d="M574.811,569.521a.261.261,0,0,1-.488.069,3.38,3.38,0,0,0-3.343-1.783,5.088,5.088,0,0,0-3.437,1.814.362.362,0,0,1-.628-.31,5.054,5.054,0,0,1,4.4-3.9,3.276,3.276,0,0,1,3.5,4.11" transform="translate(-516.396 -515.026)" fill="#003566"/>
        <path id="Path_31" data-name="Path 31" d="M678.138,558.662a.262.262,0,0,1-.176.236.258.258,0,0,1-.283-.077,2.18,2.18,0,0,0-2.008-.727,4.925,4.925,0,0,0-3.418,2.865.262.262,0,0,1-.5-.1,4.477,4.477,0,0,1,.023-.682c.238-2.17,2.02-4.206,3.776-4.422,1.639-.2,2.654,1.108,2.582,2.907" transform="translate(-611.901 -506.219)" fill="#003566"/>
        <path id="Path_32" data-name="Path 32" d="M765.45,545.3a.487.487,0,0,1-.427.107,1.182,1.182,0,0,0-.538.007c-1.006.226-2.128,1.673-2.637,3.388a.261.261,0,0,1-.506-.022,4.349,4.349,0,0,1-.029-1.428c.256-2.02,1.575-3.945,2.731-4.2.9-.2,1.456.545,1.568,1.741a.483.483,0,0,1-.162.409" transform="translate(-693.441 -494.723)" fill="#003566"/>
        <path id="Path_33" data-name="Path 33" d="M290.347,675.121a.362.362,0,0,1-.278.027.366.366,0,0,1-.215-.18,5.439,5.439,0,0,0-4.351-2.693,4.67,4.67,0,0,0-1.454.112.363.363,0,0,1-.292-.054.359.359,0,0,1-.152-.254c-.207-1.729,1.382-3.033,3.591-2.873,2.319.162,4.361,1.889,4.473,3.648a2.334,2.334,0,0,1-1.322,2.269" transform="translate(-258.32 -609.568)" fill="#003566"/>
        <path id="Path_34" data-name="Path 34" d="M400.882,676.794a2.725,2.725,0,0,1-.826,1.754.361.361,0,0,1-.562-.062,4.679,4.679,0,0,0-3.989-1.941,5.3,5.3,0,0,0-2.517.61.361.361,0,0,1-.531-.284c0-.025,0-.051-.006-.077-.113-1.757,1.772-3.346,4.215-3.344s4.329,1.587,4.216,3.344" transform="translate(-357.479 -613.447)" fill="#003566"/>
        <path id="Path_35" data-name="Path 35" d="M509.267,698.354a.362.362,0,0,1-.579.042,3.748,3.748,0,0,0-3.182-1.116,5.713,5.713,0,0,0-3.232,1.322.361.361,0,0,1-.591-.219c-.3-1.916,1.892-3.993,4.454-4.172,2.909-.21,4.464,2.04,3.13,4.144" transform="translate(-456.958 -632.345)" fill="#003566"/>
        <path id="Path_36" data-name="Path 36" d="M614.968,656.722a.362.362,0,0,1-.55.148,2.744,2.744,0,0,0-2.125-.408,5.9,5.9,0,0,0-3.437,2.072.362.362,0,0,1-.626-.133,2.368,2.368,0,0,1-.034-1.059,5.438,5.438,0,0,1,4.248-3.879c2.231-.352,3.352,1.3,2.523,3.258" transform="translate(-553.968 -595.198)" fill="#003566"/>
        <path id="Path_37" data-name="Path 37" d="M704.851,651.645c-.02.09-.044.179-.071.268a.362.362,0,0,1-.454.242,1.851,1.851,0,0,0-1.065.028,5.992,5.992,0,0,0-3.076,2.676.36.36,0,0,1-.633-.023,2.282,2.282,0,0,1-.086-1.544,6,6,0,0,1,3.56-4c1.48-.415,2.21.69,1.825,2.351" transform="translate(-637.063 -591.363)" fill="#003566"/>
      </g>
    </g>
    <g id="Group_7" data-name="Group 7" transform="translate(187.85 326.447) rotate(17)">
      <g id="Group_6" data-name="Group 6" clip-path="url(#clip-path-3)">
        <path id="Path_38" data-name="Path 38" d="M.816,2.82H27.682A.824.824,0,0,0,28.5,2V0H0V2a.779.779,0,0,0,.816.816" transform="translate(3.562 25.752)" fill="#ffc300" stroke="#003566" stroke-width="0.5"/>
        <path id="Path_39" data-name="Path 39" d="M33.4,4.824A2.187,2.187,0,0,0,31.17,7.05a2.021,2.021,0,0,0,.668,1.559l-6.679,6.828L18.85,4.156a2.215,2.215,0,0,0,1.113-1.93,2.226,2.226,0,0,0-4.453,0,2.215,2.215,0,0,0,1.113,1.93L10.316,15.437,3.637,8.609A1.756,1.756,0,0,0,4.453,7.05,2.187,2.187,0,0,0,2.226,4.824,2.187,2.187,0,0,0,0,7.05,2.187,2.187,0,0,0,2.226,9.277h.148l1.187,15.14h28.5l1.187-15.14H33.4A2.187,2.187,0,0,0,35.623,7.05,2.233,2.233,0,0,0,33.4,4.824" fill="#ffc300" stroke="#003566" stroke-width="0.5"/>
      </g>
    </g>
  </g>
</svg>
