<?xml version="1.0" encoding="utf-8"?>
<!-- Generator: Adobe Illustrator 27.7.0, SVG Export Plug-In . SVG Version: 6.00 Build 0)  -->
<svg version="1.1" id="Layer_1" xmlns="http://www.w3.org/2000/svg" xmlns:xlink="http://www.w3.org/1999/xlink" x="0px" y="0px"
	 viewBox="0 0 50.3 43.2" style="enable-background:new 0 0 50.3 43.2;" xml:space="preserve">
<style type="text/css">
	.st0{fill:#003566;}
</style>
<path class="st0" d="M21.6,7.4L33.2,19c0.7,0.7,1.1,1.6,1.1,2.6c0,1-0.4,1.9-1.1,2.6L21.6,35.8c-0.6,0.6-1.4,0.9-2.3,0.9
	c-1.8,0-3.2-1.4-3.2-3.2v-5.9H4.1c-1.7,0-3-1.4-3-3v-6.1c0-1.7,1.4-3,3-3h12.1V9.7c0-1.8,1.4-3.2,3.2-3.2C20.2,6.5,21,6.8,21.6,7.4z
	 M34.3,36.7h6.1c1.7,0,3-1.4,3-3V9.5c0-1.7-1.4-3-3-3h-6.1c-1.7,0-3-1.4-3-3s1.4-3,3-3h6.1c5,0,9.1,4.1,9.1,9.1v24.2
	c0,5-4.1,9.1-9.1,9.1h-6.1c-1.7,0-3-1.4-3-3C31.3,38.1,32.6,36.7,34.3,36.7z"/>
</svg>
