<svg xmlns="http://www.w3.org/2000/svg" width="13.049" height="17.398" viewBox="0 0 13.049 17.398">
  <path id="golf-ball-tee-solid" d="M8.7,13.049H4.35a1.087,1.087,0,1,0,0,2.175h.544a.545.545,0,0,1,.544.544v.544a1.087,1.087,0,0,0,2.175,0v-.544a.545.545,0,0,1,.544-.544H8.7a1.087,1.087,0,1,0,0-2.175ZM6.524,0A6.525,6.525,0,0,0,2.916,11.961h7.218A6.525,6.525,0,0,0,6.524,0ZM4.8,6.6a.429.429,0,0,1-.292-.116L2.617,4.713a1.566,1.566,0,0,1-.5-1.149V3.5a1.5,1.5,0,0,1,2.555-1.06l.126.126.129-.122a1.5,1.5,0,0,1,2.555,1.06v.061a1.571,1.571,0,0,1-.5,1.149L5.09,6.484A.421.421,0,0,1,4.8,6.6Zm1.648.449,0,0A1.138,1.138,0,0,0,7.585,5.909c0-.167.173-.309.285-.183a1.136,1.136,0,0,1-1.6,1.6C6.14,7.218,6.283,7.044,6.45,7.044Zm1.206,3.384a1.138,1.138,0,0,1-.751-.285c-.126-.112.017-.285.183-.285A1.138,1.138,0,0,0,8.227,8.72l0,0c0-.167.173-.309.285-.183a1.136,1.136,0,0,1-.853,1.889Zm2.08-2.27a1.138,1.138,0,0,1-.751-.285c-.126-.112.017-.285.183-.285A1.138,1.138,0,0,0,10.306,6.45l0,0c0-.167.173-.309.285-.183a1.136,1.136,0,0,1-.853,1.889Z" fill="#ffc300"/>
</svg>
