<svg id="logo" xmlns="http://www.w3.org/2000/svg" xmlns:xlink="http://www.w3.org/1999/xlink" width="480.343" height="492.235" viewBox="0 0 480.343 492.235">
  <defs>
    <clipPath id="clip-path">
      <rect id="Rectangle_16" data-name="Rectangle 16" width="480.343" height="492.235" fill="#003566"/>
    </clipPath>
  </defs>
  <g id="Group_16" data-name="Group 16" clip-path="url(#clip-path)">
    <path id="Path_136" data-name="Path 136" d="M69.686,1.894l47.807,67.8H94.6L53.43,14.616c-1.762-2.116-1.762-4.587,0-5.651l10.6-7.779a3.968,3.968,0,0,1,5.651.709" transform="translate(7.503 0.045)" fill="#003566"/>
    <path id="Path_137" data-name="Path 137" d="M418.3,390.1c-.355,5.663-4.942,10.959-9.186,13.087-4.244,2.471-13.076,4.942-30.75,7.425-21.919,2.825-27.227,2.825-31.471,3.18a14.03,14.03,0,0,1-5.651-1.064,1.238,1.238,0,0,1-.709-.354,24.349,24.349,0,0,1-7.07-3.89,68.933,68.933,0,0,1-10.25-10.959l-19.791-27.216-6.372-10.25c0-.354,0-.354.355-.709L281.52,337.487h12.527l10.777,14.792h.709l7.779,9.541L333.1,389.047s2.128,3.18,4.954,2.825c2.471-.354,3.889-3.18,4.942-4.244.709-1.064,8.843-6.361,18.739-12.378,9.9-6.361,18.03-10.6,18.03-10.6s11.314-6.715,17.32-7.425a13.049,13.049,0,0,1,9.553,2.482c2.471,2.116,5.3,5.3,7.767,11.314A40.984,40.984,0,0,1,418.3,390.1" transform="translate(40.536 48.595)" fill="#003566"/>
    <path id="Path_138" data-name="Path 138" d="M138.061,350.564,121.92,372.78c.355.355.355.355.355.709l-6.361,10.25-19.8,27.216a68.33,68.33,0,0,1-10.25,10.959,38.021,38.021,0,0,1-7.07,3.89,1.238,1.238,0,0,1-.709.355c-.7,0-2.826,1.064-5.651,1.064-4.244,0-9.541,0-31.46-3.192-17.32-2.471-26.518-4.942-30.762-7.425-4.587-2.116-8.832-7.413-9.186-13.076s1.064-13.785,3.89-19.082c2.471-6.017,4.942-8.843,7.779-11.314a12.281,12.281,0,0,1,9.541-2.483c6.006.709,17.32,7.424,17.32,7.424s8.134,4.244,18.029,10.605C67.477,394.7,75.256,400,76.32,401.06s2.826,3.889,4.942,4.244c2.482.354,4.953-2.837,4.953-2.837l19.791-27.215,7.779-9.541h.709L125.5,350.564Z" transform="translate(0.14 50.478)" fill="#003566"/>
    <path id="Path_139" data-name="Path 139" d="M386.088,15.015l-81.612,95.941H290.161L369.832,1.584a3.97,3.97,0,0,1,5.652-.709l10.6,7.779c1.773,1.419,1.773,3.89,0,6.361" transform="translate(41.78 0)" fill="#003566"/>
    <path id="Path_140" data-name="Path 140" d="M86.626,119.154a7.911,7.911,0,0,1-1.252,3.09,15.184,15.184,0,0,1-2.561,3.161,4.763,4.763,0,0,1-2.768,1.469,3.667,3.667,0,0,1-.786-.079q-6.214-1.989-15.334-1.255A122.272,122.272,0,0,0,45.7,128.788a2.389,2.389,0,0,1-.665.125q-1.606.13-1.421-1.522a8.52,8.52,0,0,1,1.054-2.933,19.9,19.9,0,0,1,1.677-2.7L77.757,82.927a13.243,13.243,0,0,0-4.086-.311A23.527,23.527,0,0,0,65.052,85.3a41.406,41.406,0,0,0-6.675,4.062,11.265,11.265,0,0,0-4.1,4.921,13.473,13.473,0,0,1-2.219,3.666,5.99,5.99,0,0,1-3.081,2.313q-1.193.309-1.67-.257a2.1,2.1,0,0,1-.358-1.644,5.462,5.462,0,0,1,.381-1.454,32.343,32.343,0,0,1,7.057-10.677,49.726,49.726,0,0,1,11.543-9.08A29.918,29.918,0,0,1,78.3,72.989,14.63,14.63,0,0,1,87,74.707a2.162,2.162,0,0,1,.633.8,1.82,1.82,0,0,1,.114.915,6.646,6.646,0,0,1-.26,1.018,12.2,12.2,0,0,1-1.357,2.742A13.885,13.885,0,0,1,84.073,82.7Q64.931,106.311,55.432,118.11a97.562,97.562,0,0,1,13.4-2.148q9.924-.8,17.036,1.544.916.211.755,1.647" transform="translate(6.277 10.5)" fill="#003566"/>
    <path id="Path_141" data-name="Path 141" d="M102.92,70.931a15.314,15.314,0,0,1,6.3-2.039A11.429,11.429,0,0,1,118.4,72.21q5.8,5.656,4.677,15.638a35.9,35.9,0,0,1-2.274,8.975,49.348,49.348,0,0,1-4.416,8.718,41.6,41.6,0,0,1-2.682,3.918l1.143,2.043a1.98,1.98,0,0,1,.106.988,8.308,8.308,0,0,1-1.5,3.4,22.362,22.362,0,0,1-2.973,3.621,5.054,5.054,0,0,1-2.647,1.672.707.707,0,0,1-.746-.438,7.364,7.364,0,0,0-.475-.923c-.2-.339-.424-.737-.662-1.191q-7.82,7.82-13.367,8.266a6.588,6.588,0,0,1-3.34-.514q-5.165-2.287-3.93-13.278.233-2.083,1.123-6.782a119.607,119.607,0,0,1,4.526-17.733l-.633-1.444-1.689-4.277a1.809,1.809,0,0,1-.049-.85,8.366,8.366,0,0,1,1.543-3.434,22.108,22.108,0,0,1,3.051-3.662,5.223,5.223,0,0,1,2.61-1.67.556.556,0,0,1,.608.378c.11.325.229.647.362.968s.254.645.361.968a23.93,23.93,0,0,1,5.8-4.632m-.571,41.081q-3.125-5.654-6.1-11.964-.357,1.881-.622,2.969-.47,2.884-.647,4.465a26.368,26.368,0,0,0-.086,5.914,7.173,7.173,0,0,0,.288,1.614,3.59,3.59,0,0,0,.7,1.153c0-.047.079-.065.222-.053a1.341,1.341,0,0,0,.515-.078,19.4,19.4,0,0,0,5.731-4.021m7.594-9.652A25.049,25.049,0,0,0,113.75,92.3a14.48,14.48,0,0,0-.343-5.312,10.78,10.78,0,0,0-3.3-5.356,6.81,6.81,0,0,0-5.181-2.145,5,5,0,0,0-3.065,1.528l-.438,1.317a.256.256,0,0,1-.089.149l.008-.072a4.729,4.729,0,0,1-.3.737l-.316.88q4.189,9.059,9.219,18.332" transform="translate(12.249 9.914)" fill="#003566"/>
    <path id="Path_142" data-name="Path 142" d="M163.172,112.982a7.91,7.91,0,0,1-1.251,3.09,15.182,15.182,0,0,1-2.561,3.161,4.762,4.762,0,0,1-2.768,1.469,3.661,3.661,0,0,1-.786-.079q-6.214-1.989-15.334-1.255a122.261,122.261,0,0,0-18.226,3.249,2.393,2.393,0,0,1-.665.125q-1.606.13-1.421-1.522a8.519,8.519,0,0,1,1.054-2.933,19.923,19.923,0,0,1,1.677-2.7L154.3,76.755a13.245,13.245,0,0,0-4.086-.311,23.532,23.532,0,0,0-8.619,2.687,41.428,41.428,0,0,0-6.675,4.062,11.263,11.263,0,0,0-4.1,4.922,13.476,13.476,0,0,1-2.219,3.667,5.989,5.989,0,0,1-3.081,2.313q-1.193.309-1.67-.257a2.1,2.1,0,0,1-.358-1.644,5.461,5.461,0,0,1,.381-1.454,32.344,32.344,0,0,1,7.057-10.677,49.732,49.732,0,0,1,11.543-9.08,29.92,29.92,0,0,1,12.364-4.165,14.632,14.632,0,0,1,8.7,1.718,2.162,2.162,0,0,1,.633.8,1.82,1.82,0,0,1,.114.915,6.627,6.627,0,0,1-.26,1.018,12.23,12.23,0,0,1-1.357,2.743,13.921,13.921,0,0,1-2.055,2.514q-19.142,23.609-28.641,35.408a97.544,97.544,0,0,1,13.4-2.148q9.924-.8,17.036,1.544.917.211.755,1.647" transform="translate(17.299 9.612)" fill="#003566"/>
    <path id="Path_143" data-name="Path 143" d="M197.675,83.885a17.923,17.923,0,0,1,6.375,6,12.126,12.126,0,0,1,1.776,8.007,18.589,18.589,0,0,1-2.624,7.259,28.209,28.209,0,0,1-9.114,9.668,24.625,24.625,0,0,1-11.281,3.863,24.132,24.132,0,0,1-9.841-1.234,23.519,23.519,0,0,1-8.5-5.08,21.3,21.3,0,0,1-5.484-8.135,2.977,2.977,0,0,1-.09-1.131,8.176,8.176,0,0,1,1.349-3.312,15.908,15.908,0,0,1,2.679-3.241,4.786,4.786,0,0,1,2.586-1.455.966.966,0,0,1,1.079.7,21.814,21.814,0,0,0,5.635,8.407,19.55,19.55,0,0,0,8.877,4.658,22.825,22.825,0,0,0,6.827.375,19.061,19.061,0,0,0,6.243-1.5,7.107,7.107,0,0,0,3.8-3.581,4.987,4.987,0,0,0,.38-1.454q.34-3.018-2.71-5.8a27.623,27.623,0,0,0-6.407-4.431,28.064,28.064,0,0,0-6.561-2.424,22.417,22.417,0,0,0-6.99-.54,20.631,20.631,0,0,0-4.589.939,2.074,2.074,0,0,1-.819.208.974.974,0,0,1-1.087-.624,3.424,3.424,0,0,1-.171-1.7,6.874,6.874,0,0,1,.284-1.232,10.181,10.181,0,0,1,1.632-2.943,11.242,11.242,0,0,1,2.509-2.374,5.585,5.585,0,0,1,1.24-.74,101.686,101.686,0,0,0,11.09-6.02A76.363,76.363,0,0,0,171.21,78.4a4.431,4.431,0,0,1-.819.208q-1.312.106-1.127-1.547a11.282,11.282,0,0,1,2.045-4.685A8.363,8.363,0,0,1,174.8,69a82.958,82.958,0,0,1,20.723-4.234q3.285-.264,6.4-.3,1.6-.057,1.411,1.595a9.6,9.6,0,0,1-1.579,3.757,11.752,11.752,0,0,1-2.358,2.966q-6.08,4.547-10.773,7.7a30.267,30.267,0,0,1,9.055,3.4" transform="translate(22.876 9.282)" fill="#003566"/>
    <path id="Path_144" data-name="Path 144" d="M189.8,141.82q-.762,6.773-13.541,18.522T140.4,190.358q-12.06,9.549-18.226,14.706t-7.779,7.712a14.518,14.518,0,0,0-1.783,4.058,30.675,30.675,0,0,0-.921,4.829,41.912,41.912,0,0,1-.667,4.248q-2.377,9.328-4.878,16.425a102.147,102.147,0,0,1-5.293,12.545,41.388,41.388,0,0,1-7.078,9.892,46.21,46.21,0,0,1-6.316,5.635,12.838,12.838,0,0,1-6.38,2.845q-6.5.524-5.334-9.823a56.661,56.661,0,0,1,1.547-7.862q1.163-4.472,1.505-5.807l1.632-6.1q-4.587,3.726-8.026,4a3.331,3.331,0,0,1-3.271-1.227,5.865,5.865,0,0,1-.681-4.046,19.175,19.175,0,0,1,2.97-7.883,49.805,49.805,0,0,1,7.025-8.582q3.883-4.228,5.561-6.507a17.322,17.322,0,0,0,2.546-4.959,126.308,126.308,0,0,0,3.6-18.56,91.332,91.332,0,0,0,.653-12.543,62.5,62.5,0,0,0-.725-8.7q-.087-.923-.5-5.646a44.214,44.214,0,0,1,.05-8.859q2.241-19.938,25.177-21.791,2.481-.2,7.412-.224,12.1.143,29.072-.853l5.9-.29,13.973-1.313q12.041-.97,16.651,1.827a4.216,4.216,0,0,1,1.977,4.315m-43.314,23.066q-9.876.237-29.54-.041-.081,14.176-.859,26.168,17.088-15.543,30.4-26.127" transform="translate(9.847 19.501)" fill="#003566"/>
    <path id="Path_145" data-name="Path 145" d="M285.417,111.837a9.276,9.276,0,0,1,.788,3.944,20.882,20.882,0,0,1-2.842,8.432,39.062,39.062,0,0,1-7.483,10.111,19.044,19.044,0,0,1-9.8,5.45q-9.708,2.09-13.589,2.961a106.227,106.227,0,0,1,3.427,21.721,155.554,155.554,0,0,1,.623,16.356q-.213,5.237-.528,8.058-.3,2.637-1.313,8.309-3.494,20.974-8.31,33.48a104.907,104.907,0,0,1-7.723,16.469q-3.313,5.86-6.016,9.712a41.832,41.832,0,0,1-6.081,6.922l-5.9,5.323-3.864,2.362a10.417,10.417,0,0,1-5.541,2.124,7.107,7.107,0,0,1-1.954.53,31.745,31.745,0,0,1-13.38-2.275,46.665,46.665,0,0,1-8.677-5.36q-4.007-3.125-9.677-8.262l-18.418-16.411q-2.235-2.057-1.787-6.008.612-5.455,5.983-12.786,5.579-7.531,11.378-10.239a7.948,7.948,0,0,1,3.142-1,5.461,5.461,0,0,1,2.974.506l13.341,12.72,4.122,3.768a136.347,136.347,0,0,0,11.333,9.526,34.879,34.879,0,0,0,10.675,5.291,2.457,2.457,0,0,0,1.125.1,35.965,35.965,0,0,0,2-4.263,159.882,159.882,0,0,0,6.341-21.017q1.968-9.107,2.8-16.445.486-4.324.529-6.38l.062-3.92q.165-11.569-.3-17.5a69.444,69.444,0,0,0-5.531-21.552,6.444,6.444,0,0,1-.363-3.513l-2.718.591q-17.285,5.5-25.947,8.431c-.4.157-.826.317-1.285.476a6.6,6.6,0,0,1-1.646.319,3.31,3.31,0,0,1-3.548-2.137,9.81,9.81,0,0,1-.192-3.34,17.131,17.131,0,0,1,.7-2.853,28.73,28.73,0,0,1,7.384-11.78,24.449,24.449,0,0,1,6.6-4.821q12.609-4.372,18.94-6.747a53.4,53.4,0,0,1,5.712-1.952q7.114-2.622,11.424-3.9,19.789-5.882,39.3-11l.786-.249a2.688,2.688,0,0,1,2.931,1.721" transform="translate(22.649 15.854)" fill="#003566"/>
    <path id="Path_146" data-name="Path 146" d="M360.842,215.644l1.637,3.97a55.5,55.5,0,0,1,3.156,7.3,14.438,14.438,0,0,1,.63,6.195q-.551,4.894-5.338,10.4a36.544,36.544,0,0,1-10.03,8.359,15.344,15.344,0,0,1-6.688,2.217,18.548,18.548,0,0,1-10.981-2.564,89.783,89.783,0,0,1-12.344-8.978,86.315,86.315,0,0,0-7.689-5.719,51.829,51.829,0,0,0-7.562-3.492,96.736,96.736,0,0,1-15.474-8.073q-5.368-3.665-4.729-9.312a14.9,14.9,0,0,1,1.844-4.623q-4.35,6.689-12.329,20.381-9.825,16.64-11.183,18.612a54.079,54.079,0,0,1-8.48,9.726q-5.721,5.4-10.117,5.755a4.582,4.582,0,0,1-3.822-1.369q-1.191-1.206-.872-4.031.889-7.9,15.383-29.017.932-1.565,2.972-4.527l5.092-8.241q15.7-25.126,23.006-37.834,4.243-7.425,12.35-22.248l8.594-15.793a128.337,128.337,0,0,1,10.071-15.446,37.76,37.76,0,0,1,11.539-9.971,15.519,15.519,0,0,1,6.305-2.187,4.6,4.6,0,0,1,5.152,3.034,37.472,37.472,0,0,1,1.9,10.006,380.739,380.739,0,0,0,4.943,40.241,288.292,288.292,0,0,0,13.06,47.231M320.72,200.237q-3.451-19.856-4.9-33.907-9.1,15.276-23.706,37.332-1.192,2.15-3.906,6.094,8.954-12.278,18.7-13.067a17.574,17.574,0,0,1,7.286.9,43.905,43.905,0,0,1,6.52,2.643" transform="translate(34.616 16.574)" fill="#003566"/>
    <path id="Path_147" data-name="Path 147" d="M66.316,270.375a10.663,10.663,0,0,1-1.6,4.095,23.7,23.7,0,0,1-2.7,3.776,14.138,14.138,0,0,1-5.408,4,22.887,22.887,0,0,1-6.568,1.444q-1.251.1-3.938.115a45.327,45.327,0,0,0-4.994.3l-1.928.155a2.294,2.294,0,0,0-1.507.529,8.311,8.311,0,0,0-1.094,1.918,11.743,11.743,0,0,0-.665,2.7q-.239,1.647-.318,2.364l-2.01,11.449q-.983,5.977-1.588,10.449t-1.046,7.456q-.451,4-.773,5.959a6.5,6.5,0,0,1,1.169-.3q2.293-.185,1.9,3.3a21.524,21.524,0,0,1-1.37,5.3q-1.093,2.834-2.621,6.312a28.4,28.4,0,0,1-3.184,4.884,35.941,35.941,0,0,1-5.106,5.445q-2.746,2.356-4.622,2.506-2.4.194-2.817-3.433a37.426,37.426,0,0,1,.136-8.552,120.443,120.443,0,0,1,2.75-14.357l1.562-7.447Q21.8,300.607,25.513,287.8q-.649.257-3.509,1.351a44.092,44.092,0,0,0-5.281,2.408,17.815,17.815,0,0,0-3.811,2.646,17.9,17.9,0,0,0-2.813,3.888,42.609,42.609,0,0,1-2.738,3.678,8.6,8.6,0,0,1-3.086,2.182,6.372,6.372,0,0,1-2.351.7q-2.19.177-1.889-2.492a14.393,14.393,0,0,1,1.295-4.171,22.7,22.7,0,0,1,2.2-3.94q8.252-11.851,23.3-18a104.278,104.278,0,0,1,31.21-7.447q2.291-.185,6.231-.3,2.281-.081,2.04,2.073" transform="translate(0 38.633)" fill="#003566"/>
    <path id="Path_148" data-name="Path 148" d="M82.38,289.769a16.846,16.846,0,0,1,4.608,7.712,24.763,24.763,0,0,1,.763,9.753,39.9,39.9,0,0,1-3.793,12.609,56.875,56.875,0,0,1-7.883,12.227,45.543,45.543,0,0,1-10.225,9.163,21.505,21.505,0,0,1-9.706,3.628,10.54,10.54,0,0,1-7.715-2.123q-3.13-2.492-4.1-7.6a35.8,35.8,0,0,1-.422-11.863,51.673,51.673,0,0,1,1.5-7.85,9.3,9.3,0,0,1-2.212.383q-3.545.285-3.28-2.075a4.017,4.017,0,0,1,.359-1.351,60.261,60.261,0,0,1,12.6-17.844q7.954-7.81,17.233-8.558a28.957,28.957,0,0,1,4.02.081,14.193,14.193,0,0,1,8.26,3.708m-7.173,20.61a19.947,19.947,0,0,0-.663-8.335,11.049,11.049,0,0,0-4.346-5.9,6.407,6.407,0,0,0-4.2-1.288,7.815,7.815,0,0,0-2.13.577,1.159,1.159,0,0,1,.777,1.36,3.87,3.87,0,0,1-.579,1.47,54.267,54.267,0,0,0-4.855,10.1,46.939,46.939,0,0,0-2.55,10.728,33.958,33.958,0,0,0,.562,11.548,16.173,16.173,0,0,0,2.064,4.612,3.116,3.116,0,0,0,1.135.927,27.2,27.2,0,0,0,6.119-6.189,58.6,58.6,0,0,0,4.984-8.028,32.572,32.572,0,0,0,3.678-11.583" transform="translate(5.745 41.173)" fill="#003566"/>
    <path id="Path_149" data-name="Path 149" d="M122.092,281.744a13.836,13.836,0,0,1,5.965-2.058,4.4,4.4,0,0,1,2.636.449,1.766,1.766,0,0,1,.7,2.029q-.649,3.915-.912,6.275-2.025,13.385-4.376,22.826a61.5,61.5,0,0,1-7.76,18.014,28.027,28.027,0,0,1-14.555,11.849,24.124,24.124,0,0,1-5.826,1.285,15.94,15.94,0,0,1-11.289-2.954q-4.62-3.492-4.6-10.1.091-2.65.241-3.986a56.642,56.642,0,0,1,3.818-14.646q3.02-7.564,8.367-18.368,1.562-2.869,3.61-7.306a7.319,7.319,0,0,1,3.509-3.183,13.779,13.779,0,0,1,5.189-1.587,4.387,4.387,0,0,1,2.636.448,1.719,1.719,0,0,1,.828,1.814,6.231,6.231,0,0,1-.347,1.248q-2.756,6.121-4.235,9.187-3.96,8.558-6.255,14.282A72.632,72.632,0,0,0,95.86,318.89q-.487,2.481-.646,3.916-.681,6.056,2.042,8.479a7.26,7.26,0,0,0,2.311,1.49,6.91,6.91,0,0,0,2.821.637l.811.138a1.283,1.283,0,0,0,.452-.341,15.01,15.01,0,0,0,4.85-5.934,40.458,40.458,0,0,0,2.927-7.2q.867-3.12,2.556-9.866,1.34-5.5,2.539-12t2.19-12.582q.333-2.061,3.381-3.883" transform="translate(11.819 40.268)" fill="#003566"/>
    <path id="Path_150" data-name="Path 150" d="M165.432,311.811a14.943,14.943,0,0,1,5.345-1.6q3.441-.276,3.2,1.878a4.782,4.782,0,0,1-.475,1.462,138.214,138.214,0,0,0-8.61,19.608,9.061,9.061,0,0,1-3.45,4.04,10.4,10.4,0,0,1-3.434,2.514,12.085,12.085,0,0,1-4.326,1.263,4.523,4.523,0,0,1-2.786-.487,2.2,2.2,0,0,1-.945-2.16,19.431,19.431,0,0,0-3.058-11.855,13.915,13.915,0,0,0-9.461-6.354l-2.194,14.92q-.324,1.96-3.688,3.856a15.461,15.461,0,0,1-6.283,2.135,4.322,4.322,0,0,1-2.439-.362,1.579,1.579,0,0,1-.737-1.721L124,324.761a2.079,2.079,0,0,1-1.113-2.044,4.706,4.706,0,0,1,1.876-2.9q2.621-18.718,5.44-37.35.345-2.166,3.392-3.986a13.8,13.8,0,0,1,5.966-2.057q2.188-.177,3.011.773,11.015,2.162,22.8,4.873a16.151,16.151,0,0,1,2.652-.621A3.828,3.828,0,0,1,170.7,282a2.276,2.276,0,0,1,.731,2.229,14.758,14.758,0,0,1-3.686,7.975,80.525,80.525,0,0,1-8.7,8.48l-2.294,2.015q-5.546,5.228-10.653,9.3a19.273,19.273,0,0,1,12.711,8.228q.53-1.057,2.766-5.307a8.913,8.913,0,0,1,3.862-3.108m-19.03-9.9q4.424-3.507,7.254-6.178a27.923,27.923,0,0,0,4.464-5.24q-5.467-.981-16.149-3.376l-2.865,20.872q3.417-2.814,3.995-3.371Z" transform="translate(17.577 39.799)" fill="#003566"/>
    <path id="Path_151" data-name="Path 151" d="M206.692,310.147q-.9,8-1.2,16.164a3.1,3.1,0,0,1,.093,1.01,3.711,3.711,0,0,1-.312.938.115.115,0,0,1-.116.112l-.024.2a7.831,7.831,0,0,1-3.259,3.264,13.965,13.965,0,0,1-5.067,1.882q-4.216.748-4.761-1.75-2.565-9.352-8.572-25.747l-.927-2.773q-2.279,12.9-4.125,27.482-.242,2.156-3.351,4.084a13.74,13.74,0,0,1-6.133,2.171,5,5,0,0,1-2.942-.474,1.972,1.972,0,0,1-.777-2.274,497.192,497.192,0,0,1,10.009-53.176l.15-.418q.045-2.238,3.276-4.331a13.59,13.59,0,0,1,6.255-2.335q3.126-.252,3.625,1.741,2.332,8.659,7.319,22.188,1.709-9.7,4.394-19.776.542-2.078,3.746-3.912a14.78,14.78,0,0,1,6.12-2.068q3.753-.3,3.036,2.4a284.289,284.289,0,0,0-6.46,35.4" transform="translate(23.781 39.211)" fill="#003566"/>
    <path id="Path_152" data-name="Path 152" d="M246.7,287.663q1.211,9,3.1,20.645,1.75,11.048,2.277,14.664a3.02,3.02,0,0,1,0,.915q-.276,2.462-3.294,4.486a12.662,12.662,0,0,1-6.04,2.266,4.462,4.462,0,0,1-3.708-1.023,66,66,0,0,0-5.679-5.542q-3.015-2.6-7.961-6.375l-3.129-2.493q-5.418,9.589-8.31,14.2-.9,1.6-4.123,3.128a17.026,17.026,0,0,1-5.826,1.741q-2.917.235-2.71-1.612a3.687,3.687,0,0,1,.451-1.257q3.981-7.844,9.363-18.041l2.778-5.41-2.318-2.356a1.853,1.853,0,0,1-.544-1.583q.2-1.743,2.668-3.52a15.93,15.93,0,0,1,5.345-2.516q6.332-12.2,12.083-24.768a5.94,5.94,0,0,1,2.941-2.729,17.906,17.906,0,0,1,4.9-1.767,12.49,12.49,0,0,1,3.081-.758q2.917-.235,2.988,1.9.456,8.81,1.665,17.813m-16.917,13.108-1.065,2.121,6.617,5.465-.4-2.917q-.406-2.813-1.545-11.977Z" transform="translate(28.983 38.579)" fill="#003566"/>
    <path id="Path_153" data-name="Path 153" d="M303.979,267.722q-.166,12.52-.005,39.555l.04,11.589q.058,2.232-3,4.208a13.344,13.344,0,0,1-6.191,2.229,5.457,5.457,0,0,1-3.092-.515,2.248,2.248,0,0,1-1.136-2.3q.246-14.152.183-29.2-3.484,6.18-6.864,11.434a6.455,6.455,0,0,1-1.748,1.767,13.516,13.516,0,0,1-3.614,2.275,12.448,12.448,0,0,1-4,1.084q-3.229.261-4.031-1.81-1.414-3.952-2.76-8.521l-.866,3.12q-2.316,8.628-6.119,22.254-.554,2.179-3.915,4.027a15.981,15.981,0,0,1-6.382,2.09,4.207,4.207,0,0,1-2.536-.4q-.868-.542-.509-1.892,9.563-36.36,14.605-53.647.661-2.188,3.973-4.082a13.757,13.757,0,0,1,6.116-2.018,5.735,5.735,0,0,1,2.837.024,1.589,1.589,0,0,1,1.229,1.477,121.127,121.127,0,0,0,4.075,20.721q5.6-10.313,10.858-21.212a7.553,7.553,0,0,1,3.617-3.241,14.306,14.306,0,0,1,5.4-1.657q3.128-.252,3.545,1.544a3.367,3.367,0,0,1,.289,1.1" transform="translate(35.613 38.165)" fill="#003566"/>
    <path id="Path_154" data-name="Path 154" d="M346.291,313.819q-.186,1.643-2.383,3.75a9.319,9.319,0,0,1-5.874,2.61,7.84,7.84,0,0,1-2.767-.184,31,31,0,0,0-9.811-.938q-7.818.63-16.505,6.212a14.366,14.366,0,0,1-3.45,1.753,14.19,14.19,0,0,1-3.661.856,4.3,4.3,0,0,1-2.438-.364,1.579,1.579,0,0,1-.738-1.719,3.662,3.662,0,0,1,.349-1.248q3.956-8.556,6.531-15.374a88.507,88.507,0,0,0,3.974-13.743q1.978-9.309,2.462-13.62,1.281-11.391-2.523-17.083a2.122,2.122,0,0,1-.335-1.6q.23-2.051,3.35-4.083a12.952,12.952,0,0,1,5.938-2.258,3.238,3.238,0,0,1,2.619.6,2.144,2.144,0,0,1,1.586,1.5,25.563,25.563,0,0,0,5.908,10.86,12.12,12.12,0,0,0,10.315,3.795,23.091,23.091,0,0,0,3.487-.686c.986-.214,1.621-.334,1.9-.357a3.439,3.439,0,0,1,2.572.555,2.2,2.2,0,0,1,.651,2.033,5.532,5.532,0,0,1-1.523,2.969,8.468,8.468,0,0,1-3.412,2.31,29.7,29.7,0,0,1-8.709,2.126,21.869,21.869,0,0,1-9.569-1.263q-.856,5.766-1.489,8.662l-1.459,6.524q4.146-1.045,8.273-1.887l1.47-.22q4.168-.336,3.859,2.433a5.142,5.142,0,0,1-2.455,3.453,13.752,13.752,0,0,1-4.482,2.191q-3.3.875-9.011,2.048-1.712,5.124-3.563,9.644a46.026,46.026,0,0,1,14.246-3.589,41.369,41.369,0,0,1,15.314,1.61q1.507.39,1.356,1.722" transform="translate(43.002 36.971)" fill="#003566"/>
    <path id="Path_155" data-name="Path 155" d="M382.836,295.945q-.9,8-1.2,16.163a3.1,3.1,0,0,1,.092,1.01,3.712,3.712,0,0,1-.312.938.115.115,0,0,1-.116.112l-.023.2a7.847,7.847,0,0,1-3.259,3.263,13.976,13.976,0,0,1-5.068,1.883q-4.217.748-4.762-1.751-2.567-9.35-8.572-25.746l-.928-2.773q-2.277,12.9-4.124,27.482-.242,2.155-3.351,4.084a13.742,13.742,0,0,1-6.132,2.171,5,5,0,0,1-2.943-.475,1.972,1.972,0,0,1-.778-2.274,497.074,497.074,0,0,1,10.011-53.176l.15-.42q.044-2.238,3.276-4.33a13.572,13.572,0,0,1,6.253-2.335q3.128-.252,3.626,1.741,2.332,8.659,7.319,22.187,1.709-9.694,4.394-19.775.544-2.078,3.744-3.912a14.791,14.791,0,0,1,6.123-2.068q3.753-.3,3.034,2.4a284.426,284.426,0,0,0-6.46,35.4" transform="translate(49.145 37.167)" fill="#003566"/>
    <path id="Path_156" data-name="Path 156" d="M421.869,258a6.683,6.683,0,0,1,2.242,2.565,3.836,3.836,0,0,1,.581,2.191q-.254,2.257-3.218,2.9l-3.7.706q-5.19,1.131-5.5,1.155-3.623,16.563-6.023,28.754t-4.043,24.019a3.362,3.362,0,0,1-1.442,2.251,5.965,5.965,0,0,1-2.949.949,11.178,11.178,0,0,1-6.011-1.192q-2.887-1.447-2.54-3.609,1.539-10.9,3.75-22.317t5.462-26.522l-6.66,1.351a5.959,5.959,0,0,1-2.223.025,2.525,2.525,0,0,1-1.381-1.058,20.194,20.194,0,0,1-1.228-1.934,3.207,3.207,0,0,1-.578-2.191,2.773,2.773,0,0,1,.912-1.7,4.686,4.686,0,0,1,2.294-1.1q2.325-.493,5.4-1.146l5.4-1.148,3.872-17.9q.638-2.9,4.6-3.218a10.653,10.653,0,0,1,5.906,1.2q2.782,1.453,2.332,3.625l-2.9,13.859q2.938-.437,4.32-.754a5.184,5.184,0,0,1,3.329.239" transform="translate(55.637 34.528)" fill="#003566"/>
  </g>
</svg>
