<svg xmlns="http://www.w3.org/2000/svg" xmlns:xlink="http://www.w3.org/1999/xlink" width="146" height="146" viewBox="0 0 146 146">
  <defs>
    <filter id="Ellipse_2" x="0" y="0" width="146" height="146" filterUnits="userSpaceOnUse">
      <feOffset dy="3" input="SourceAlpha"/>
      <feGaussianBlur stdDeviation="3" result="blur"/>
      <feFlood flood-color="#003566" flood-opacity="0.322"/>
      <feComposite operator="in" in2="blur"/>
      <feComposite in="SourceGraphic"/>
    </filter>
    <clipPath id="clip-path">
      <rect id="Rectangle_10" data-name="Rectangle 10" width="77.628" height="77.628" fill="none"/>
    </clipPath>
  </defs>
  <g id="player2" transform="translate(-146 -314)">
    <g transform="matrix(1, 0, 0, 1, 146, 314)" filter="url(#Ellipse_2)">
      <g id="Ellipse_2-2" data-name="Ellipse 2" transform="translate(9 6)" fill="#fff" stroke="#00bbf9" stroke-width="3">
        <circle cx="64" cy="64" r="64" stroke="none"/>
        <circle cx="64" cy="64" r="62.5" fill="none"/>
      </g>
    </g>
    <g id="Group_11" data-name="Group 11" transform="translate(162.123 325.54)">
      <path id="Path_50" data-name="Path 50" d="M210.143,285.474a22.223,22.223,0,1,1,22.222-22.223,22.248,22.248,0,0,1-22.222,22.223m0-38.51a16.287,16.287,0,1,0,16.287,16.287,16.306,16.306,0,0,0-16.287-16.287" transform="translate(-152.416 -205.474)" fill="#ff9fc4"/>
      <path id="Path_51" data-name="Path 51" d="M263.375,326.894a10.41,10.41,0,1,1,10.41-10.41,10.422,10.422,0,0,1-10.41,10.41m0-14.884a4.474,4.474,0,1,0,4.474,4.474,4.479,4.479,0,0,0-4.474-4.474" transform="translate(-205.648 -258.707)" fill="#ff9fc4"/>
      <path id="Path_52" data-name="Path 52" d="M160.422,248.572a34.988,34.988,0,1,1,34.937-34.988,35,35,0,0,1-34.937,34.988m0-63.788a28.8,28.8,0,1,0,28.759,28.8,28.812,28.812,0,0,0-28.759-28.8" transform="translate(-102.696 -155.807)" fill="#ff9fc4"/>
      <path id="Path_53" data-name="Path 53" d="M107.836,207.654A46.658,46.658,0,1,1,154.443,161a46.685,46.685,0,0,1-46.607,46.658m0-87.193A40.535,40.535,0,1,0,148.327,161a40.558,40.558,0,0,0-40.491-40.535" transform="translate(-50.11 -103.219)" fill="#ff9fc4"/>
      <path id="Path_54" data-name="Path 54" d="M57.726,168.664a57.777,57.777,0,1,1,57.727-57.778,57.817,57.817,0,0,1-57.727,57.778m0-109.469a51.692,51.692,0,1,0,51.646,51.692A51.727,51.727,0,0,0,57.726,59.195" transform="translate(0 -53.109)" fill="#ff9fc4"/>
    </g>
    <g id="Group_3" data-name="Group 3" transform="translate(180.295 347.468)">
      <g id="Group_1" data-name="Group 1" clip-path="url(#clip-path)">
        <path id="Path_1" data-name="Path 1" d="M38.814,0A38.83,38.83,0,0,0,1.964,26.593l0,.011q-.081.244-.158.489a.087.087,0,0,0,0,.014q-.4,1.257-.711,2.549s0,.005,0,.009q-.059.243-.115.487c-.006.029-.012.058-.02.086-.031.138-.061.275-.091.414-.009.041-.017.081-.026.122-.027.127-.053.255-.079.383-.009.046-.018.092-.028.139-.024.123-.047.247-.07.371-.01.048-.019.1-.028.146-.022.123-.044.247-.066.371l-.024.143c-.022.13-.044.259-.064.39-.006.041-.013.083-.02.124-.023.151-.046.3-.068.455,0,.02-.005.04-.009.06q-.073.52-.132,1.046c-.005.046-.01.092-.015.139l-.04.377c-.005.061-.012.123-.017.184-.011.112-.021.223-.031.335-.005.068-.011.135-.017.2-.008.107-.017.213-.024.32-.005.07-.011.141-.015.212-.007.1-.013.208-.02.312,0,.072-.009.145-.012.217-.005.1-.011.209-.015.314,0,.071-.007.143-.01.214,0,.108-.008.217-.012.324,0,.068,0,.137-.006.2,0,.119-.005.237-.008.356,0,.058,0,.115,0,.173q0,.265,0,.53A38.815,38.815,0,0,0,38.814,77.628q.272,0,.542,0l.177,0,.366-.008.206-.007c.112,0,.224-.007.336-.012l.214-.009.331-.017.21-.012.345-.022.191-.013.4-.033.13-.011q.269-.023.537-.051l.077-.008.452-.05.165-.02.365-.045.186-.025.346-.048.187-.028.351-.053.174-.028.383-.064.137-.024q.529-.093,1.054-.2l.063-.014.453-.1.128-.029c.13-.028.259-.059.389-.089l.142-.034.38-.092.137-.035.4-.1.109-.029c.159-.043.317-.085.474-.13l.028-.008q.526-.148,1.046-.311l.015-.005q.244-.076.486-.156L51,75.676l.434-.147.08-.028.434-.153.065-.024q.24-.087.479-.176l.011,0q1.019-.384,2.009-.823l.006,0c.163-.072.325-.146.486-.219l.009,0A38.819,38.819,0,0,0,38.814,0M64.252,65.308a4.1,4.1,0,0,1-2.121-.022c-1.886-.621-5.037,1.975-5.559,2.96a.82.82,0,0,1-1.391.115c-1.617-1.617-5.63-.193-6.519,1.3a1.1,1.1,0,0,1-1.827.044c-1.329-2.129-5.474-1.158-6.84-.02a1.6,1.6,0,0,1-2.378-.338c-1.1-1.771-4.175-2.378-6.144-1.557-.644.269-2.332.45-2.961-.317a5.619,5.619,0,0,0-3.464-1.748c-1.57-.281-1.94-.979-1.819-2.066a4.9,4.9,0,0,0-3.968-4.922,2.442,2.442,0,0,1-1.935-2.954c.811-2.485-1.964-5.542-3.96-5.708-1.07-.089-2.022-1.933-1.4-3.376.985-2.286-.8-5.967-2.377-6.537a2.3,2.3,0,0,1-1.108-3.383c1.237-2.025,1.252-4.836-.045-6.133-1.125-1.125-1.66-1.681-1.222-3.027a5.205,5.205,0,0,0,.369-3.536,4.541,4.541,0,0,1,.908-3.211c4.611-4.894,1.764-4.343,3.174-6.718.039-.066.076-.132.113-.2A36.729,36.729,0,1,1,64.252,65.308" transform="translate(0 0)" fill="#003566"/>
        <path id="Path_2" data-name="Path 2" d="M111.219,23.46A36.631,36.631,0,0,0,84.18,35.332c-.037.066-.074.132-.113.2-1.41,2.375,1.437,1.824-3.174,6.718a4.541,4.541,0,0,0-.908,3.211,5.205,5.205,0,0,1-.369,3.536c-.438,1.346.1,1.9,1.222,3.027,1.3,1.3,1.283,4.109.045,6.133a2.3,2.3,0,0,0,1.108,3.383c1.573.569,3.362,4.251,2.377,6.537-.623,1.443.329,3.287,1.4,3.376,2,.165,4.771,3.223,3.96,5.708a2.442,2.442,0,0,0,1.935,2.954,4.9,4.9,0,0,1,3.968,4.922c-.121,1.087.25,1.786,1.819,2.066a5.619,5.619,0,0,1,3.464,1.748c.629.768,2.317.586,2.961.317,1.969-.821,5.04-.213,6.144,1.557a1.6,1.6,0,0,0,2.378.338c1.366-1.137,5.511-2.108,6.84.02a1.1,1.1,0,0,0,1.827-.044c.888-1.492,4.9-2.916,6.519-1.3a.82.82,0,0,0,1.391-.115c.522-.985,3.673-3.581,5.559-2.96a4.1,4.1,0,0,0,2.121.022A36.729,36.729,0,0,0,111.219,23.46M136.833,64.1c.086-2.3,1.506-4.2,2.949-4.2a2.06,2.06,0,0,1,1.812,1.273.454.454,0,0,1-.621.607,1.8,1.8,0,0,0-.875-.221c-1.118,0-2.221,1.1-2.76,2.662a.26.26,0,0,1-.506-.094c0-.01,0-.019,0-.028m-8.3,2a4.161,4.161,0,0,1,3.673-2.947,3.471,3.471,0,0,1,3.312,3.073.3.3,0,0,1-.546.217,3.333,3.333,0,0,0-2.839-1.626,3.924,3.924,0,0,0-3.012,1.608.34.34,0,0,1-.587-.325m-9.958-3.075a4.619,4.619,0,0,1,3.766-2.041,4.316,4.316,0,0,1,4.291,4.46.36.36,0,0,1-.7.126,4.451,4.451,0,0,0-4.176-2.919,4.629,4.629,0,0,0-2.678.872.361.361,0,0,1-.505-.5m-4.228-37.395a4.332,4.332,0,0,0,3.027-.7.451.451,0,0,1,.6-.07.846.846,0,0,1,.307.343c.261.609-1.058,1.19-2.985,1.119a8.828,8.828,0,0,1-1-.091.3.3,0,0,1,.054-.6M98.24,62.654a4.453,4.453,0,0,0-.649.046.421.421,0,0,1-.33-.739,4.2,4.2,0,0,1,2.714-.975,4.761,4.761,0,0,1,4.627,4.732,4.511,4.511,0,0,1-.73,2.54.421.421,0,0,1-.772-.251c0-.1.007-.2.005-.3a5.045,5.045,0,0,0-4.865-5.053M94.008,51.205a.392.392,0,0,1-.065-.753,3.893,3.893,0,0,1,5.222,4.078,4.932,4.932,0,0,1-1.476,3.422.392.392,0,0,1-.641-.418,5.317,5.317,0,0,0,.34-1.775,4.358,4.358,0,0,0-3.381-4.554m10.122-.478a.315.315,0,0,1-.116-.609,4.722,4.722,0,0,1,1.563-.3,4.554,4.554,0,0,1,4.659,4.579,4.663,4.663,0,0,1-.563,2.222.376.376,0,0,1-.7-.235,4.971,4.971,0,0,0,.06-.768,4.825,4.825,0,0,0-4.9-4.89m4.5-17.475a.348.348,0,0,1,.473-.5,2.56,2.56,0,0,1,1.238,2.161,3.446,3.446,0,0,1-1.974,2.831.348.348,0,0,1-.4-.561,3.283,3.283,0,0,0,1.176-2.375,2.593,2.593,0,0,0-.511-1.56m-.665,28.98a4.734,4.734,0,0,1,7.652,5.06.34.34,0,0,1-.657-.087,4.981,4.981,0,0,0-6.576-4.263.421.421,0,0,1-.419-.71m3.171-31.778a3.1,3.1,0,0,0,.411-.058c1.507-.374,2.5-1.272,2.4-2.2,0-.028-.008-.057-.012-.084a.3.3,0,0,1,.505-.271,1.456,1.456,0,0,1,.472.881c.133,1.135-1.543,2.23-3.751,2.226a.25.25,0,0,1-.022-.5m-6.276-4.607a.251.251,0,0,1,.254-.213q.26.007.537,0c1.789-.062,3.286-.625,3.612-1.181a.249.249,0,0,1,.273-.117c.607.14.99.368.989.676,0,.577-1.575,1.246-3.5,1.312a6.648,6.648,0,0,1-1.983-.2.25.25,0,0,1-.18-.278m-3.521,4.937c1.724-.45,3.082-1.526,3.2-2.522a1.183,1.183,0,0,0-.073-.583.251.251,0,0,1,.313-.33c.791.266,1.266.761,1.186,1.435-.132,1.136-2.011,2.375-4.132,2.546-.141.012-.28.019-.414.02a.288.288,0,0,1-.076-.567m-.793,9.516a.221.221,0,0,1,.2-.2,3.638,3.638,0,0,1,4.111,3.72,4.442,4.442,0,0,1-1.349,2.953.422.422,0,0,1-.671-.5,4.485,4.485,0,0,0,.537-1.957,3.74,3.74,0,0,0-2.678-3.788.22.22,0,0,1-.154-.236m-2.115-6.6a.474.474,0,0,1,.56-.7,2.125,2.125,0,0,1,1.48,2.369,4.915,4.915,0,0,1-3.486,3.569.348.348,0,0,1-.3-.618,4.641,4.641,0,0,0,2.079-3.026,2.334,2.334,0,0,0-.33-1.592m-5.512-2.153a5.034,5.034,0,0,0,2.571-2.484,1.422,1.422,0,0,0,.068-.484.527.527,0,0,1,.6-.545c.943.138,1.46.664,1.2,1.5-.362,1.176-2.273,2.567-4.142,2.9a.473.473,0,0,1-.3-.888M94.7,44.464a5.27,5.27,0,0,1-2.853,4.078.362.362,0,0,1-.435-.559,5.457,5.457,0,0,0,1.282-2.974,3.24,3.24,0,0,0-1.428-3.224.362.362,0,0,1,.128-.67A2.846,2.846,0,0,1,94.7,44.464m-7.626-4.591a6.009,6.009,0,0,0,2.316-3.334,2.3,2.3,0,0,0-.2-1.691.43.43,0,0,1,.325-.651,1.764,1.764,0,0,1,2.039,2.337,5.717,5.717,0,0,1-3.943,3.943c-.1.02-.191.036-.282.047a.362.362,0,0,1-.259-.651m-4.1,10.047a.421.421,0,0,1-.406-.667,6.468,6.468,0,0,0,1.235-3.03,3.51,3.51,0,0,0-.468-2.471.668.668,0,0,1,.29-1.006,2.553,2.553,0,0,1,.281-.1c1.471-.41,2.6.858,2.339,2.953S84.43,49.68,82.977,49.92m3.478,2.211a.42.42,0,0,1-.059-.737,2.847,2.847,0,0,1,1.195-.444c1.748-.216,3.255,1.517,3.169,3.922a4.82,4.82,0,0,1-2.216,4.034.421.421,0,0,1-.585-.545,5.8,5.8,0,0,0,.527-2.238,4.054,4.054,0,0,0-2.03-3.992m5.2,17.325a5.3,5.3,0,0,0,.074-1.054c-.062-2.317-1.613-4.439-3.588-4.8a.6.6,0,0,1-.263-1.062,3.067,3.067,0,0,1,1.916-.659c2.044,0,3.905,2.055,3.973,4.544a4.2,4.2,0,0,1-1.432,3.426.42.42,0,0,1-.68-.4M92.642,74a.6.6,0,0,1-.55-.913,3.238,3.238,0,0,1,3.064-1.474,5.007,5.007,0,0,1,4.468,4.467,3.272,3.272,0,0,1-1.179,2.852.361.361,0,0,1-.584-.252A5.243,5.243,0,0,0,92.642,74m11.7,12.736a.359.359,0,0,1-.277.027.364.364,0,0,1-.214-.179A5.423,5.423,0,0,0,99.509,83.9a4.659,4.659,0,0,0-1.45.112.36.36,0,0,1-.443-.307c-.206-1.723,1.378-3.024,3.581-2.865,2.312.162,4.348,1.883,4.46,3.637a2.328,2.328,0,0,1-1.318,2.262m-.169-12.244a4.746,4.746,0,0,0-2.078.418.361.361,0,0,1-.478-.476,4.2,4.2,0,0,1,4-2.363,4.644,4.644,0,0,1,4.66,4.36,3.164,3.164,0,0,1-.639,2.1.36.36,0,0,1-.639-.154,5.01,5.01,0,0,0-4.826-3.884m11.51,10.045a2.717,2.717,0,0,1-.824,1.748.36.36,0,0,1-.561-.062,4.665,4.665,0,0,0-3.977-1.935,5.289,5.289,0,0,0-2.51.609.36.36,0,0,1-.529-.283c0-.025,0-.051-.006-.076-.113-1.752,1.767-3.337,4.2-3.334s4.317,1.582,4.2,3.334m.153-9.41a5.158,5.158,0,0,0-2.993,1.037.36.36,0,0,1-.555-.41,4.813,4.813,0,0,1,4.42-3.047,3.895,3.895,0,0,1,4.1,5.168.361.361,0,0,1-.679.006,4.372,4.372,0,0,0-4.293-2.753m8.727,12.065a.36.36,0,0,1-.577.042,3.736,3.736,0,0,0-3.172-1.113,5.7,5.7,0,0,0-3.223,1.318.36.36,0,0,1-.589-.219c-.3-1.911,1.886-3.982,4.441-4.16,2.9-.21,4.451,2.034,3.121,4.132M123.4,75.811a.361.361,0,0,1-.626-.309,5.04,5.04,0,0,1,4.388-3.889,3.267,3.267,0,0,1,3.486,4.1.261.261,0,0,1-.487.069A3.37,3.37,0,0,0,126.827,74a5.073,5.073,0,0,0-3.427,1.809m9.825,6.908a.361.361,0,0,1-.548.147,2.738,2.738,0,0,0-2.119-.407,5.887,5.887,0,0,0-3.426,2.066.361.361,0,0,1-.625-.132,2.361,2.361,0,0,1-.034-1.055,5.421,5.421,0,0,1,4.236-3.868c2.224-.351,3.342,1.3,2.516,3.249m-.646-6.763a.261.261,0,0,1-.495-.1,4.438,4.438,0,0,1,.023-.68c.237-2.164,2.014-4.194,3.765-4.409,1.634-.2,2.646,1.105,2.574,2.9a.261.261,0,0,1-.175.235.258.258,0,0,1-.282-.076,2.173,2.173,0,0,0-2-.725,4.911,4.911,0,0,0-3.408,2.857m7.413,5.525c-.02.09-.044.179-.071.267a.361.361,0,0,1-.453.241,1.846,1.846,0,0,0-1.062.028,5.974,5.974,0,0,0-3.067,2.668.359.359,0,0,1-.631-.023,2.276,2.276,0,0,1-.086-1.54,5.977,5.977,0,0,1,3.55-3.985c1.476-.414,2.2.688,1.819,2.344M144.2,71.8a.484.484,0,0,1-.426.107,1.181,1.181,0,0,0-.537.007c-1,.226-2.121,1.668-2.63,3.378a.26.26,0,0,1-.5-.022,4.334,4.334,0,0,1-.028-1.424c.255-2.014,1.571-3.934,2.723-4.19.895-.2,1.452.544,1.564,1.736a.481.481,0,0,1-.162.408m2.076-9.57a.445.445,0,0,1-.361.176h-.012c-.724,0-1.494,1.215-1.794,2.857a.3.3,0,0,1-.312.24.3.3,0,0,1-.282-.28,7.079,7.079,0,0,1-.007-.718c.078-2.059.987-3.747,1.824-3.746.449,0,.792.414,1.007,1.075a.436.436,0,0,1-.064.4m.125-8.168c-.546.159-.965,1.5-.9,3.2a.215.215,0,0,1-.426.049,8.777,8.777,0,0,1-.155-1.373c-.07-1.927.512-3.246,1.12-2.985a1.26,1.26,0,0,1,.555.7.3.3,0,0,1-.191.405" transform="translate(-72.405 -21.376)" fill="#fff"/>
        <path id="Path_3" data-name="Path 3" d="M370.977,33.9c0,.577-1.575,1.246-3.5,1.312a6.649,6.649,0,0,1-1.983-.2.25.25,0,0,1,.074-.491c.173,0,.353,0,.537,0,1.789-.062,3.286-.625,3.612-1.181a.249.249,0,0,1,.273-.117c.607.14.99.368.989.676" transform="translate(-332.856 -30.265)" fill="#003566"/>
        <path id="Path_4" data-name="Path 4" d="M469.894,39.835a8.827,8.827,0,0,1-1-.091.3.3,0,0,1,.054-.6,4.332,4.332,0,0,0,3.027-.7.451.451,0,0,1,.6-.07.846.846,0,0,1,.307.343c.261.609-1.058,1.19-2.985,1.119" transform="translate(-427.005 -34.89)" fill="#003566"/>
        <path id="Path_5" data-name="Path 5" d="M232.685,76.372c-.362,1.176-2.273,2.567-4.142,2.9a.473.473,0,0,1-.3-.888,5.033,5.033,0,0,0,2.571-2.484,1.422,1.422,0,0,0,.068-.484.527.527,0,0,1,.6-.545c.943.138,1.46.664,1.2,1.5" transform="translate(-207.731 -68.215)" fill="#003566"/>
        <path id="Path_6" data-name="Path 6" d="M328.128,68.55C328,69.686,326.116,70.924,324,71.1c-.141.012-.28.019-.414.02a.288.288,0,0,1-.076-.567c1.724-.45,3.082-1.526,3.2-2.522a1.183,1.183,0,0,0-.073-.583.251.251,0,0,1,.313-.33c.791.266,1.266.761,1.186,1.435" transform="translate(-294.571 -61.141)" fill="#003566"/>
        <path id="Path_7" data-name="Path 7" d="M433.668,75.089a.25.25,0,0,1-.022-.5,3.1,3.1,0,0,0,.411-.058c1.507-.374,2.5-1.272,2.4-2.2,0-.028-.008-.057-.012-.084a.3.3,0,0,1,.505-.271,1.457,1.457,0,0,1,.472.881c.133,1.135-1.543,2.23-3.751,2.226" transform="translate(-394.915 -65.511)" fill="#003566"/>
        <path id="Path_8" data-name="Path 8" d="M436.242,107.824Z" transform="translate(-397.488 -98.245)" fill="#003566"/>
        <path id="Path_9" data-name="Path 9" d="M168.105,146.506a5.717,5.717,0,0,1-3.943,3.943c-.1.02-.191.036-.282.047a.362.362,0,0,1-.259-.651,6.008,6.008,0,0,0,2.316-3.334,2.3,2.3,0,0,0-.2-1.691.43.43,0,0,1,.325-.651,1.764,1.764,0,0,1,2.039,2.337" transform="translate(-148.951 -131.348)" fill="#003566"/>
        <path id="Path_10" data-name="Path 10" d="M275.54,132.877a4.915,4.915,0,0,1-3.486,3.569.348.348,0,0,1-.3-.618,4.641,4.641,0,0,0,2.079-3.026,2.335,2.335,0,0,0-.33-1.592.474.474,0,0,1,.56-.7,2.125,2.125,0,0,1,1.48,2.369" transform="translate(-247.474 -118.888)" fill="#003566"/>
        <path id="Path_11" data-name="Path 11" d="M401.484,129.678a3.446,3.446,0,0,1-1.974,2.831.348.348,0,0,1-.4-.561,3.284,3.284,0,0,0,1.176-2.375,2.593,2.593,0,0,0-.511-1.56.348.348,0,0,1,.473-.5,2.561,2.561,0,0,1,1.239,2.161" transform="translate(-363.549 -116.136)" fill="#003566"/>
        <path id="Path_12" data-name="Path 12" d="M117.257,241.627c-.257,2.095-1.818,4.078-3.271,4.318a.421.421,0,0,1-.406-.667,6.468,6.468,0,0,0,1.235-3.03,3.509,3.509,0,0,0-.468-2.471.668.668,0,0,1,.29-1.006,2.562,2.562,0,0,1,.281-.1c1.471-.41,2.6.858,2.339,2.953" transform="translate(-103.413 -217.401)" fill="#003566"/>
        <path id="Path_13" data-name="Path 13" d="M213.909,225.118a5.271,5.271,0,0,1-2.854,4.078.362.362,0,0,1-.435-.559,5.457,5.457,0,0,0,1.282-2.974,3.24,3.24,0,0,0-1.428-3.224.362.362,0,0,1,.128-.67,2.846,2.846,0,0,1,3.307,3.349" transform="translate(-191.613 -202.03)" fill="#003566"/>
        <path id="Path_14" data-name="Path 14" d="M321.079,214.433a4.442,4.442,0,0,1-1.349,2.953.422.422,0,0,1-.671-.5,4.485,4.485,0,0,0,.537-1.957,3.74,3.74,0,0,0-2.678-3.788.221.221,0,0,1,.05-.432,3.638,3.638,0,0,1,4.111,3.72" transform="translate(-288.623 -191.984)" fill="#003566"/>
        <path id="Path_15" data-name="Path 15" d="M159.891,336.636a4.82,4.82,0,0,1-2.216,4.034.421.421,0,0,1-.585-.545,5.8,5.8,0,0,0,.527-2.238,4.054,4.054,0,0,0-2.03-3.992.42.42,0,0,1-.059-.737,2.846,2.846,0,0,1,1.195-.444c1.748-.216,3.255,1.517,3.169,3.922" transform="translate(-141.535 -303.14)" fill="#003566"/>
        <path id="Path_16" data-name="Path 16" d="M245.033,328.885a4.931,4.931,0,0,1-1.476,3.422.392.392,0,0,1-.641-.418,5.318,5.318,0,0,0,.34-1.775,4.358,4.358,0,0,0-3.381-4.554.392.392,0,0,1-.065-.753,3.893,3.893,0,0,1,5.222,4.078" transform="translate(-218.273 -295.73)" fill="#003566"/>
        <path id="Path_17" data-name="Path 17" d="M359.94,324.74a4.663,4.663,0,0,1-.563,2.222.376.376,0,0,1-.7-.235,4.976,4.976,0,0,0,.059-.768,4.825,4.825,0,0,0-4.9-4.889.315.315,0,0,1-.116-.609,4.724,4.724,0,0,1,1.563-.3,4.554,4.554,0,0,1,4.659,4.58" transform="translate(-322.11 -291.718)" fill="#003566"/>
        <path id="Path_18" data-name="Path 18" d="M817.882,356.1a.3.3,0,0,1-.187.159c-.546.159-.965,1.5-.9,3.2a.215.215,0,0,1-.427.049,8.788,8.788,0,0,1-.155-1.373c-.07-1.927.512-3.246,1.12-2.985a1.26,1.26,0,0,1,.555.7.3.3,0,0,1,0,.246" transform="translate(-743.697 -323.572)" fill="#003566"/>
        <path id="Path_19" data-name="Path 19" d="M822.813,404Z" transform="translate(-749.717 -368.111)" fill="#003566"/>
        <path id="Path_20" data-name="Path 20" d="M176.269,463.96a.42.42,0,0,1-.68-.4,5.29,5.29,0,0,0,.074-1.055c-.062-2.317-1.613-4.439-3.588-4.8a.6.6,0,0,1-.263-1.062,3.067,3.067,0,0,1,1.916-.659c2.044,0,3.905,2.055,3.973,4.544a4.2,4.2,0,0,1-1.432,3.426" transform="translate(-156.339 -415.482)" fill="#003566"/>
        <path id="Path_21" data-name="Path 21" d="M285.6,450.6a4.511,4.511,0,0,1-.73,2.54.421.421,0,0,1-.772-.251c0-.1.007-.2.005-.3a5.045,5.045,0,0,0-4.865-5.053,4.446,4.446,0,0,0-.649.046.421.421,0,0,1-.33-.739,4.2,4.2,0,0,1,2.714-.976A4.761,4.761,0,0,1,285.6,450.6" transform="translate(-253.399 -406.261)" fill="#003566"/>
        <path id="Path_22" data-name="Path 22" d="M406.523,452.378a.34.34,0,0,1-.657-.087,4.981,4.981,0,0,0-6.576-4.263.421.421,0,0,1-.419-.71,4.734,4.734,0,0,1,7.652,5.06" transform="translate(-363.311 -406.461)" fill="#003566"/>
        <path id="Path_23" data-name="Path 23" d="M527.142,450.33a.36.36,0,0,1-.7.126,4.45,4.45,0,0,0-4.176-2.919,4.629,4.629,0,0,0-2.678.872.361.361,0,0,1-.505-.5,4.619,4.619,0,0,1,3.766-2.041,4.316,4.316,0,0,1,4.291,4.46" transform="translate(-472.914 -406.261)" fill="#003566"/>
        <path id="Path_24" data-name="Path 24" d="M638.427,473.687a.3.3,0,0,1-.363-.117,3.333,3.333,0,0,0-2.839-1.626,3.924,3.924,0,0,0-3.011,1.608.34.34,0,0,1-.587-.325,4.161,4.161,0,0,1,3.672-2.947,3.471,3.471,0,0,1,3.312,3.073.3.3,0,0,1-.184.334" transform="translate(-575.497 -428.502)" fill="#003566"/>
        <path id="Path_25" data-name="Path 25" d="M729.915,435.466a.456.456,0,0,1-.535.074,1.8,1.8,0,0,0-.875-.221c-1.119,0-2.221,1.1-2.76,2.661a.26.26,0,0,1-.506-.094c0-.01,0-.019,0-.029.086-2.3,1.506-4.2,2.949-4.2A2.059,2.059,0,0,1,730,434.933a.454.454,0,0,1-.086.533" transform="translate(-660.811 -395.135)" fill="#003566"/>
        <path id="Path_26" data-name="Path 26" d="M803.137,444.791a.445.445,0,0,1-.361.176h-.012c-.724,0-1.494,1.215-1.793,2.857a.3.3,0,0,1-.312.24.3.3,0,0,1-.282-.28,7.115,7.115,0,0,1-.007-.718c.078-2.059.987-3.747,1.824-3.746.449,0,.792.414,1.006,1.075a.436.436,0,0,1-.064.4" transform="translate(-729.263 -403.937)" fill="#003566"/>
        <path id="Path_27" data-name="Path 27" d="M227.041,572.729a.361.361,0,0,1-.584-.252,5.243,5.243,0,0,0-5.219-4.679.6.6,0,0,1-.55-.913,3.238,3.238,0,0,1,3.064-1.474,5.006,5.006,0,0,1,4.468,4.467,3.271,3.271,0,0,1-1.179,2.851" transform="translate(-201.002 -515.174)" fill="#003566"/>
        <path id="Path_28" data-name="Path 28" d="M337.125,575a3.164,3.164,0,0,1-.639,2.1.36.36,0,0,1-.639-.154,5.01,5.01,0,0,0-4.827-3.884,4.745,4.745,0,0,0-2.078.417.361.361,0,0,1-.478-.476,4.2,4.2,0,0,1,4-2.363,4.644,4.644,0,0,1,4.66,4.36" transform="translate(-299.257 -519.945)" fill="#003566"/>
        <path id="Path_29" data-name="Path 29" d="M457.425,581.9a3.988,3.988,0,0,1-.215,1.062.361.361,0,0,1-.679.006,4.372,4.372,0,0,0-4.293-2.753,5.156,5.156,0,0,0-2.993,1.037.36.36,0,0,1-.555-.41,4.812,4.812,0,0,1,4.421-3.047,4,4,0,0,1,4.315,4.106" transform="translate(-408.81 -526.459)" fill="#003566"/>
        <path id="Path_30" data-name="Path 30" d="M574.788,569.509a.261.261,0,0,1-.487.069,3.37,3.37,0,0,0-3.333-1.778,5.072,5.072,0,0,0-3.427,1.809.361.361,0,0,1-.626-.309,5.04,5.04,0,0,1,4.387-3.889,3.267,3.267,0,0,1,3.486,4.1" transform="translate(-516.545 -515.174)" fill="#003566"/>
        <path id="Path_31" data-name="Path 31" d="M678.119,558.653a.261.261,0,0,1-.175.236.258.258,0,0,1-.282-.077,2.174,2.174,0,0,0-2-.725,4.91,4.91,0,0,0-3.407,2.857.261.261,0,0,1-.495-.1,4.468,4.468,0,0,1,.023-.68c.237-2.164,2.014-4.194,3.765-4.409,1.634-.2,2.646,1.1,2.575,2.9" transform="translate(-612.077 -506.364)" fill="#003566"/>
        <path id="Path_32" data-name="Path 32" d="M765.438,545.289a.485.485,0,0,1-.426.107,1.175,1.175,0,0,0-.536.007c-1,.226-2.121,1.668-2.63,3.378a.26.26,0,0,1-.5-.022,4.334,4.334,0,0,1-.028-1.424c.255-2.014,1.571-3.934,2.723-4.189.894-.2,1.452.543,1.564,1.736a.482.482,0,0,1-.162.408" transform="translate(-693.64 -494.865)" fill="#003566"/>
        <path id="Path_33" data-name="Path 33" d="M290.327,675.1a.36.36,0,0,1-.277.027.364.364,0,0,1-.214-.18,5.423,5.423,0,0,0-4.338-2.685,4.658,4.658,0,0,0-1.45.112.36.36,0,0,1-.443-.307c-.206-1.724,1.378-3.024,3.581-2.865,2.312.162,4.348,1.883,4.46,3.637a2.328,2.328,0,0,1-1.318,2.262" transform="translate(-258.394 -609.744)" fill="#003566"/>
        <path id="Path_34" data-name="Path 34" d="M400.857,676.784a2.717,2.717,0,0,1-.824,1.748.36.36,0,0,1-.56-.062,4.665,4.665,0,0,0-3.977-1.935,5.29,5.29,0,0,0-2.51.608.36.36,0,0,1-.53-.283c0-.025,0-.051-.006-.076-.113-1.752,1.767-3.337,4.2-3.334s4.316,1.582,4.2,3.334" transform="translate(-357.582 -613.624)" fill="#003566"/>
        <path id="Path_35" data-name="Path 35" d="M509.245,698.342a.361.361,0,0,1-.577.042,3.737,3.737,0,0,0-3.172-1.113,5.7,5.7,0,0,0-3.223,1.318.36.36,0,0,1-.589-.219c-.3-1.911,1.886-3.982,4.441-4.16,2.9-.21,4.451,2.034,3.121,4.132" transform="translate(-457.09 -632.527)" fill="#003566"/>
        <path id="Path_36" data-name="Path 36" d="M614.948,656.713a.361.361,0,0,1-.548.147,2.737,2.737,0,0,0-2.119-.407,5.886,5.886,0,0,0-3.426,2.066.361.361,0,0,1-.624-.132,2.359,2.359,0,0,1-.034-1.055,5.421,5.421,0,0,1,4.236-3.868c2.224-.351,3.342,1.3,2.516,3.249" transform="translate(-554.128 -595.37)" fill="#003566"/>
        <path id="Path_37" data-name="Path 37" d="M704.835,651.638c-.021.09-.044.179-.071.267a.361.361,0,0,1-.453.241,1.845,1.845,0,0,0-1.062.028,5.974,5.974,0,0,0-3.067,2.668.359.359,0,0,1-.631-.023,2.276,2.276,0,0,1-.086-1.54,5.977,5.977,0,0,1,3.55-3.985c1.476-.414,2.2.688,1.819,2.344" transform="translate(-637.247 -591.533)" fill="#003566"/>
      </g>
    </g>
  </g>
</svg>
