<svg xmlns="http://www.w3.org/2000/svg" xmlns:xlink="http://www.w3.org/1999/xlink" width="146" height="146" viewBox="0 0 146 146">
  <defs>
    <filter id="Ellipse_5" x="7" y="7" width="132" height="132" filterUnits="userSpaceOnUse">
      <feOffset dy="3" input="SourceAlpha"/>
      <feGaussianBlur stdDeviation="3" result="blur"/>
      <feFlood flood-color="#003566" flood-opacity="0.322"/>
      <feComposite operator="in" in2="blur"/>
      <feComposite in="SourceGraphic"/>
    </filter>
    <filter id="Ellipse_4" x="0" y="0" width="146" height="146" filterUnits="userSpaceOnUse">
      <feOffset dy="3" input="SourceAlpha"/>
      <feGaussianBlur stdDeviation="3" result="blur-2"/>
      <feFlood flood-color="#003566" flood-opacity="0.322"/>
      <feComposite operator="in" in2="blur-2"/>
      <feComposite in="SourceGraphic"/>
    </filter>
    <clipPath id="clip-path">
      <g transform="matrix(1, 0, 0, 1, 0, 0)" filter="url(#Ellipse_5)">
        <circle id="Ellipse_5-2" data-name="Ellipse 5" cx="57" cy="57" r="57" transform="translate(-0.11 -0.11)" fill="#fff"/>
      </g>
    </clipPath>
    <clipPath id="clip-path-2">
      <rect id="Rectangle_14" data-name="Rectangle 14" width="113.778" height="113.881" fill="none"/>
    </clipPath>
    <clipPath id="clip-path-3">
      <rect id="Rectangle_10" data-name="Rectangle 10" width="77.496" height="77.495" fill="none"/>
    </clipPath>
  </defs>
  <g id="player4" transform="translate(-180 -314)">
    <g transform="matrix(1, 0, 0, 1, 180, 314)" filter="url(#Ellipse_4)">
      <g id="Ellipse_4-2" data-name="Ellipse 4" transform="translate(9 6)" fill="#fff" stroke="#00bbf9" stroke-width="3">
        <circle cx="64" cy="64" r="64" stroke="none"/>
        <circle cx="64" cy="64" r="62.5" fill="none"/>
      </g>
    </g>
    <g id="Mask_Group_1" data-name="Mask Group 1" transform="translate(196.111 327.111)" clip-path="url(#clip-path)">
      <g id="Group_15" data-name="Group 15" transform="translate(0 -0.103)">
        <g id="Group_14" data-name="Group 14" clip-path="url(#clip-path-2)">
          <path id="Path_124" data-name="Path 124" d="M63.083,93.211l9.7,6.876,9.7-6.876,9.7,6.876,9.7-6.876,9.7,6.876,9.7-6.876,9.7,6.876,8.738-6.194q-1.54-2.331-3.3-4.5l-5.441,3.857-9.7-6.876-9.7,6.876-9.7-6.876-9.7,6.876-9.7-6.876-9.7,6.876-9.7-6.876-9.7,6.876-5.445-3.858q-1.755,2.164-3.3,4.5l8.742,6.195Z" transform="translate(-35.294 -68.291)" fill="#848eff"/>
          <path id="Path_125" data-name="Path 125" d="M124.335,30.255l-9.7,6.876-9.7-6.876-9.7,6.876L86.82,31.167A57.172,57.172,0,0,0,73.034,41.983l2.8,1.982,9.7-6.876,9.7,6.876,9.7-6.876,9.7,6.876,9.7-6.876,9.7,6.876,9.7-6.876,9.7,6.876,2.793-1.98a57.167,57.167,0,0,0-13.784-10.816l-8.411,5.961Z" transform="translate(-57.743 -23.92)" fill="#848eff"/>
          <path id="Path_126" data-name="Path 126" d="M220.219,536.121q1.4.269,2.828.468l-1.745-1.237Z" transform="translate(-174.111 -423.264)" fill="#848eff"/>
          <path id="Path_127" data-name="Path 127" d="M136.026,429.984l-9.7-6.876-9.7,6.876-9.7-6.876-9.7,6.876-9.7-6.876-9.7,6.876-9.7-6.876-9.7,6.876-7.407-5.249a57.27,57.27,0,0,0,9.725,10.441l7.384-5.233,9.7,6.876,9.7-6.876,9.7,6.876,9.7-6.876,9.7,6.876,9.7-6.876,7.381,5.231a57.265,57.265,0,0,0,9.719-10.434Z" transform="translate(-40.332 -334.52)" fill="#848eff"/>
          <path id="Path_128" data-name="Path 128" d="M175.558,479.231l-9.7,6.876-9.7-6.876-9.7,6.876-9.7-6.876-9.7,6.876-9.7-6.876-4.071,2.885A56.716,56.716,0,0,0,130.5,490.5l6.262-4.438,9.46,6.705c.079,0,.157,0,.237,0s.163,0,.245,0l9.459-6.7,6.259,4.437a56.716,56.716,0,0,0,17.21-8.387Z" transform="translate(-89.564 -378.892)" fill="#848eff"/>
          <path id="Path_129" data-name="Path 129" d="M309.734,536.587q1.424-.2,2.825-.468l-1.082-.767Z" transform="translate(-244.884 -423.263)" fill="#848eff"/>
          <path id="Path_130" data-name="Path 130" d="M162.525,8.294l9.7-6.876,9.7,6.876,9.7-6.876,9.7,6.876,4.377-3.1a57.055,57.055,0,0,0-47.557,0Z" transform="translate(-125.034)" fill="#848eff"/>
          <path id="Path_131" data-name="Path 131" d="M122.779,366.986l-9.7,6.876-9.7-6.876-9.7,6.876-9.7-6.876-9.7,6.876-9.7-6.876-9.7,6.876-9.7-6.876-9.7,6.876-9.7-6.876-3.782,2.68q1.125,2.6,2.5,5.065l1.285-.911,9.7,6.875,9.7-6.876,9.7,6.876,9.7-6.876,9.7,6.876,9.7-6.876,9.7,6.876,9.7-6.876,9.7,6.876,9.7-6.876,1.283.909q1.369-2.46,2.5-5.065Z" transform="translate(-17.384 -290.148)" fill="#848eff"/>
          <path id="Path_132" data-name="Path 132" d="M113.689,142.5l-9.7,6.876-9.7-6.876-9.7,6.876-9.7-6.876-9.7,6.876-9.7-6.876-9.7,6.876-9.7-6.876-9.7,6.876-9.7-6.876-2.5,1.772a56.547,56.547,0,0,0-3.688,9.448l6.189-4.386,9.7,6.876,9.7-6.876,9.7,6.876,9.7-6.876,9.7,6.876,9.7-6.876,9.7,6.876,9.7-6.876,9.7,6.876,9.7-6.876,6.186,4.385a56.568,56.568,0,0,0-3.689-9.449Z" transform="translate(-8.294 -112.663)" fill="#848eff"/>
          <path id="Path_133" data-name="Path 133" d="M105.429,198.62l-9.7,6.876-9.7-6.876-9.7,6.876-9.7-6.876-9.7,6.876-9.7-6.876-9.7,6.876-9.7-6.876-9.7,6.876-9.7-6.876L.859,203.979a57.1,57.1,0,0,0-.815,7.412l8.376-5.936,9.7,6.876,9.7-6.876,9.7,6.876,9.7-6.876,9.7,6.876,9.7-6.876,9.7,6.876,9.7-6.876,9.7,6.876,9.7-6.876,8.374,5.936a57.1,57.1,0,0,0-.815-7.412Z" transform="translate(-0.035 -157.034)" fill="#848eff"/>
          <path id="Path_134" data-name="Path 134" d="M110.888,310.864l-9.7,6.876-9.7-6.876-9.7,6.876-9.7-6.876-9.7,6.876-9.7-6.876-9.7,6.876-9.7-6.876-9.7,6.876-9.7-6.876-6.931,4.911A56.527,56.527,0,0,0,8.6,321.442l5.283-3.744,9.7,6.875,9.7-6.876,9.7,6.876,9.7-6.876,9.7,6.876,9.7-6.876,9.7,6.876,9.7-6.876,9.7,6.876,9.7-6.876,5.28,3.743a56.5,56.5,0,0,0,1.648-5.666Z" transform="translate(-5.493 -245.777)" fill="#848eff"/>
          <path id="Path_135" data-name="Path 135" d="M105.394,254.742l-9.7,6.876-9.7-6.876-9.7,6.876-9.7-6.876-9.7,6.876-9.7-6.876-9.7,6.876-9.7-6.876-9.7,6.876-9.7-6.876L0,260.685a57.184,57.184,0,0,0,.615,6.4l7.77-5.507,9.7,6.876,9.7-6.876,9.7,6.876,9.7-6.876,9.7,6.876,9.7-6.876,9.7,6.876,9.7-6.876,9.7,6.876,9.7-6.876,7.768,5.506a57.225,57.225,0,0,0,.615-6.4Z" transform="translate(0 -201.406)" fill="#848eff"/>
        </g>
      </g>
    </g>
    <g id="Group_4" data-name="Group 4" transform="translate(214.252 347.421)">
      <g id="Group_1" data-name="Group 1" clip-path="url(#clip-path-3)">
        <path id="Path_1" data-name="Path 1" d="M38.748,0A38.764,38.764,0,0,0,1.961,26.548l0,.011q-.081.243-.158.488a.087.087,0,0,0,0,.014q-.4,1.254-.709,2.544s0,.005,0,.009q-.059.242-.114.486c-.006.029-.012.058-.02.086-.031.137-.061.275-.09.413-.009.041-.017.081-.026.121-.027.127-.053.255-.079.382-.009.046-.018.092-.027.138-.024.123-.047.247-.07.371-.01.048-.019.1-.027.145-.022.123-.044.247-.066.371l-.024.143c-.022.129-.043.259-.064.389-.006.041-.013.082-.02.124-.023.151-.046.3-.067.454,0,.02-.005.04-.009.059q-.073.519-.132,1.044c-.005.046-.01.092-.015.138l-.04.376c-.005.061-.012.122-.017.184-.011.112-.021.223-.031.334-.005.067-.011.135-.017.2-.008.106-.017.213-.024.319-.005.07-.011.141-.015.212-.007.1-.013.208-.02.311,0,.072-.009.145-.012.216-.005.1-.011.208-.015.313,0,.071-.007.143-.01.214,0,.108-.008.216-.012.324,0,.068,0,.137-.006.2,0,.119-.005.237-.008.356,0,.058,0,.115,0,.173q0,.265,0,.529A38.749,38.749,0,0,0,38.748,77.5c.181,0,.361,0,.541,0l.176,0,.365-.008.206-.007c.112,0,.223-.007.335-.012l.214-.009.331-.017.209-.012.344-.022.191-.013.4-.033.129-.011q.269-.023.536-.051l.077-.008.451-.05.165-.02.364-.045.185-.025.345-.048.187-.027.35-.053.174-.028.382-.064.137-.024q.528-.093,1.052-.2l.063-.014.452-.1.128-.029c.129-.028.259-.059.388-.089l.142-.034.38-.092.137-.035.4-.1.109-.029c.159-.043.317-.085.474-.129l.027-.008q.525-.148,1.045-.31l.015-.005q.243-.076.485-.156l.071-.023.434-.146.08-.027.434-.153.065-.024q.239-.086.478-.176l.011,0q1.018-.383,2.006-.821l.006,0c.162-.072.325-.145.485-.219l.009,0A38.753,38.753,0,0,0,38.748,0M64.142,65.2a4.093,4.093,0,0,1-2.118-.022c-1.883-.62-5.028,1.971-5.55,2.955a.819.819,0,0,1-1.389.114c-1.614-1.614-5.621-.192-6.508,1.3a1.093,1.093,0,0,1-1.824.044c-1.327-2.125-5.465-1.156-6.829-.02a1.6,1.6,0,0,1-2.374-.337c-1.1-1.767-4.168-2.374-6.133-1.555-.643.269-2.328.45-2.956-.317A5.609,5.609,0,0,0,25,65.611c-1.567-.28-1.937-.977-1.816-2.063a4.888,4.888,0,0,0-3.962-4.913,2.438,2.438,0,0,1-1.932-2.949c.81-2.481-1.961-5.533-3.954-5.7-1.069-.089-2.018-1.93-1.4-3.37.984-2.282-.8-5.957-2.373-6.525a2.294,2.294,0,0,1-1.106-3.377c1.235-2.021,1.25-4.828-.045-6.123C7.3,29.47,6.762,28.915,7.2,27.571a5.2,5.2,0,0,0,.368-3.53,4.533,4.533,0,0,1,.906-3.205c4.6-4.886,1.761-4.336,3.169-6.706.039-.066.075-.132.113-.2A36.666,36.666,0,1,1,64.142,65.2" transform="translate(0 0)" fill="#003566"/>
        <path id="Path_2" data-name="Path 2" d="M111.165,23.46A36.569,36.569,0,0,0,84.172,35.312c-.037.066-.074.132-.113.2-1.407,2.371,1.435,1.821-3.169,6.706a4.533,4.533,0,0,0-.906,3.205,5.2,5.2,0,0,1-.368,3.53c-.437,1.344.1,1.9,1.22,3.021,1.295,1.295,1.281,4.1.045,6.123a2.294,2.294,0,0,0,1.106,3.377c1.571.568,3.357,4.244,2.373,6.525-.622,1.44.328,3.281,1.4,3.37,1.993.165,4.763,3.217,3.954,5.7a2.438,2.438,0,0,0,1.932,2.949A4.888,4.888,0,0,1,95.6,84.927c-.121,1.085.249,1.783,1.816,2.063a5.609,5.609,0,0,1,3.458,1.745c.628.766,2.313.585,2.956.317,1.965-.819,5.031-.213,6.133,1.555a1.6,1.6,0,0,0,2.374.337c1.364-1.135,5.5-2.1,6.829.02a1.093,1.093,0,0,0,1.824-.044c.887-1.489,4.894-2.911,6.508-1.3a.819.819,0,0,0,1.389-.114c.521-.984,3.667-3.575,5.55-2.955a4.093,4.093,0,0,0,2.118.022A36.666,36.666,0,0,0,111.165,23.46m25.57,40.569c.086-2.3,1.5-4.19,2.944-4.19a2.056,2.056,0,0,1,1.809,1.271.453.453,0,0,1-.62.606,1.8,1.8,0,0,0-.874-.221c-1.117,0-2.217,1.1-2.755,2.657a.26.26,0,0,1-.505-.094c0-.01,0-.019,0-.028m-8.285,2a4.154,4.154,0,0,1,3.666-2.942,3.465,3.465,0,0,1,3.306,3.068.3.3,0,0,1-.545.216,3.327,3.327,0,0,0-2.834-1.623,3.917,3.917,0,0,0-3.006,1.605.339.339,0,0,1-.586-.325m-9.941-3.069a4.611,4.611,0,0,1,3.759-2.037,4.309,4.309,0,0,1,4.283,4.453.36.36,0,0,1-.7.126,4.443,4.443,0,0,0-4.169-2.914,4.621,4.621,0,0,0-2.674.871.36.36,0,0,1-.5-.5m-4.221-37.331a4.325,4.325,0,0,0,3.021-.7.45.45,0,0,1,.6-.07.845.845,0,0,1,.307.342c.261.607-1.056,1.187-2.98,1.117a8.813,8.813,0,0,1-1-.09.3.3,0,0,1,.054-.6M98.208,62.587a4.445,4.445,0,0,0-.647.046.42.42,0,0,1-.33-.738,4.189,4.189,0,0,1,2.709-.974,4.753,4.753,0,0,1,4.619,4.724,4.5,4.5,0,0,1-.729,2.535.42.42,0,0,1-.771-.251c0-.1.007-.2.005-.3a5.036,5.036,0,0,0-4.856-5.044M93.983,51.158a.391.391,0,0,1-.065-.752,3.886,3.886,0,0,1,5.213,4.072,4.923,4.923,0,0,1-1.473,3.416.391.391,0,0,1-.639-.418,5.308,5.308,0,0,0,.34-1.772,4.351,4.351,0,0,0-3.375-4.546m10.1-.477a.314.314,0,0,1-.116-.608,4.715,4.715,0,0,1,1.56-.3,4.546,4.546,0,0,1,4.652,4.572,4.655,4.655,0,0,1-.562,2.218.375.375,0,0,1-.7-.235,4.962,4.962,0,0,0,.059-.766,4.817,4.817,0,0,0-4.892-4.881m4.492-17.445a.347.347,0,0,1,.472-.495,2.556,2.556,0,0,1,1.236,2.158,3.44,3.44,0,0,1-1.971,2.826.347.347,0,0,1-.4-.56,3.278,3.278,0,0,0,1.174-2.371,2.588,2.588,0,0,0-.51-1.557m-.663,28.931a4.726,4.726,0,0,1,7.639,5.051.339.339,0,0,1-.656-.087,4.972,4.972,0,0,0-6.564-4.256.42.42,0,0,1-.419-.709m3.166-31.723a3.1,3.1,0,0,0,.411-.058c1.5-.373,2.5-1.27,2.393-2.191,0-.028-.008-.057-.012-.084a.3.3,0,0,1,.5-.27,1.453,1.453,0,0,1,.471.88c.133,1.133-1.54,2.226-3.744,2.222a.25.25,0,0,1-.022-.5m-6.266-4.6a.251.251,0,0,1,.254-.213q.259.007.537,0c1.786-.062,3.28-.624,3.606-1.179a.249.249,0,0,1,.272-.117c.606.14.988.367.987.675,0,.576-1.572,1.244-3.5,1.31a6.637,6.637,0,0,1-1.979-.2.25.25,0,0,1-.18-.278M101.3,30.772c1.721-.449,3.076-1.524,3.191-2.518a1.181,1.181,0,0,0-.073-.582.25.25,0,0,1,.312-.329c.789.265,1.264.76,1.184,1.432-.132,1.134-2.008,2.371-4.125,2.542-.141.012-.279.019-.413.02a.288.288,0,0,1-.076-.566m-.792,9.5a.221.221,0,0,1,.2-.2,3.632,3.632,0,0,1,4.1,3.713,4.434,4.434,0,0,1-1.346,2.948.421.421,0,0,1-.67-.495,4.477,4.477,0,0,0,.536-1.954,3.734,3.734,0,0,0-2.674-3.782.22.22,0,0,1-.153-.236M98.4,33.681a.473.473,0,0,1,.559-.7,2.122,2.122,0,0,1,1.477,2.365,4.907,4.907,0,0,1-3.48,3.563.347.347,0,0,1-.3-.617,4.633,4.633,0,0,0,2.075-3.021,2.33,2.33,0,0,0-.33-1.589m-5.5-2.15a5.025,5.025,0,0,0,2.567-2.48,1.419,1.419,0,0,0,.067-.483.526.526,0,0,1,.6-.544c.941.137,1.457.662,1.2,1.5-.361,1.174-2.269,2.563-4.135,2.9a.472.472,0,0,1-.3-.887m1.778,12.9A5.261,5.261,0,0,1,91.825,48.5a.362.362,0,0,1-.435-.558,5.447,5.447,0,0,0,1.28-2.969,3.235,3.235,0,0,0-1.426-3.218.362.362,0,0,1,.128-.669,2.841,2.841,0,0,1,3.3,3.343m-7.613-4.583a6,6,0,0,0,2.312-3.328,2.3,2.3,0,0,0-.2-1.688.429.429,0,0,1,.325-.65,1.761,1.761,0,0,1,2.035,2.333A5.707,5.707,0,0,1,87.6,40.448c-.1.02-.191.036-.282.047a.362.362,0,0,1-.258-.65m-4.09,10.03a.42.42,0,0,1-.405-.666A6.457,6.457,0,0,0,83.8,46.184a3.5,3.5,0,0,0-.467-2.467.667.667,0,0,1,.29-1,2.552,2.552,0,0,1,.28-.1c1.469-.409,2.6.857,2.335,2.948s-1.814,4.072-3.265,4.311m3.472,2.207a.419.419,0,0,1-.059-.736,2.842,2.842,0,0,1,1.193-.443c1.745-.215,3.249,1.515,3.163,3.915a4.812,4.812,0,0,1-2.213,4.027.42.42,0,0,1-.584-.544,5.789,5.789,0,0,0,.526-2.234,4.047,4.047,0,0,0-2.026-3.985m5.191,17.3a5.289,5.289,0,0,0,.074-1.053c-.062-2.313-1.611-4.432-3.582-4.788a.6.6,0,0,1-.263-1.06,3.062,3.062,0,0,1,1.913-.658c2.041,0,3.9,2.051,3.966,4.536a4.19,4.19,0,0,1-1.43,3.42.419.419,0,0,1-.678-.4m.985,4.536A.6.6,0,0,1,92.07,73a3.232,3.232,0,0,1,3.059-1.471,5,5,0,0,1,4.46,4.459,3.266,3.266,0,0,1-1.177,2.847.361.361,0,0,1-.583-.252,5.234,5.234,0,0,0-5.21-4.671M104.3,86.628a.358.358,0,0,1-.277.027.363.363,0,0,1-.214-.179,5.414,5.414,0,0,0-4.33-2.681,4.651,4.651,0,0,0-1.447.112.36.36,0,0,1-.443-.307c-.206-1.72,1.375-3.019,3.575-2.86,2.308.161,4.34,1.88,4.452,3.631a2.324,2.324,0,0,1-1.316,2.258M104.127,74.4a4.738,4.738,0,0,0-2.074.417.36.36,0,0,1-.477-.475,4.189,4.189,0,0,1,3.993-2.359,4.636,4.636,0,0,1,4.652,4.353,3.158,3.158,0,0,1-.638,2.1.36.36,0,0,1-.638-.153,5,5,0,0,0-4.818-3.877m11.491,10.028a2.713,2.713,0,0,1-.822,1.745.36.36,0,0,1-.56-.062,4.657,4.657,0,0,0-3.97-1.932,5.28,5.28,0,0,0-2.505.607.359.359,0,0,1-.529-.283c0-.025,0-.051-.006-.076-.113-1.749,1.764-3.331,4.2-3.328s4.309,1.579,4.2,3.328m.153-9.394a5.149,5.149,0,0,0-2.988,1.035.36.36,0,0,1-.554-.41,4.8,4.8,0,0,1,4.413-3.042,3.888,3.888,0,0,1,4.093,5.159.36.36,0,0,1-.678.006,4.365,4.365,0,0,0-4.286-2.748m8.712,12.044a.36.36,0,0,1-.576.042,3.73,3.73,0,0,0-3.167-1.111,5.686,5.686,0,0,0-3.217,1.316.36.36,0,0,1-.588-.218c-.3-1.908,1.883-3.975,4.433-4.153,2.9-.209,4.443,2.031,3.115,4.125m-1.157-11.361a.36.36,0,0,1-.625-.309,5.031,5.031,0,0,1,4.38-3.883,3.261,3.261,0,0,1,3.48,4.091.26.26,0,0,1-.486.069,3.364,3.364,0,0,0-3.327-1.775,5.064,5.064,0,0,0-3.421,1.806m9.809,6.9a.36.36,0,0,1-.547.147,2.733,2.733,0,0,0-2.115-.406,5.877,5.877,0,0,0-3.421,2.063.36.36,0,0,1-.623-.132,2.357,2.357,0,0,1-.034-1.054,5.412,5.412,0,0,1,4.228-3.861c2.221-.35,3.336,1.295,2.512,3.243m-.645-6.752a.26.26,0,0,1-.494-.1,4.432,4.432,0,0,1,.023-.678c.237-2.16,2.01-4.187,3.758-4.4,1.631-.2,2.642,1.1,2.57,2.894a.261.261,0,0,1-.175.235.258.258,0,0,1-.282-.076,2.17,2.17,0,0,0-2-.724,4.9,4.9,0,0,0-3.4,2.852m7.4,5.515c-.02.09-.044.178-.071.267a.361.361,0,0,1-.452.24,1.843,1.843,0,0,0-1.06.027,5.964,5.964,0,0,0-3.061,2.663.359.359,0,0,1-.63-.023,2.272,2.272,0,0,1-.086-1.537,5.967,5.967,0,0,1,3.544-3.978c1.473-.413,2.2.686,1.816,2.34m4.2-9.664a.483.483,0,0,1-.425.106,1.179,1.179,0,0,0-.536.007c-1,.225-2.118,1.666-2.625,3.373a.26.26,0,0,1-.5-.022,4.327,4.327,0,0,1-.028-1.422c.255-2.01,1.568-3.927,2.718-4.182.893-.2,1.449.543,1.561,1.733a.48.48,0,0,1-.161.407m2.073-9.554a.444.444,0,0,1-.36.176h-.012c-.723,0-1.492,1.213-1.791,2.852a.3.3,0,0,1-.311.239.3.3,0,0,1-.281-.279,7.068,7.068,0,0,1-.007-.717c.078-2.056.985-3.741,1.821-3.74.448,0,.791.413,1,1.073a.435.435,0,0,1-.064.4m.125-8.154c-.545.159-.963,1.494-.9,3.2a.215.215,0,0,1-.426.049,8.763,8.763,0,0,1-.154-1.371c-.07-1.924.511-3.241,1.118-2.98a1.258,1.258,0,0,1,.554.7.3.3,0,0,1-.191.4" transform="translate(-72.417 -21.379)" fill="#fff"/>
        <path id="Path_3" data-name="Path 3" d="M370.967,33.9c0,.576-1.572,1.244-3.5,1.31a6.638,6.638,0,0,1-1.979-.2.25.25,0,0,1,.074-.49c.173,0,.352,0,.536,0,1.786-.062,3.28-.624,3.606-1.179a.248.248,0,0,1,.272-.117c.606.14.988.367.987.675" transform="translate(-332.912 -30.27)" fill="#003566"/>
        <path id="Path_4" data-name="Path 4" d="M469.892,39.833a8.811,8.811,0,0,1-1-.09.3.3,0,0,1,.054-.6,4.325,4.325,0,0,0,3.022-.7.45.45,0,0,1,.595-.07.845.845,0,0,1,.307.342c.261.607-1.056,1.187-2.98,1.117" transform="translate(-427.076 -34.895)" fill="#003566"/>
        <path id="Path_5" data-name="Path 5" d="M232.677,76.37c-.361,1.174-2.269,2.563-4.135,2.9a.472.472,0,0,1-.3-.887,5.025,5.025,0,0,0,2.567-2.48,1.419,1.419,0,0,0,.067-.483.526.526,0,0,1,.6-.544c.941.137,1.457.662,1.2,1.5" transform="translate(-207.765 -68.227)" fill="#003566"/>
        <path id="Path_6" data-name="Path 6" d="M328.119,68.547c-.132,1.134-2.008,2.371-4.125,2.542-.141.012-.279.019-.413.02a.288.288,0,0,1-.076-.566c1.721-.449,3.076-1.524,3.191-2.518a1.181,1.181,0,0,0-.073-.582.25.25,0,0,1,.312-.329c.789.265,1.264.76,1.184,1.432" transform="translate(-294.62 -61.151)" fill="#003566"/>
        <path id="Path_7" data-name="Path 7" d="M433.668,75.084a.25.25,0,0,1-.022-.5,3.092,3.092,0,0,0,.411-.058c1.5-.373,2.5-1.27,2.393-2.191,0-.028-.008-.057-.012-.084a.3.3,0,0,1,.5-.27,1.454,1.454,0,0,1,.471.88c.133,1.133-1.541,2.226-3.744,2.222" transform="translate(-394.98 -65.522)" fill="#003566"/>
        <path id="Path_8" data-name="Path 8" d="M436.242,107.824Z" transform="translate(-397.554 -98.262)" fill="#003566"/>
        <path id="Path_9" data-name="Path 9" d="M168.1,146.5a5.707,5.707,0,0,1-3.937,3.936c-.1.02-.191.036-.282.047a.362.362,0,0,1-.258-.65,6,6,0,0,0,2.312-3.328,2.3,2.3,0,0,0-.2-1.688.429.429,0,0,1,.325-.65A1.761,1.761,0,0,1,168.1,146.5" transform="translate(-148.976 -131.369)" fill="#003566"/>
        <path id="Path_10" data-name="Path 10" d="M275.534,132.872a4.907,4.907,0,0,1-3.48,3.563.347.347,0,0,1-.3-.617,4.634,4.634,0,0,0,2.075-3.021,2.331,2.331,0,0,0-.33-1.589.473.473,0,0,1,.559-.7,2.122,2.122,0,0,1,1.478,2.365" transform="translate(-247.515 -118.907)" fill="#003566"/>
        <path id="Path_11" data-name="Path 11" d="M401.48,129.674a3.44,3.44,0,0,1-1.971,2.826.347.347,0,0,1-.4-.561,3.278,3.278,0,0,0,1.174-2.371,2.588,2.588,0,0,0-.51-1.557.347.347,0,0,1,.472-.495,2.556,2.556,0,0,1,1.236,2.158" transform="translate(-363.609 -116.155)" fill="#003566"/>
        <path id="Path_12" data-name="Path 12" d="M117.25,241.622c-.256,2.091-1.814,4.071-3.265,4.311a.42.42,0,0,1-.405-.666,6.457,6.457,0,0,0,1.233-3.025,3.5,3.5,0,0,0-.467-2.467.667.667,0,0,1,.29-1,2.564,2.564,0,0,1,.28-.1c1.469-.409,2.6.857,2.335,2.948" transform="translate(-103.431 -217.438)" fill="#003566"/>
        <path id="Path_13" data-name="Path 13" d="M213.9,225.112a5.262,5.262,0,0,1-2.849,4.071.362.362,0,0,1-.434-.558,5.448,5.448,0,0,0,1.28-2.969,3.235,3.235,0,0,0-1.426-3.218.362.362,0,0,1,.128-.669,2.841,2.841,0,0,1,3.3,3.343" transform="translate(-191.645 -202.064)" fill="#003566"/>
        <path id="Path_14" data-name="Path 14" d="M321.072,214.427a4.434,4.434,0,0,1-1.346,2.948.421.421,0,0,1-.67-.495,4.478,4.478,0,0,0,.536-1.954,3.734,3.734,0,0,0-2.674-3.782.221.221,0,0,1,.05-.431,3.632,3.632,0,0,1,4.1,3.713" transform="translate(-288.671 -192.016)" fill="#003566"/>
        <path id="Path_15" data-name="Path 15" d="M159.883,336.629a4.812,4.812,0,0,1-2.213,4.027.42.42,0,0,1-.584-.544,5.789,5.789,0,0,0,.526-2.234,4.047,4.047,0,0,0-2.026-3.986.419.419,0,0,1-.059-.736,2.841,2.841,0,0,1,1.193-.443c1.745-.216,3.249,1.515,3.163,3.915" transform="translate(-141.559 -303.191)" fill="#003566"/>
        <path id="Path_16" data-name="Path 16" d="M245.024,328.877a4.923,4.923,0,0,1-1.473,3.416.391.391,0,0,1-.639-.418,5.311,5.311,0,0,0,.34-1.772,4.351,4.351,0,0,0-3.375-4.546.391.391,0,0,1-.065-.752,3.886,3.886,0,0,1,5.213,4.072" transform="translate(-218.309 -295.779)" fill="#003566"/>
        <path id="Path_17" data-name="Path 17" d="M359.929,324.733a4.654,4.654,0,0,1-.562,2.218.375.375,0,0,1-.7-.235,4.965,4.965,0,0,0,.059-.766,4.817,4.817,0,0,0-4.892-4.881.314.314,0,0,1-.116-.608,4.717,4.717,0,0,1,1.56-.3,4.546,4.546,0,0,1,4.651,4.572" transform="translate(-322.163 -291.767)" fill="#003566"/>
        <path id="Path_18" data-name="Path 18" d="M817.879,356.1a.3.3,0,0,1-.186.159c-.545.159-.963,1.494-.9,3.2a.215.215,0,0,1-.426.049,8.775,8.775,0,0,1-.154-1.371c-.07-1.924.511-3.241,1.118-2.98a1.258,1.258,0,0,1,.554.7.3.3,0,0,1,0,.246" transform="translate(-743.82 -323.626)" fill="#003566"/>
        <path id="Path_19" data-name="Path 19" d="M822.813,404Z" transform="translate(-749.842 -368.172)" fill="#003566"/>
        <path id="Path_20" data-name="Path 20" d="M176.261,463.946a.419.419,0,0,1-.678-.4,5.281,5.281,0,0,0,.074-1.053c-.062-2.313-1.611-4.432-3.582-4.788a.6.6,0,0,1-.263-1.06,3.062,3.062,0,0,1,1.913-.658c2.041,0,3.9,2.051,3.966,4.536a4.19,4.19,0,0,1-1.43,3.42" transform="translate(-156.365 -415.551)" fill="#003566"/>
        <path id="Path_21" data-name="Path 21" d="M285.583,450.594a4.5,4.5,0,0,1-.729,2.536.42.42,0,0,1-.771-.251c0-.1.007-.2.005-.3a5.036,5.036,0,0,0-4.857-5.044,4.43,4.43,0,0,0-.647.046.42.42,0,0,1-.33-.738,4.189,4.189,0,0,1,2.709-.974,4.753,4.753,0,0,1,4.619,4.724" transform="translate(-253.441 -406.328)" fill="#003566"/>
        <path id="Path_22" data-name="Path 22" d="M406.51,452.367a.339.339,0,0,1-.656-.087,4.972,4.972,0,0,0-6.564-4.256.42.42,0,0,1-.419-.708,4.726,4.726,0,0,1,7.639,5.052" transform="translate(-363.371 -406.529)" fill="#003566"/>
        <path id="Path_23" data-name="Path 23" d="M527.128,450.323a.36.36,0,0,1-.7.126,4.443,4.443,0,0,0-4.169-2.914,4.621,4.621,0,0,0-2.674.871.36.36,0,0,1-.5-.5,4.611,4.611,0,0,1,3.759-2.037,4.309,4.309,0,0,1,4.284,4.453" transform="translate(-472.993 -406.328)" fill="#003566"/>
        <path id="Path_24" data-name="Path 24" d="M638.415,473.681a.3.3,0,0,1-.362-.117,3.327,3.327,0,0,0-2.834-1.623,3.917,3.917,0,0,0-3.006,1.605.339.339,0,0,1-.586-.325,4.154,4.154,0,0,1,3.666-2.942,3.466,3.466,0,0,1,3.306,3.068.3.3,0,0,1-.183.333" transform="translate(-575.593 -428.573)" fill="#003566"/>
        <path id="Path_25" data-name="Path 25" d="M729.907,435.463a.455.455,0,0,1-.534.073,1.8,1.8,0,0,0-.873-.221c-1.117,0-2.217,1.1-2.755,2.657a.26.26,0,0,1-.505-.094c0-.01,0-.019,0-.028.086-2.3,1.5-4.19,2.944-4.19a2.056,2.056,0,0,1,1.809,1.271.454.454,0,0,1-.086.532" transform="translate(-660.921 -395.201)" fill="#003566"/>
        <path id="Path_26" data-name="Path 26" d="M803.132,444.789a.444.444,0,0,1-.36.175h-.012c-.723,0-1.491,1.213-1.79,2.852a.3.3,0,0,1-.311.239.3.3,0,0,1-.281-.279,7.127,7.127,0,0,1-.007-.717c.078-2.056.985-3.741,1.821-3.74.448,0,.791.413,1,1.073a.435.435,0,0,1-.064.4" transform="translate(-729.385 -404.004)" fill="#003566"/>
        <path id="Path_27" data-name="Path 27" d="M227.03,572.716a.361.361,0,0,1-.583-.252,5.234,5.234,0,0,0-5.21-4.671.6.6,0,0,1-.549-.912,3.232,3.232,0,0,1,3.059-1.471,5,5,0,0,1,4.46,4.459,3.266,3.266,0,0,1-1.177,2.847" transform="translate(-201.035 -515.26)" fill="#003566"/>
        <path id="Path_28" data-name="Path 28" d="M337.111,574.992a3.158,3.158,0,0,1-.638,2.1.359.359,0,0,1-.638-.153,5,5,0,0,0-4.818-3.877,4.737,4.737,0,0,0-2.074.417.36.36,0,0,1-.477-.475,4.188,4.188,0,0,1,3.993-2.359,4.636,4.636,0,0,1,4.652,4.353" transform="translate(-299.307 -520.031)" fill="#003566"/>
        <path id="Path_29" data-name="Path 29" d="M457.41,581.888a3.984,3.984,0,0,1-.215,1.06.36.36,0,0,1-.677.006,4.365,4.365,0,0,0-4.286-2.748,5.149,5.149,0,0,0-2.988,1.035.36.36,0,0,1-.554-.41,4.8,4.8,0,0,1,4.413-3.042,4,4,0,0,1,4.307,4.1" transform="translate(-408.878 -526.547)" fill="#003566"/>
        <path id="Path_30" data-name="Path 30" d="M574.774,569.5a.26.26,0,0,1-.486.069,3.364,3.364,0,0,0-3.328-1.775,5.064,5.064,0,0,0-3.422,1.806.36.36,0,0,1-.625-.309,5.031,5.031,0,0,1,4.38-3.883,3.261,3.261,0,0,1,3.48,4.091" transform="translate(-516.631 -515.26)" fill="#003566"/>
        <path id="Path_31" data-name="Path 31" d="M678.109,558.648a.26.26,0,0,1-.175.235.257.257,0,0,1-.282-.076,2.17,2.17,0,0,0-2-.724,4.9,4.9,0,0,0-3.4,2.852.26.26,0,0,1-.494-.1,4.453,4.453,0,0,1,.023-.678c.237-2.16,2.01-4.187,3.758-4.4,1.631-.2,2.642,1.1,2.57,2.894" transform="translate(-612.179 -506.449)" fill="#003566"/>
        <path id="Path_32" data-name="Path 32" d="M765.431,545.285a.485.485,0,0,1-.425.107,1.174,1.174,0,0,0-.536.007c-1,.225-2.118,1.666-2.625,3.373a.26.26,0,0,1-.5-.022,4.326,4.326,0,0,1-.028-1.422c.255-2.01,1.568-3.927,2.718-4.182.893-.2,1.449.542,1.561,1.733a.481.481,0,0,1-.161.407" transform="translate(-693.756 -494.947)" fill="#003566"/>
        <path id="Path_33" data-name="Path 33" d="M290.316,675.094a.359.359,0,0,1-.277.027.363.363,0,0,1-.214-.179,5.414,5.414,0,0,0-4.331-2.681,4.657,4.657,0,0,0-1.447.112.359.359,0,0,1-.443-.307c-.206-1.721,1.375-3.019,3.575-2.86,2.308.161,4.34,1.88,4.452,3.631a2.323,2.323,0,0,1-1.316,2.258" transform="translate(-258.437 -609.845)" fill="#003566"/>
        <path id="Path_34" data-name="Path 34" d="M400.843,676.778a2.712,2.712,0,0,1-.822,1.745.36.36,0,0,1-.559-.062,4.657,4.657,0,0,0-3.97-1.932,5.281,5.281,0,0,0-2.505.607.359.359,0,0,1-.529-.283c0-.025,0-.051-.006-.076-.113-1.749,1.764-3.331,4.2-3.328s4.309,1.58,4.2,3.328" transform="translate(-357.642 -613.725)" fill="#003566"/>
        <path id="Path_35" data-name="Path 35" d="M509.232,698.335a.36.36,0,0,1-.576.042,3.73,3.73,0,0,0-3.167-1.111,5.686,5.686,0,0,0-3.217,1.316.36.36,0,0,1-.588-.218c-.3-1.908,1.883-3.975,4.433-4.153,2.9-.209,4.443,2.031,3.115,4.125" transform="translate(-457.166 -632.632)" fill="#003566"/>
        <path id="Path_36" data-name="Path 36" d="M614.937,656.707a.36.36,0,0,1-.547.147,2.732,2.732,0,0,0-2.115-.406,5.876,5.876,0,0,0-3.421,2.063.36.36,0,0,1-.623-.132,2.356,2.356,0,0,1-.034-1.054,5.412,5.412,0,0,1,4.229-3.861c2.221-.35,3.336,1.295,2.511,3.243" transform="translate(-554.22 -595.468)" fill="#003566"/>
        <path id="Path_37" data-name="Path 37" d="M704.826,651.633c-.021.09-.044.178-.071.267a.36.36,0,0,1-.452.24,1.842,1.842,0,0,0-1.06.028,5.964,5.964,0,0,0-3.061,2.663.359.359,0,0,1-.63-.023,2.272,2.272,0,0,1-.086-1.537,5.967,5.967,0,0,1,3.544-3.978c1.473-.413,2.2.686,1.816,2.34" transform="translate(-637.352 -591.631)" fill="#003566"/>
      </g>
    </g>
  </g>
</svg>
