<svg xmlns="http://www.w3.org/2000/svg" width="54" height="43.2" viewBox="0 0 54 43.2">
  <path id="user-plus-solid" d="M8.1,10.8A10.8,10.8,0,1,1,18.9,21.6,10.8,10.8,0,0,1,8.1,10.8ZM0,40.694A15.041,15.041,0,0,1,15.044,25.65h7.712A15.041,15.041,0,0,1,37.8,40.694,2.506,2.506,0,0,1,35.294,43.2H2.506A2.506,2.506,0,0,1,0,40.694ZM42.525,26.325v-5.4h-5.4a2.025,2.025,0,0,1,0-4.05h5.4v-5.4a2.025,2.025,0,1,1,4.05,0v5.4h5.4a2.025,2.025,0,0,1,0,4.05h-5.4v5.4a2.025,2.025,0,1,1-4.05,0Z" fill="#003566"/>
</svg>
