<?xml version="1.0" encoding="UTF-8"?>
<svg xmlns="http://www.w3.org/2000/svg" xmlns:xlink="http://www.w3.org/1999/xlink" version="1.1" viewBox="0 0 480.3 492.2">
  <defs>
    <style>
      .cls-1 {
        fill: none;
      }

      .cls-2 {
        fill: #003566;
      }

      .cls-3 {
        clip-path: url(#clippath);
      }
    </style>
    <clipPath id="clippath">
      <rect class="cls-1" width="480.3" height="492.2"/>
    </clipPath>
  </defs>
  <!-- Generator: Adobe Illustrator 28.6.0, SVG Export Plug-In . SVG Version: 1.2.0 Build 709)  -->
  <g>
    <g id="logo">
      <g class="cls-3">
        <g id="Group_16">
          <path id="Path_136" class="cls-2" d="M77.2,1.9l47.8,67.8h-22.9L60.9,14.7c-1.8-2.1-1.8-4.6,0-5.7l10.6-7.8c1.7-1.4,4.2-1.1,5.6.6,0,0,0,0,0,0"/>
          <path id="Path_137" class="cls-2" d="M458.8,438.7c-.4,5.7-4.9,11-9.2,13.1-4.2,2.5-13.1,4.9-30.8,7.4-21.9,2.8-27.2,2.8-31.5,3.2-1.9,0-3.9-.3-5.7-1.1-.3,0-.5-.2-.7-.4-2.6-.9-4.9-2.2-7.1-3.9-3.8-3.3-7.2-6.9-10.2-11l-19.8-27.2-6.4-10.2q0-.4.4-.7l-15.9-21.9h12.5l10.8,14.8h.7l7.8,9.5,19.8,27.2s2.1,3.2,5,2.8c2.5-.4,3.9-3.2,4.9-4.2.7-1.1,8.8-6.4,18.7-12.4,9.9-6.4,18-10.6,18-10.6,0,0,11.3-6.7,17.3-7.4,3.4-.5,6.8.4,9.6,2.5,2.5,2.1,5.3,5.3,7.8,11.3,2.8,6,4.1,12.5,3.9,19.1"/>
          <path id="Path_138" class="cls-2" d="M138.2,401l-16.1,22.2q.4.4.4.7l-6.4,10.2-19.8,27.2c-3,4-6.4,7.7-10.2,11-2.2,1.5-4.6,2.8-7.1,3.9-.2.2-.4.3-.7.4-.7,0-2.8,1.1-5.7,1.1-4.2,0-9.5,0-31.5-3.2-17.3-2.5-26.5-4.9-30.8-7.4-4.6-2.1-8.8-7.4-9.2-13.1s1.1-13.8,3.9-19.1c2.5-6,4.9-8.8,7.8-11.3,2.7-2.1,6.2-3,9.5-2.5,6,.7,17.3,7.4,17.3,7.4,0,0,8.1,4.2,18,10.6,9.9,6,17.7,11.3,18.7,12.4s2.8,3.9,4.9,4.2c2.5.4,5-2.8,5-2.8l19.8-27.2,7.8-9.5h.7l11-15.1h12.6Z"/>
          <path id="Path_139" class="cls-2" d="M427.9,15l-81.6,95.9h-14.3L411.6,1.6c1.3-1.8,3.8-2.1,5.6-.8,0,0,0,0,0,0l10.6,7.8c1.8,1.4,1.8,3.9,0,6.4"/>
          <path id="Path_140" class="cls-2" d="M92.9,129.7c-.2,1.1-.6,2.2-1.3,3.1-.7,1.2-1.6,2.2-2.6,3.2-.7.8-1.7,1.3-2.8,1.5-.3,0-.5,0-.8,0-4.1-1.3-9.3-1.7-15.3-1.3-6.1.6-12.2,1.7-18.2,3.2-.2,0-.4.1-.7.1-1.1,0-1.5-.4-1.4-1.5.2-1,.5-2,1.1-2.9.5-.9,1-1.8,1.7-2.7l31.4-38.8c-1.3-.3-2.7-.4-4.1-.3-3,.3-5.9,1.2-8.6,2.7-2.3,1.1-4.6,2.5-6.7,4.1-1.8,1.2-3.2,2.9-4.1,4.9-.5,1.3-1.3,2.6-2.2,3.7-.7,1.1-1.8,1.9-3.1,2.3-.8.2-1.4.1-1.7-.3-.3-.5-.5-1.1-.4-1.6,0-.5.2-1,.4-1.5,1.6-4,4-7.6,7.1-10.7,3.4-3.6,7.3-6.6,11.5-9.1,3.8-2.3,8-3.7,12.4-4.2,3-.3,6,.3,8.7,1.7.3.2.5.5.6.8.1.3.2.6.1.9,0,.3-.1.7-.3,1-.3,1-.8,1.9-1.4,2.7-.6.9-1.3,1.8-2.1,2.5-12.8,15.7-22.3,27.5-28.6,35.4,4.4-1,8.9-1.7,13.4-2.1,6.6-.5,12.3,0,17,1.5.6.1.9.7.8,1.6"/>
          <path id="Path_141" class="cls-2" d="M115.2,80.8c1.9-1.1,4.1-1.8,6.3-2,3.4-.3,6.8.9,9.2,3.3,3.9,3.8,5.4,9,4.7,15.6-.4,3.1-1.1,6.1-2.3,9-1.2,3-2.7,6-4.4,8.7-.8,1.4-1.7,2.7-2.7,3.9l1.1,2c.1.3.2.7.1,1-.2,1.2-.7,2.4-1.5,3.4-.9,1.3-1.9,2.5-3,3.6-.7.8-1.6,1.4-2.6,1.7-.3,0-.6-.1-.7-.4-.1-.3-.3-.6-.5-.9-.2-.3-.4-.7-.7-1.2-5.2,5.2-9.7,8-13.4,8.3-1.1.1-2.3,0-3.3-.5-3.4-1.5-4.8-6-3.9-13.3.2-1.4.5-3.6,1.1-6.8,1.1-6,2.6-11.9,4.5-17.7l-.6-1.4-1.7-4.3c0-.3-.1-.6,0-.8.2-1.2.8-2.4,1.5-3.4.9-1.3,1.9-2.6,3.1-3.7.7-.8,1.6-1.4,2.6-1.7.3,0,.5.1.6.4.1.3.2.6.4,1s.3.6.4,1c1.7-1.8,3.6-3.4,5.8-4.6M114.6,121.9c-2.1-3.8-4.1-7.8-6.1-12-.2,1.3-.4,2.2-.6,3-.3,1.9-.5,3.4-.6,4.5-.3,2-.3,3.9,0,5.9,0,.5.1,1.1.3,1.6.2.4.4.8.7,1.2,0,0,0,0,.2,0,.2,0,.4,0,.5,0,2.1-1,4.1-2.3,5.7-4M122.2,112.3c2-3,3.3-6.5,3.8-10.1.2-1.8,0-3.6-.3-5.3-.5-2.1-1.7-3.9-3.3-5.4-1.3-1.4-3.2-2.2-5.2-2.1-1.2.1-2.3.7-3.1,1.5l-.4,1.3c0,0,0,.1,0,.1h0c0,.2-.2.4-.3.7l-.3.9c2.8,6,5.9,12.1,9.2,18.3"/>
          <path id="Path_142" class="cls-2" d="M180.5,122.6c-.2,1.1-.6,2.2-1.3,3.1-.7,1.2-1.6,2.2-2.6,3.2-.7.8-1.7,1.3-2.8,1.5-.3,0-.5,0-.8,0-4.1-1.3-9.3-1.7-15.3-1.3-6.1.6-12.2,1.7-18.2,3.2-.2,0-.4.1-.7.1-1.1,0-1.5-.4-1.4-1.5.2-1,.5-2,1.1-2.9.5-.9,1-1.8,1.7-2.7l31.4-38.8c-1.3-.3-2.7-.4-4.1-.3-3,.3-5.9,1.2-8.6,2.7-2.3,1.1-4.6,2.5-6.7,4.1-1.8,1.2-3.2,2.9-4.1,4.9-.5,1.3-1.3,2.6-2.2,3.7-.7,1.1-1.8,1.9-3.1,2.3-.8.2-1.4.1-1.7-.3-.3-.5-.5-1.1-.4-1.6,0-.5.2-1,.4-1.5,1.6-4,4-7.6,7.1-10.7,3.4-3.6,7.3-6.6,11.5-9.1,3.8-2.3,8-3.7,12.4-4.2,3-.3,6,.3,8.7,1.7.3.2.5.5.6.8.1.3.2.6.1.9,0,.3-.1.7-.3,1-.3,1-.8,1.9-1.4,2.7-.6.9-1.3,1.8-2.1,2.5-12.8,15.7-22.3,27.5-28.6,35.4,4.4-1,8.9-1.7,13.4-2.1,6.6-.5,12.3,0,17,1.5.6.1.9.7.8,1.6"/>
          <path id="Path_144" class="cls-2" d="M199.6,161.3c-.5,4.5-5,10.7-13.5,18.5s-20.5,17.8-35.9,30c-8,6.4-14.1,11.3-18.2,14.7-4.1,3.4-6.7,6-7.8,7.7-.8,1.3-1.4,2.6-1.8,4.1-.4,1.6-.7,3.2-.9,4.8-.1,1.4-.4,2.8-.7,4.2-1.6,6.2-3.2,11.7-4.9,16.4-1.5,4.3-3.3,8.5-5.3,12.5-1.9,3.6-4.2,7-7.1,9.9-1.9,2.1-4,4-6.3,5.6-1.8,1.5-4,2.5-6.4,2.8-4.3.3-6.1-2.9-5.3-9.8.3-2.7.8-5.3,1.5-7.9.8-3,1.3-4.9,1.5-5.8l1.6-6.1c-3.1,2.5-5.7,3.8-8,4-1.2.2-2.5-.2-3.3-1.2-.7-1.2-.9-2.7-.7-4,.4-2.8,1.4-5.5,3-7.9,2-3.1,4.4-6,7-8.6,2.6-2.8,4.4-5,5.6-6.5,1.1-1.5,2-3.2,2.5-5,1.7-6.1,2.9-12.3,3.6-18.6.5-4.2.7-8.4.7-12.5,0-2.9-.3-5.8-.7-8.7,0-.6-.2-2.5-.5-5.6-.3-2.9-.3-5.9,0-8.9,1.5-13.3,9.9-20.6,25.2-21.8,1.7-.1,4.1-.2,7.4-.2,8.1,0,17.8-.2,29.1-.9l5.9-.3,14-1.3c8-.6,13.6,0,16.7,1.8,1.5.9,2.3,2.6,2,4.3M156.3,184.4c-6.6.2-16.4.1-29.5,0,0,9.5-.3,18.2-.9,26.2,11.4-10.4,21.5-19.1,30.4-26.1"/>
          <path id="Path_145" class="cls-2" d="M308.1,127.7c.5,1.2.8,2.6.8,3.9-.3,3-1.3,5.9-2.8,8.4-1.9,3.8-4.5,7.2-7.5,10.1-2.6,2.8-6.1,4.7-9.8,5.4-6.5,1.4-11,2.4-13.6,3,1.9,7.1,3,14.4,3.4,21.7.5,5.4.7,10.9.6,16.4-.1,3.5-.3,6.2-.5,8.1-.2,1.8-.6,4.5-1.3,8.3-2.3,14-5.1,25.1-8.3,33.5-2.1,5.7-4.7,11.2-7.7,16.5-2.2,3.9-4.2,7.1-6,9.7-1.8,2.5-3.8,4.8-6.1,6.9l-5.9,5.3-3.9,2.4c-1.6,1.2-3.5,2-5.5,2.1-.6.3-1.3.4-2,.5-4.6.2-9.1-.6-13.4-2.3-3.1-1.5-6-3.3-8.7-5.4-2.7-2.1-5.9-4.8-9.7-8.3l-18.4-16.4c-1.5-1.4-2.1-3.4-1.8-6,.4-3.6,2.4-7.9,6-12.8,3.7-5,7.5-8.4,11.4-10.2,1-.5,2-.9,3.1-1,1-.1,2,0,3,.5l13.3,12.7,4.1,3.8c3.6,3.4,7.4,6.6,11.3,9.5,3.2,2.4,6.8,4.2,10.7,5.3.4.1.7.2,1.1.1.8-1.4,1.4-2.8,2-4.3,2.6-6.9,4.7-13.9,6.3-21,1.3-6.1,2.2-11.6,2.8-16.4.3-2.9.5-5,.5-6.4v-3.9c.2-7.7,0-13.5-.2-17.5-.7-7.4-2.5-14.7-5.5-21.6-.4-1.1-.6-2.3-.4-3.5l-2.7.6c-11.5,3.7-20.2,6.5-25.9,8.4-.4.2-.8.3-1.3.5-.5.2-1.1.3-1.6.3-1.5.2-3-.7-3.5-2.1-.3-1.1-.3-2.2-.2-3.3.2-1,.4-1.9.7-2.9,1.5-4.5,4-8.5,7.4-11.8,1.9-2,4.1-3.6,6.6-4.8,8.4-2.9,14.7-5.2,18.9-6.7,1.9-.8,3.8-1.4,5.7-2,4.7-1.7,8.6-3,11.4-3.9,13.2-3.9,26.3-7.6,39.3-11l.8-.2c1.3-.2,2.5.5,2.9,1.7"/>
          <path id="Path_146" class="cls-2" d="M395.5,232.2l1.6,4c1.2,2.4,2.3,4.8,3.2,7.3.7,2,.9,4.1.6,6.2-.4,3.3-2.1,6.7-5.3,10.4-2.8,3.4-6.2,6.2-10,8.4-2,1.2-4.3,2-6.7,2.2-3.8.3-7.7-.6-11-2.6-4.4-2.6-8.5-5.6-12.3-9-2.5-2-5-4-7.7-5.7-2.4-1.4-5-2.5-7.6-3.5-5.4-2.2-10.6-4.9-15.5-8.1-3.6-2.4-5.2-5.5-4.7-9.3.4-1.6,1-3.2,1.8-4.6-2.9,4.5-7,11.3-12.3,20.4-6.6,11.1-10.3,17.3-11.2,18.6-2.4,3.6-5.3,6.8-8.5,9.7-3.8,3.6-7.2,5.5-10.1,5.8-1.4.2-2.8-.3-3.8-1.4-.8-.8-1.1-2.1-.9-4,.6-5.3,5.7-14.9,15.4-29,.6-1,1.6-2.6,3-4.5l5.1-8.2c10.5-16.8,18.1-29.4,23-37.8,2.8-4.9,6.9-12.4,12.4-22.2l8.6-15.8c3-5.4,6.3-10.5,10.1-15.4,3.1-4.1,7.1-7.5,11.5-10,1.9-1.2,4.1-1.9,6.3-2.2,2.2-.4,4.4.9,5.2,3,1.1,3.2,1.7,6.6,1.9,10,.9,13.5,2.6,26.9,4.9,40.2,3,16.1,7.4,31.9,13.1,47.2M355.3,216.8c-2.3-13.2-3.9-24.5-4.9-33.9-6.1,10.2-14,22.6-23.7,37.3-.8,1.4-2.1,3.5-3.9,6.1,6-8.2,12.2-12.5,18.7-13.1,2.5-.2,4.9,0,7.3.9,2.2.7,4.4,1.6,6.5,2.6"/>
          <path id="Path_147" class="cls-2" d="M66.3,309c-.2,1.5-.8,2.9-1.6,4.1-.8,1.3-1.7,2.6-2.7,3.8-1.5,1.7-3.3,3.1-5.4,4-2.1.8-4.3,1.3-6.6,1.4-.8,0-2.1.1-3.9.1-1.7,0-3.3.1-5,.3l-1.9.2c-.5,0-1.1.2-1.5.5-.4.6-.8,1.2-1.1,1.9-.3.9-.6,1.8-.7,2.7-.2,1.1-.3,1.9-.3,2.4l-2,11.4c-.7,4-1.2,7.5-1.6,10.4-.4,3-.8,5.5-1,7.5-.3,2.7-.6,4.7-.8,6,.4-.1.8-.2,1.2-.3,1.5-.1,2.2,1,1.9,3.3-.2,1.8-.7,3.6-1.4,5.3-.7,1.9-1.6,4-2.6,6.3-.9,1.7-2,3.4-3.2,4.9-1.5,2-3.2,3.8-5.1,5.4-1.8,1.6-3.4,2.4-4.6,2.5-1.6.1-2.5-1-2.8-3.4-.3-2.8-.2-5.7.1-8.6.6-4.8,1.5-9.6,2.8-14.4l1.6-7.4c2.5-13.4,5.1-24.4,7.5-32.9-.4.2-1.6.6-3.5,1.4-1.8.7-3.6,1.5-5.3,2.4-1.4.7-2.7,1.6-3.8,2.6-1.1,1.2-2.1,2.5-2.8,3.9-.8,1.3-1.8,2.5-2.7,3.7-.9.9-1.9,1.7-3.1,2.2-.7.4-1.5.6-2.4.7-1.5.1-2.1-.7-1.9-2.5.2-1.4.7-2.9,1.3-4.2.6-1.4,1.3-2.7,2.2-3.9,5.5-7.9,13.3-13.9,23.3-18,10-4.1,20.5-6.6,31.2-7.4,1.5-.1,3.6-.2,6.2-.3,1.5,0,2.2.6,2,2.1"/>
          <path id="Path_148" class="cls-2" d="M88.1,330.9c2.2,2.1,3.8,4.8,4.6,7.7.9,3.2,1.2,6.5.8,9.8-.6,4.4-1.8,8.6-3.8,12.6-2.1,4.4-4.7,8.5-7.9,12.2-2.9,3.6-6.4,6.6-10.2,9.2-2.9,2-6.2,3.2-9.7,3.6-2.8.3-5.5-.4-7.7-2.1-2.1-1.7-3.5-4.2-4.1-7.6-.8-3.9-.9-7.9-.4-11.9.3-2.7.8-5.3,1.5-7.9-.7.2-1.5.3-2.2.4-2.4.2-3.5-.5-3.3-2.1,0-.5.2-.9.4-1.4,3.1-6.7,7.3-12.7,12.6-17.8,5.3-5.2,11-8.1,17.2-8.6,1.3,0,2.7,0,4,0,3.1.3,6,1.6,8.3,3.7M81,351.6c.4-2.8.1-5.6-.7-8.3-.7-2.4-2.3-4.5-4.3-5.9-1.2-.9-2.7-1.4-4.2-1.3-.7,0-1.5.3-2.1.6.6.2.9.8.8,1.4,0,.5-.3,1-.6,1.5-2,3.2-3.6,6.6-4.9,10.1-1.3,3.5-2.1,7.1-2.5,10.7-.5,3.9-.3,7.8.6,11.5.4,1.6,1.1,3.2,2.1,4.6.3.4.7.7,1.1.9,2.4-1.7,4.4-3.8,6.1-6.2,1.9-2.5,3.5-5.2,5-8,1.9-3.6,3.2-7.5,3.7-11.6"/>
          <path id="Path_149" class="cls-2" d="M133.9,322c1.8-1.1,3.8-1.8,6-2.1.9-.1,1.8,0,2.6.4.7.4,1,1.3.7,2-.4,2.6-.7,4.7-.9,6.3-1.4,8.9-2.8,16.5-4.4,22.8-1.6,6.4-4.2,12.5-7.8,18-3.3,5.5-8.5,9.7-14.6,11.8-1.9.7-3.8,1.1-5.8,1.3-4,.5-8-.6-11.3-3-3.1-2.3-4.6-5.7-4.6-10.1,0-1.8.1-3.1.2-4,.6-5,1.9-10,3.8-14.6,2-5,4.8-11.2,8.4-18.4,1-1.9,2.2-4.3,3.6-7.3.8-1.4,2-2.5,3.5-3.2,1.6-.9,3.4-1.4,5.2-1.6.9-.1,1.8,0,2.6.4.6.4,1,1.1.8,1.8,0,.4-.2.8-.3,1.2-1.8,4.1-3.2,7.1-4.2,9.2-2.6,5.7-4.7,10.5-6.3,14.3-1.5,3.8-2.7,7.7-3.6,11.6-.3,1.7-.5,3-.6,3.9-.5,4,.2,6.9,2,8.5.7.6,1.5,1.1,2.3,1.5.9.4,1.8.6,2.8.6h.8c.2,0,.3,0,.5-.2,2.1-1.5,3.8-3.6,4.8-5.9,1.2-2.3,2.2-4.7,2.9-7.2.6-2.1,1.4-5.4,2.6-9.9.9-3.7,1.7-7.7,2.5-12,.8-4.3,1.5-8.5,2.2-12.6.2-1.4,1.3-2.7,3.4-3.9"/>
          <path id="Path_150" class="cls-2" d="M183,351.6c1.7-.9,3.5-1.4,5.3-1.6,2.3-.2,3.4.4,3.2,1.9,0,.5-.2,1-.5,1.5-3.4,6.3-6.3,12.9-8.6,19.6-.7,1.7-1.9,3.1-3.4,4-1,1.1-2.1,1.9-3.4,2.5-1.4.7-2.8,1.1-4.3,1.3-1,.1-1.9,0-2.8-.5-.7-.5-1.1-1.3-.9-2.2.3-4.2-.8-8.3-3.1-11.9-2.1-3.4-5.5-5.7-9.5-6.4l-2.2,14.9c-.2,1.3-1.4,2.6-3.7,3.9-1.9,1.2-4.1,1.9-6.3,2.1-.8.1-1.7,0-2.4-.4-.6-.4-.9-1-.7-1.7l1.9-14.2c-.8-.4-1.2-1.2-1.1-2,.2-1.2.9-2.2,1.9-2.9,1.7-12.5,3.6-24.9,5.4-37.4.2-1.4,1.4-2.8,3.4-4,1.8-1.1,3.8-1.8,6-2.1,1.5-.1,2.5.1,3,.8,7.3,1.4,14.9,3.1,22.8,4.9.9-.3,1.8-.5,2.7-.6.9-.2,1.9,0,2.7.6.6.6.9,1.4.7,2.2-.4,3-1.7,5.8-3.7,8-2.7,3-5.6,5.9-8.7,8.5l-2.3,2c-3.7,3.5-7.2,6.6-10.7,9.3,5.2.9,9.8,3.9,12.7,8.2.4-.7,1.3-2.5,2.8-5.3,1-1.4,2.3-2.5,3.9-3.1M164,341.7c2.9-2.3,5.4-4.4,7.3-6.2,1.7-1.6,3.2-3.3,4.5-5.2-3.6-.7-9-1.8-16.1-3.4l-2.9,20.9c2.3-1.9,3.6-3,4-3.4l3.3-2.7Z"/>
          <path id="Path_151" class="cls-2" d="M230.5,349.4c-.6,5.3-1,10.7-1.2,16.2,0,.3.1.7,0,1,0,.3-.2.6-.3.9,0,0,0,.1-.1.1v.2c-.8,1.4-1.9,2.5-3.3,3.3-1.6,1-3.3,1.6-5.1,1.9-2.8.5-4.4,0-4.8-1.8-1.7-6.2-4.6-14.8-8.6-25.7l-.9-2.8c-1.5,8.6-2.9,17.8-4.1,27.5-.2,1.4-1.3,2.8-3.4,4.1-1.8,1.2-3.9,1.9-6.1,2.2-1,.1-2,0-2.9-.5-.7-.5-1.1-1.4-.8-2.3,2.4-17.9,5.7-35.6,10-53.2v-.4c.2-1.5,1.3-2.9,3.4-4.3,1.9-1.3,4-2.1,6.3-2.3,2.1-.2,3.3.4,3.6,1.7,1.6,5.8,4,13.2,7.3,22.2,1.1-6.5,2.6-13.1,4.4-19.8.4-1.4,1.6-2.7,3.7-3.9,1.9-1.1,4-1.8,6.1-2.1,2.5-.2,3.5.6,3,2.4-2.9,11.7-5.1,23.5-6.5,35.4"/>
          <path id="Path_152" class="cls-2" d="M275.7,326.2c.8,6,1.8,12.9,3.1,20.6,1.2,7.4,1.9,12.3,2.3,14.7,0,.3,0,.6,0,.9-.2,1.6-1.3,3.1-3.3,4.5-1.8,1.3-3.9,2-6,2.3-1.3.2-2.7-.1-3.7-1-1.8-2-3.7-3.8-5.7-5.5-2-1.7-4.7-3.9-8-6.4l-3.1-2.5c-3.6,6.4-6.4,11.1-8.3,14.2-.6,1.1-2,2.1-4.1,3.1-1.8.9-3.8,1.5-5.8,1.7-1.9.2-2.8-.4-2.7-1.6,0-.4.2-.9.5-1.3,2.7-5.2,5.8-11.2,9.4-18l2.8-5.4-2.3-2.4c-.4-.4-.6-1-.5-1.6.1-1.2,1-2.3,2.7-3.5,1.6-1.2,3.4-2,5.3-2.5,4.2-8.1,8.2-16.4,12.1-24.8.6-1.2,1.7-2.2,2.9-2.7,1.5-.8,3.2-1.4,4.9-1.8,1-.4,2-.6,3.1-.8,1.9-.2,2.9.5,3,1.9.3,5.9.9,11.8,1.7,17.8M258.8,339.4l-1.1,2.1,6.6,5.5-.4-2.9c-.3-1.9-.8-5.9-1.5-12l-3.6,7.3Z"/>
          <path id="Path_153" class="cls-2" d="M339.6,305.9c-.1,8.3-.1,21.5,0,39.6v11.6c0,1.5-.9,2.9-3,4.2-1.8,1.2-4,2-6.2,2.2-1.1.1-2.1,0-3.1-.5-.8-.5-1.3-1.4-1.1-2.3.2-9.4.2-19.2.2-29.2-2.3,4.1-4.6,7.9-6.9,11.4-.5.7-1.1,1.3-1.7,1.8-1.1.9-2.3,1.7-3.6,2.3-1.3.6-2.6.9-4,1.1-2.2.2-3.5-.4-4-1.8-.9-2.6-1.9-5.5-2.8-8.5l-.9,3.1c-1.5,5.8-3.6,13.2-6.1,22.3-.4,1.5-1.7,2.8-3.9,4-2,1.1-4.1,1.9-6.4,2.1-.9.1-1.8,0-2.5-.4-.6-.4-.7-1-.5-1.9,6.4-24.2,11.2-42.1,14.6-53.6.4-1.5,1.8-2.8,4-4.1,1.9-1.1,3.9-1.8,6.1-2,.9-.2,1.9-.2,2.8,0,.7.2,1.2.8,1.2,1.5.8,7,2.1,13.9,4.1,20.7,3.7-6.9,7.4-13.9,10.9-21.2.8-1.4,2.1-2.6,3.6-3.2,1.7-.9,3.5-1.5,5.4-1.7,2.1-.2,3.3.3,3.5,1.5.2.3.3.7.3,1.1"/>
          <path id="Path_154" class="cls-2" d="M389.3,350.8c-.1,1.1-.9,2.3-2.4,3.8-1.6,1.5-3.7,2.5-5.9,2.6-.9.1-1.9,0-2.8-.2-3.2-.8-6.5-1.2-9.8-.9-5.2.4-10.7,2.5-16.5,6.2-1.1.7-2.2,1.3-3.5,1.8-1.2.4-2.4.7-3.7.9-.8.1-1.7,0-2.4-.4-.6-.3-.9-1-.7-1.7,0-.4.2-.9.3-1.2,2.6-5.7,4.8-10.8,6.5-15.4,1.7-4.5,3-9.1,4-13.7,1.3-6.2,2.1-10.7,2.5-13.6.9-7.6,0-13.3-2.5-17.1-.3-.5-.4-1-.3-1.6.2-1.4,1.3-2.7,3.4-4.1,1.8-1.2,3.8-2,5.9-2.3.9-.2,1.9,0,2.6.6.8.2,1.4.7,1.6,1.5,1.1,4,3.1,7.8,5.9,10.9,2.6,2.8,6.5,4.3,10.3,3.8,1.2-.1,2.3-.4,3.5-.7,1-.2,1.6-.3,1.9-.4.9-.2,1.8,0,2.6.6.6.5.8,1.3.7,2-.2,1.1-.7,2.2-1.5,3-.9,1-2.1,1.8-3.4,2.3-2.8,1.1-5.7,1.9-8.7,2.1-3.2.3-6.5-.1-9.6-1.3-.6,3.8-1.1,6.7-1.5,8.7l-1.5,6.5c2.8-.7,5.5-1.3,8.3-1.9l1.5-.2c2.8-.2,4.1.6,3.9,2.4-.3,1.5-1.2,2.7-2.5,3.5-1.3,1-2.9,1.7-4.5,2.2-2.2.6-5.2,1.3-9,2-1.1,3.4-2.3,6.6-3.6,9.6,4.5-2,9.3-3.2,14.2-3.6,5.2-.4,10.4.1,15.3,1.6,1,.3,1.5.8,1.4,1.7"/>
          <path id="Path_155" class="cls-2" d="M432,333.1c-.6,5.3-1,10.7-1.2,16.2,0,.3.1.7,0,1,0,.3-.2.6-.3.9,0,0,0,.1-.1.1v.2c-.8,1.4-1.9,2.5-3.3,3.3-1.6,1-3.3,1.6-5.1,1.9-2.8.5-4.4,0-4.8-1.8-1.7-6.2-4.6-14.8-8.6-25.7l-.9-2.8c-1.5,8.6-2.9,17.8-4.1,27.5-.2,1.4-1.3,2.8-3.4,4.1-1.8,1.2-3.9,1.9-6.1,2.2-1,.1-2,0-2.9-.5-.7-.5-1.1-1.4-.8-2.3,2.4-17.9,5.7-35.6,10-53.2v-.4c.2-1.5,1.3-2.9,3.4-4.3,1.9-1.3,4-2.1,6.3-2.3,2.1-.2,3.3.4,3.6,1.7,1.6,5.8,4,13.2,7.3,22.2,1.1-6.5,2.6-13.1,4.4-19.8.4-1.4,1.6-2.7,3.7-3.9,1.9-1.1,4-1.8,6.1-2.1,2.5-.2,3.5.6,3,2.4-2.9,11.7-5.1,23.5-6.5,35.4"/>
          <path id="Path_156" class="cls-2" d="M477.5,292.5c1,.6,1.7,1.5,2.2,2.6.4.7.6,1.4.6,2.2-.2,1.5-1.2,2.5-3.2,2.9l-3.7.7c-3.5.8-5.3,1.1-5.5,1.2-2.4,11-4.4,20.6-6,28.8s-2.9,16.1-4,24c-.1.9-.7,1.7-1.4,2.3-.9.6-1.9.9-2.9.9-2.1.2-4.2-.2-6-1.2-1.9-1-2.8-2.2-2.5-3.6,1-7.3,2.3-14.7,3.8-22.3s3.3-16.5,5.5-26.5l-6.7,1.4c-.7.1-1.5.2-2.2,0-.6-.2-1.1-.6-1.4-1.1-.4-.6-.9-1.3-1.2-1.9-.5-.6-.7-1.4-.6-2.2,0-.7.4-1.3.9-1.7.6-.6,1.4-1,2.3-1.1,1.5-.3,3.4-.7,5.4-1.1l5.4-1.1,3.9-17.9c.4-1.9,2-3,4.6-3.2,2-.2,4.1.2,5.9,1.2,1.9,1,2.6,2.2,2.3,3.6l-2.9,13.9c2-.3,3.4-.5,4.3-.8,1.1-.3,2.3-.2,3.3.2"/>
        </g>
      </g>
      <path class="cls-2" d="M211.3,84.9c0,3.3,0,8.1-.2,14.5-.2,4.8-.2,9.7-.2,14.6s0,7.8.2,11.6c0,1-.3,2-.9,3.1-.7,1.1-1.5,2-2.5,2.7-1,.7-2,1.1-2.8,1.1-1.4,0-2.1-1-2.2-2.9-.2-3.6-.2-7.3-.2-10.9v-6.3c0,0-21.6,0-21.6,0-.9,0-1.4-.5-1.4-1.4s.4-2.3,1.3-3.8c.9-1.6,1.6-2.6,2.1-3.2l19.9-21.6v-1.5c0-1,.3-2,1-3.1.7-1.1,1.5-2,2.5-2.8,1-.7,2-1.1,2.8-1.1,1.3,0,2,1,2.1,2.9,0,1.8,0,4.5,0,8.1ZM202.7,102.6c.1-5.6.2-9.8.2-12.6l-11.6,12.6h11.5Z"/>
    </g>
  </g>
</svg>