<svg xmlns="http://www.w3.org/2000/svg" xmlns:xlink="http://www.w3.org/1999/xlink" width="712.424" height="655.541" viewBox="0 0 712.424 655.541">
  <defs>
    <clipPath id="clip-path">
      <rect id="Rectangle_16" data-name="Rectangle 16" width="712.424" height="655.541" fill="#ffc300"/>
    </clipPath>
    <filter id="Path_136" x="114.551" y="-14.534" width="121.862" height="127.12" filterUnits="userSpaceOnUse">
      <feOffset dy="3" input="SourceAlpha"/>
      <feGaussianBlur stdDeviation="6" result="blur"/>
      <feFlood flood-color="#000814"/>
      <feComposite operator="in" in2="blur"/>
      <feComposite in="SourceGraphic"/>
    </filter>
    <filter id="Path_137" x="459.186" y="491.993" width="215.681" height="136.201" filterUnits="userSpaceOnUse">
      <feOffset dy="3" input="SourceAlpha"/>
      <feGaussianBlur stdDeviation="6" result="blur-2"/>
      <feFlood flood-color="#000814"/>
      <feComposite operator="in" in2="blur-2"/>
      <feComposite in="SourceGraphic"/>
    </filter>
    <filter id="Path_138" x="37.725" y="511.638" width="216.026" height="136.666" filterUnits="userSpaceOnUse">
      <feOffset dy="3" input="SourceAlpha"/>
      <feGaussianBlur stdDeviation="6" result="blur-3"/>
      <feFlood flood-color="#000814"/>
      <feComposite operator="in" in2="blur-3"/>
      <feComposite in="SourceGraphic"/>
    </filter>
    <filter id="Path_139" x="472.167" y="-15" width="163.715" height="181.704" filterUnits="userSpaceOnUse">
      <feOffset dy="3" input="SourceAlpha"/>
      <feGaussianBlur stdDeviation="6" result="blur-4"/>
      <feFlood flood-color="#000814"/>
      <feComposite operator="in" in2="blur-4"/>
      <feComposite in="SourceGraphic"/>
    </filter>
    <filter id="Path_140" x="101.759" y="94.551" width="93.995" height="109.536" filterUnits="userSpaceOnUse">
      <feOffset dy="3" input="SourceAlpha"/>
      <feGaussianBlur stdDeviation="6" result="blur-5"/>
      <feFlood flood-color="#000814"/>
      <feComposite operator="in" in2="blur-5"/>
      <feComposite in="SourceGraphic"/>
    </filter>
    <filter id="Path_141" x="164.063" y="88.43" width="86.147" height="112.26" filterUnits="userSpaceOnUse">
      <feOffset dy="3" input="SourceAlpha"/>
      <feGaussianBlur stdDeviation="6" result="blur-6"/>
      <feFlood flood-color="#000814"/>
      <feComposite operator="in" in2="blur-6"/>
      <feComposite in="SourceGraphic"/>
    </filter>
    <filter id="Path_142" x="216.751" y="85.279" width="93.995" height="109.536" filterUnits="userSpaceOnUse">
      <feOffset dy="3" input="SourceAlpha"/>
      <feGaussianBlur stdDeviation="6" result="blur-7"/>
      <feFlood flood-color="#000814"/>
      <feComposite operator="in" in2="blur-7"/>
      <feComposite in="SourceGraphic"/>
    </filter>
    <filter id="Path_143" x="274.932" y="81.844" width="97.779" height="107.301" filterUnits="userSpaceOnUse">
      <feOffset dy="3" input="SourceAlpha"/>
      <feGaussianBlur stdDeviation="6" result="blur-8"/>
      <feFlood flood-color="#000814"/>
      <feComposite operator="in" in2="blur-8"/>
      <feComposite in="SourceGraphic"/>
    </filter>
    <filter id="Path_144" x="139.002" y="188.449" width="195.491" height="217.019" filterUnits="userSpaceOnUse">
      <feOffset dy="3" input="SourceAlpha"/>
      <feGaussianBlur stdDeviation="6" result="blur-9"/>
      <feFlood flood-color="#000814"/>
      <feComposite operator="in" in2="blur-9"/>
      <feComposite in="SourceGraphic"/>
    </filter>
    <filter id="Path_145" x="272.57" y="150.403" width="205.283" height="251.385" filterUnits="userSpaceOnUse">
      <feOffset dy="3" input="SourceAlpha"/>
      <feGaussianBlur stdDeviation="6" result="blur-10"/>
      <feFlood flood-color="#000814"/>
      <feComposite operator="in" in2="blur-10"/>
      <feComposite in="SourceGraphic"/>
    </filter>
    <filter id="Path_146" x="397.419" y="157.92" width="201.403" height="233.91" filterUnits="userSpaceOnUse">
      <feOffset dy="3" input="SourceAlpha"/>
      <feGaussianBlur stdDeviation="6" result="blur-11"/>
      <feFlood flood-color="#000814"/>
      <feComposite operator="in" in2="blur-11"/>
      <feComposite in="SourceGraphic"/>
    </filter>
    <filter id="Path_147" x="36.27" y="388.055" width="123.114" height="149.25" filterUnits="userSpaceOnUse">
      <feOffset dy="3" input="SourceAlpha"/>
      <feGaussianBlur stdDeviation="6" result="blur-12"/>
      <feFlood flood-color="#000814"/>
      <feComposite operator="in" in2="blur-12"/>
      <feComposite in="SourceGraphic"/>
    </filter>
    <filter id="Path_148" x="96.202" y="414.557" width="99.072" height="113.436" filterUnits="userSpaceOnUse">
      <feOffset dy="3" input="SourceAlpha"/>
      <feGaussianBlur stdDeviation="6" result="blur-13"/>
      <feFlood flood-color="#000814"/>
      <feComposite operator="in" in2="blur-13"/>
      <feComposite in="SourceGraphic"/>
    </filter>
    <filter id="Path_149" x="159.573" y="405.124" width="100.834" height="118.499" filterUnits="userSpaceOnUse">
      <feOffset dy="3" input="SourceAlpha"/>
      <feGaussianBlur stdDeviation="6" result="blur-14"/>
      <feFlood flood-color="#000814"/>
      <feComposite operator="in" in2="blur-14"/>
      <feComposite in="SourceGraphic"/>
    </filter>
    <filter id="Path_150" x="219.653" y="400.224" width="104.179" height="120.906" filterUnits="userSpaceOnUse">
      <feOffset dy="3" input="SourceAlpha"/>
      <feGaussianBlur stdDeviation="6" result="blur-15"/>
      <feFlood flood-color="#000814"/>
      <feComposite operator="in" in2="blur-15"/>
      <feComposite in="SourceGraphic"/>
    </filter>
    <filter id="Path_151" x="284.381" y="394.096" width="99.174" height="121.223" filterUnits="userSpaceOnUse">
      <feOffset dy="3" input="SourceAlpha"/>
      <feGaussianBlur stdDeviation="6" result="blur-16"/>
      <feFlood flood-color="#000814"/>
      <feComposite operator="in" in2="blur-16"/>
      <feComposite in="SourceGraphic"/>
    </filter>
    <filter id="Path_152" x="338.655" y="387.501" width="102.745" height="123.15" filterUnits="userSpaceOnUse">
      <feOffset dy="3" input="SourceAlpha"/>
      <feGaussianBlur stdDeviation="6" result="blur-17"/>
      <feFlood flood-color="#000814"/>
      <feComposite operator="in" in2="blur-17"/>
      <feComposite in="SourceGraphic"/>
    </filter>
    <filter id="Path_153" x="407.818" y="383.175" width="110.442" height="122.654" filterUnits="userSpaceOnUse">
      <feOffset dy="3" input="SourceAlpha"/>
      <feGaussianBlur stdDeviation="6" result="blur-18"/>
      <feFlood flood-color="#000814"/>
      <feComposite operator="in" in2="blur-18"/>
      <feComposite in="SourceGraphic"/>
    </filter>
    <filter id="Path_154" x="484.912" y="370.719" width="100.116" height="129.425" filterUnits="userSpaceOnUse">
      <feOffset dy="3" input="SourceAlpha"/>
      <feGaussianBlur stdDeviation="6" result="blur-19"/>
      <feFlood flood-color="#000814"/>
      <feComposite operator="in" in2="blur-19"/>
      <feComposite in="SourceGraphic"/>
    </filter>
    <filter id="Path_155" x="548.997" y="372.76" width="99.175" height="121.223" filterUnits="userSpaceOnUse">
      <feOffset dy="3" input="SourceAlpha"/>
      <feGaussianBlur stdDeviation="6" result="blur-20"/>
      <feFlood flood-color="#000814"/>
      <feComposite operator="in" in2="blur-20"/>
      <feComposite in="SourceGraphic"/>
    </filter>
    <filter id="Path_156" x="616.731" y="345.23" width="86.314" height="145.963" filterUnits="userSpaceOnUse">
      <feOffset dy="3" input="SourceAlpha"/>
      <feGaussianBlur stdDeviation="6" result="blur-21"/>
      <feFlood flood-color="#000814"/>
      <feComposite operator="in" in2="blur-21"/>
      <feComposite in="SourceGraphic"/>
    </filter>
  </defs>
  <g id="logo" transform="translate(-6 -4)">
    <g id="Group_16" data-name="Group 16" transform="translate(6 4)" clip-path="url(#clip-path)">
      <g transform="matrix(1, 0, 0, 1, 0, 0)" filter="url(#Path_136)">
        <path id="Path_136-2" data-name="Path 136" d="M75.191,2.391,137.971,91.43H107.91L53.844,19.1c-2.313-2.779-2.313-6.024,0-7.421L67.77,1.459a5.211,5.211,0,0,1,7.421.931" transform="translate(80.44 0.16)" fill="#ffc300"/>
      </g>
      <g transform="matrix(1, 0, 0, 1, 0, 0)" filter="url(#Path_137)">
        <path id="Path_137-2" data-name="Path 137" d="M461.13,406.576c-.466,7.436-6.49,14.392-12.063,17.186-5.573,3.245-17.171,6.49-40.381,9.75-28.783,3.71-35.754,3.71-41.327,4.176a18.415,18.415,0,0,1-7.421-1.4,1.627,1.627,0,0,1-.931-.466,31.97,31.97,0,0,1-9.284-5.108c-6.956-5.573-13.46-14.392-13.46-14.392l-25.989-35.739-8.368-13.46c0-.466,0-.466.466-.931L281.52,337.487h16.45l14.151,19.424h.931l10.215,12.529,25.989,35.754s2.794,4.176,6.5,3.71c3.245-.466,5.108-4.176,6.49-5.573.932-1.4,11.612-8.352,24.607-16.254,12.994-8.352,23.676-13.926,23.676-13.926s14.857-8.818,22.744-9.75a17.135,17.135,0,0,1,12.544,3.26c3.245,2.779,6.955,6.955,10.2,14.857a53.82,53.82,0,0,1,5.108,25.058" transform="translate(195.67 169.51)" fill="#ffc300"/>
      </g>
      <g transform="matrix(1, 0, 0, 1, 0, 0)" filter="url(#Path_138)">
        <path id="Path_138-2" data-name="Path 138" d="M181,350.564l-21.2,29.174c.466.466.466.466.466.932l-8.353,13.46-26,35.739s-6.49,8.818-13.46,14.392a49.9,49.9,0,0,1-9.284,5.108,1.626,1.626,0,0,1-.931.466c-.916,0-3.711,1.4-7.421,1.4-5.573,0-12.529,0-41.312-4.191-22.744-3.245-34.822-6.49-40.4-9.75-6.024-2.779-11.6-9.735-12.063-17.171s1.4-18.1,5.108-25.058c3.245-7.9,6.49-11.613,10.215-14.857a16.128,16.128,0,0,1,12.529-3.26c7.887.931,22.744,9.75,22.744,9.75s10.681,5.573,23.676,13.926c12.995,7.9,23.21,14.857,24.607,16.255s3.711,5.108,6.49,5.573c3.26.466,6.5-3.726,6.5-3.726L138.9,382.983l10.215-12.529h.931l14.452-19.89Z" transform="translate(54.76 176.07)" fill="#ffc300"/>
      </g>
      <g transform="matrix(1, 0, 0, 1, 0, 0)" filter="url(#Path_139)">
        <path id="Path_139-2" data-name="Path 139" d="M416.13,19.717,308.959,145.7h-18.8L394.783,2.081a5.213,5.213,0,0,1,7.421-.931L416.13,11.365c2.328,1.863,2.328,5.108,0,8.353" transform="translate(200.01 0)" fill="#ffc300"/>
      </g>
      <g transform="matrix(1, 0, 0, 1, 0, 0)" filter="url(#Path_140)">
        <path id="Path_140-2" data-name="Path 140" d="M100.1,133.632a10.387,10.387,0,0,1-1.643,4.058A19.937,19.937,0,0,1,95.1,141.84a6.254,6.254,0,0,1-3.635,1.929,4.8,4.8,0,0,1-1.032-.1q-8.16-2.612-20.136-1.648a160.558,160.558,0,0,0-23.934,4.266,3.135,3.135,0,0,1-.873.164q-2.109.171-1.866-2A11.186,11.186,0,0,1,45,140.6a26.135,26.135,0,0,1,2.2-3.542l41.251-51a17.39,17.39,0,0,0-5.366-.409A30.9,30.9,0,0,0,71.772,89.18a54.385,54.385,0,0,0-8.766,5.334,14.793,14.793,0,0,0-5.381,6.463,17.694,17.694,0,0,1-2.914,4.815,7.865,7.865,0,0,1-4.046,3.038q-1.566.406-2.193-.338a2.754,2.754,0,0,1-.47-2.159,7.173,7.173,0,0,1,.5-1.909A42.471,42.471,0,0,1,57.769,90.4,65.3,65.3,0,0,1,72.927,78.479a39.288,39.288,0,0,1,16.236-5.47,19.213,19.213,0,0,1,11.426,2.256,2.839,2.839,0,0,1,.831,1.056,2.39,2.39,0,0,1,.15,1.2,8.729,8.729,0,0,1-.341,1.337,16.014,16.014,0,0,1-1.782,3.6,18.232,18.232,0,0,1-2.7,3.3q-25.137,31-37.611,46.5a128.1,128.1,0,0,1,17.6-2.821q13.031-1.05,22.372,2.028,1.2.277.992,2.163" transform="translate(76.17 36.63)" fill="#ffc300"/>
      </g>
      <g transform="matrix(1, 0, 0, 1, 0, 0)" filter="url(#Path_141)">
        <path id="Path_141-2" data-name="Path 141" d="M108.511,71.583a20.112,20.112,0,0,1,8.277-2.677,15.008,15.008,0,0,1,12.045,4.357q7.614,7.427,6.141,20.536a47.149,47.149,0,0,1-2.987,11.785,64.8,64.8,0,0,1-5.8,11.449,54.61,54.61,0,0,1-3.521,5.145l1.5,2.683a2.6,2.6,0,0,1,.14,1.3,10.909,10.909,0,0,1-1.974,4.459,29.366,29.366,0,0,1-3.9,4.755q-2.136,2.089-3.476,2.2a.929.929,0,0,1-.98-.575,9.679,9.679,0,0,0-.623-1.212c-.267-.445-.557-.967-.87-1.564q-10.269,10.269-17.554,10.855a8.65,8.65,0,0,1-4.387-.675q-6.783-3-5.16-17.437.306-2.736,1.475-8.905A157.055,157.055,0,0,1,92.8,94.769l-.831-1.9-2.217-5.617a2.375,2.375,0,0,1-.065-1.116,10.99,10.99,0,0,1,2.027-4.51,29.039,29.039,0,0,1,4.007-4.809q2.181-2.091,3.428-2.193a.729.729,0,0,1,.8.5c.144.427.3.85.475,1.271s.333.847.475,1.271a31.422,31.422,0,0,1,7.616-6.083m-.75,53.946q-4.1-7.425-8.015-15.711-.469,2.47-.817,3.9-.617,3.788-.85,5.863a34.627,34.627,0,0,0-.113,7.767,9.424,9.424,0,0,0,.379,2.12,4.715,4.715,0,0,0,.922,1.514c.006-.062.1-.086.291-.069a1.762,1.762,0,0,0,.676-.1,25.47,25.47,0,0,0,7.526-5.28m9.972-12.675a32.894,32.894,0,0,0,5-13.208,19.014,19.014,0,0,0-.451-6.975,14.154,14.154,0,0,0-4.337-7.034q-3.355-3.094-6.8-2.817a6.567,6.567,0,0,0-4.025,2.007l-.575,1.729a.335.335,0,0,1-.117.2l.011-.095a6.2,6.2,0,0,1-.394.967l-.415,1.155q5.5,11.9,12.107,24.074" transform="translate(97 34.58)" fill="#ffc300"/>
      </g>
      <g transform="matrix(1, 0, 0, 1, 0, 0)" filter="url(#Path_142)">
        <path id="Path_142-2" data-name="Path 142" d="M176.649,127.46a10.386,10.386,0,0,1-1.643,4.058,19.937,19.937,0,0,1-3.364,4.151,6.253,6.253,0,0,1-3.635,1.929,4.8,4.8,0,0,1-1.032-.1q-8.16-2.612-20.136-1.648a160.545,160.545,0,0,0-23.934,4.266,3.136,3.136,0,0,1-.873.164q-2.109.171-1.866-2a11.187,11.187,0,0,1,1.384-3.852,26.138,26.138,0,0,1,2.2-3.542l41.251-51a17.389,17.389,0,0,0-5.366-.409,30.9,30.9,0,0,0-11.318,3.529,54.379,54.379,0,0,0-8.766,5.335,14.792,14.792,0,0,0-5.381,6.463,17.694,17.694,0,0,1-2.914,4.815,7.865,7.865,0,0,1-4.046,3.038q-1.566.406-2.193-.338a2.755,2.755,0,0,1-.47-2.159,7.173,7.173,0,0,1,.5-1.909,42.471,42.471,0,0,1,9.267-14.021,65.3,65.3,0,0,1,15.158-11.923,39.289,39.289,0,0,1,16.236-5.47,19.213,19.213,0,0,1,11.426,2.256,2.84,2.84,0,0,1,.831,1.056,2.391,2.391,0,0,1,.15,1.2,8.738,8.738,0,0,1-.341,1.337,16.056,16.056,0,0,1-1.782,3.6,18.276,18.276,0,0,1-2.7,3.3q-25.136,31-37.611,46.5a128.1,128.1,0,0,1,17.6-2.821q13.031-1.05,22.372,2.028,1.2.277.991,2.163" transform="translate(114.61 33.53)" fill="#ffc300"/>
      </g>
      <g transform="matrix(1, 0, 0, 1, 0, 0)" filter="url(#Path_143)">
        <path id="Path_143-2" data-name="Path 143" d="M209.829,89.967a23.535,23.535,0,0,1,8.372,7.878,15.924,15.924,0,0,1,2.331,10.514,24.4,24.4,0,0,1-3.446,9.532,37.041,37.041,0,0,1-11.969,12.7A32.337,32.337,0,0,1,190.3,135.66a31.688,31.688,0,0,1-12.922-1.621,30.885,30.885,0,0,1-11.168-6.672,27.968,27.968,0,0,1-7.2-10.683,3.9,3.9,0,0,1-.119-1.486,10.743,10.743,0,0,1,1.771-4.349,20.9,20.9,0,0,1,3.518-4.256,6.284,6.284,0,0,1,3.4-1.911,1.268,1.268,0,0,1,1.417.915,28.643,28.643,0,0,0,7.4,11.04,25.672,25.672,0,0,0,11.657,6.117,29.974,29.974,0,0,0,8.965.493,25.028,25.028,0,0,0,8.2-1.969,9.332,9.332,0,0,0,4.992-4.7,6.551,6.551,0,0,0,.5-1.909q.446-3.964-3.559-7.612a36.271,36.271,0,0,0-8.414-5.818,36.844,36.844,0,0,0-8.615-3.183,29.437,29.437,0,0,0-9.179-.709,27.093,27.093,0,0,0-6.027,1.233,2.722,2.722,0,0,1-1.076.273,1.279,1.279,0,0,1-1.427-.819,4.494,4.494,0,0,1-.224-2.226,9.008,9.008,0,0,1,.373-1.618,13.366,13.366,0,0,1,2.144-3.865A14.761,14.761,0,0,1,178,87.206a7.327,7.327,0,0,1,1.628-.972,133.555,133.555,0,0,0,14.563-7.9,100.256,100.256,0,0,0-19.112,4.439,5.837,5.837,0,0,1-1.076.273q-1.724.14-1.48-2.031a14.82,14.82,0,0,1,2.686-6.152q2.4-3.6,4.582-4.435A108.93,108.93,0,0,1,207,64.864q4.313-.347,8.4-.4,2.1-.074,1.854,2.094a12.613,12.613,0,0,1-2.075,4.933,15.416,15.416,0,0,1-3.1,3.9q-7.984,5.971-14.147,10.115a39.743,39.743,0,0,1,11.89,4.462" transform="translate(134.06 32.38)" fill="#ffc300"/>
      </g>
      <g transform="matrix(1, 0, 0, 1, 0, 0)" filter="url(#Path_144)">
        <path id="Path_144-2" data-name="Path 144" d="M227.826,143.822q-1,8.894-17.782,24.323T162.958,207.56q-15.837,12.54-23.934,19.312T128.809,237a19.069,19.069,0,0,0-2.342,5.329,40.3,40.3,0,0,0-1.209,6.341,55.009,55.009,0,0,1-.876,5.578q-3.121,12.249-6.406,21.569a134.165,134.165,0,0,1-6.951,16.474,54.346,54.346,0,0,1-9.294,12.99,60.69,60.69,0,0,1-8.294,7.4q-4.619,3.436-8.378,3.736-8.536.687-7.005-12.9a74.418,74.418,0,0,1,2.031-10.323q1.528-5.872,1.977-7.626l2.144-8.007q-6.023,4.892-10.54,5.256-3.013.243-4.295-1.612a7.7,7.7,0,0,1-.894-5.314,25.179,25.179,0,0,1,3.9-10.352,65.4,65.4,0,0,1,9.225-11.27q5.1-5.552,7.3-8.545a22.742,22.742,0,0,0,3.344-6.512,165.861,165.861,0,0,0,4.731-24.373,119.954,119.954,0,0,0,.858-16.471,82.09,82.09,0,0,0-.952-11.429q-.115-1.212-.66-7.414a58.07,58.07,0,0,1,.066-11.634q2.943-26.182,33.062-28.615,3.258-.261,9.733-.294,15.891.187,38.177-1.121l7.753-.38,18.349-1.725q15.812-1.273,21.865,2.4a5.536,5.536,0,0,1,2.6,5.667m-56.879,30.29q-12.968.311-38.791-.054-.106,18.615-1.128,34.363,22.439-20.411,39.92-34.309" transform="translate(88.62 68.02)" fill="#ffc300"/>
      </g>
      <g transform="matrix(1, 0, 0, 1, 0, 0)" filter="url(#Path_145)">
        <path id="Path_145-2" data-name="Path 145" d="M325.541,112.381a12.176,12.176,0,0,1,1.035,5.18,27.418,27.418,0,0,1-3.732,11.073,51.293,51.293,0,0,1-9.826,13.277,25.008,25.008,0,0,1-12.867,7.157q-12.747,2.745-17.845,3.888a139.472,139.472,0,0,1,4.5,28.523q1.151,16.312.819,21.478-.279,6.877-.694,10.582-.388,3.463-1.725,10.911-4.588,27.543-10.912,43.965a137.758,137.758,0,0,1-10.142,21.626q-4.351,7.7-7.9,12.754a54.944,54.944,0,0,1-7.986,9.09l-7.75,6.99-5.075,3.1a13.681,13.681,0,0,1-7.277,2.79,9.327,9.327,0,0,1-2.566.7,41.686,41.686,0,0,1-17.57-2.988,61.27,61.27,0,0,1-11.395-7.038q-5.262-4.1-12.708-10.849l-24.186-21.55q-2.934-2.7-2.347-7.89.8-7.164,7.857-16.791,7.326-9.89,14.941-13.445a10.441,10.441,0,0,1,4.127-1.312,7.17,7.17,0,0,1,3.906.664l17.519,16.7,5.413,4.949a179.014,179.014,0,0,0,14.883,12.509,45.8,45.8,0,0,0,14.018,6.948,3.228,3.228,0,0,0,1.477.126,47.261,47.261,0,0,0,2.62-5.6q3.759-9.115,8.327-27.6,2.585-11.959,3.672-21.595.638-5.679.694-8.378l.081-5.148q.216-15.192-.4-22.979a91.193,91.193,0,0,0-7.263-28.3,8.464,8.464,0,0,1-.476-4.613l-3.569.777q-22.7,7.218-34.073,11.072c-.521.206-1.085.416-1.687.625a8.663,8.663,0,0,1-2.162.419,4.347,4.347,0,0,1-4.658-2.806,12.88,12.88,0,0,1-.252-4.387,22.466,22.466,0,0,1,.919-3.747q2.4-8.024,9.7-15.469a32.1,32.1,0,0,1,8.671-6.331q16.558-5.742,24.871-8.86a70.152,70.152,0,0,1,7.5-2.563q9.342-3.443,15-5.126,25.986-7.725,51.613-14.444l1.032-.327a3.53,3.53,0,0,1,3.849,2.259" transform="translate(133.27 55.3)" fill="#ffc300"/>
      </g>
      <g transform="matrix(1, 0, 0, 1, 0, 0)" filter="url(#Path_146)">
        <path id="Path_146-2" data-name="Path 146" d="M398.56,247.13l2.15,5.213a72.925,72.925,0,0,1,4.145,9.58,18.96,18.96,0,0,1,.828,8.135q-.723,6.427-7.01,13.662A48,48,0,0,1,385.5,294.7a20.146,20.146,0,0,1-8.782,2.911,24.354,24.354,0,0,1-14.42-3.367,117.853,117.853,0,0,1-16.209-11.79,113.361,113.361,0,0,0-10.1-7.51,68.054,68.054,0,0,0-9.93-4.585q-13.282-5.78-20.32-10.6t-6.21-12.228a19.568,19.568,0,0,1,2.422-6.071q-5.712,8.784-16.19,26.764-12.9,21.851-14.686,24.44a71.017,71.017,0,0,1-11.136,12.772q-7.513,7.094-13.286,7.558a6.018,6.018,0,0,1-5.019-1.8q-1.564-1.584-1.145-5.294,1.167-10.375,20.2-38.1,1.224-2.055,3.9-5.945l6.687-10.822q20.623-32.994,30.21-49.683,5.573-9.75,16.218-29.216L329,151.39a168.52,168.52,0,0,1,13.224-20.284,49.583,49.583,0,0,1,15.153-13.094,20.377,20.377,0,0,1,8.28-2.872q5.018-.4,6.765,3.984t2.5,13.14a500.039,500.039,0,0,0,6.491,52.844,378.6,378.6,0,0,0,17.15,62.022M345.873,226.9q-4.531-26.074-6.433-44.525-11.954,20.06-31.13,49.023-1.566,2.824-5.129,8,11.758-16.123,24.562-17.159a23.074,23.074,0,0,1,9.568,1.188,57.579,57.579,0,0,1,8.561,3.47" transform="translate(175.01 57.81)" fill="#ffc300"/>
      </g>
      <g transform="matrix(1, 0, 0, 1, 0, 0)" filter="url(#Path_147)">
        <path id="Path_147-2" data-name="Path 147" d="M87.084,271.025a14,14,0,0,1-2.1,5.377,31.109,31.109,0,0,1-3.542,4.959,18.567,18.567,0,0,1-7.1,5.247,30.058,30.058,0,0,1-8.624,1.9q-1.643.133-5.171.15a59.744,59.744,0,0,0-6.557.4l-2.531.2a3.011,3.011,0,0,0-1.978.694,10.909,10.909,0,0,0-1.436,2.519,15.411,15.411,0,0,0-.873,3.542q-.313,2.163-.418,3.105l-2.639,15.035Q42.824,322,42.03,327.871t-1.373,9.792q-.593,5.255-1.016,7.825a8.572,8.572,0,0,1,1.535-.391q3.011-.243,2.5,4.339a28.266,28.266,0,0,1-1.8,6.955q-1.435,3.72-3.442,8.29a37.292,37.292,0,0,1-4.181,6.413,47.212,47.212,0,0,1-6.7,7.151q-3.605,3.094-6.069,3.291-3.15.255-3.7-4.508a49.148,49.148,0,0,1,.179-11.231,158.173,158.173,0,0,1,3.611-18.853l2.051-9.778q5.009-26.441,9.883-43.259-.852.338-4.607,1.774a57.92,57.92,0,0,0-6.934,3.162,23.386,23.386,0,0,0-5,3.475,23.5,23.5,0,0,0-3.694,5.1,55.91,55.91,0,0,1-3.595,4.83,11.279,11.279,0,0,1-4.053,2.865,8.357,8.357,0,0,1-3.087.916q-2.875.232-2.48-3.272a18.906,18.906,0,0,1,1.7-5.477,29.811,29.811,0,0,1,2.889-5.174q10.837-15.562,30.6-23.633a136.924,136.924,0,0,1,40.985-9.78q3.008-.243,8.183-.393,2.995-.106,2.679,2.722" transform="translate(54.27 134.76)" fill="#ffc300"/>
      </g>
      <g transform="matrix(1, 0, 0, 1, 0, 0)" filter="url(#Path_148)">
        <path id="Path_148-2" data-name="Path 148" d="M95.686,290.968a22.12,22.12,0,0,1,6.051,10.127,32.519,32.519,0,0,1,1,12.807,52.4,52.4,0,0,1-4.981,16.558,74.689,74.689,0,0,1-10.352,16.056,59.8,59.8,0,0,1-13.427,12.033,28.244,28.244,0,0,1-12.745,4.765A13.841,13.841,0,0,1,51.1,360.526q-4.11-3.272-5.39-9.979a47.01,47.01,0,0,1-.554-15.579,67.873,67.873,0,0,1,1.974-10.309,12.222,12.222,0,0,1-2.905.5q-4.655.374-4.307-2.725a5.27,5.27,0,0,1,.472-1.774,79.129,79.129,0,0,1,16.54-23.432q10.444-10.255,22.63-11.238a38.028,38.028,0,0,1,5.279.107,18.639,18.639,0,0,1,10.846,4.869m-9.419,27.065a26.2,26.2,0,0,0-.871-10.945,14.507,14.507,0,0,0-5.707-7.752,8.416,8.416,0,0,0-5.509-1.692,10.255,10.255,0,0,0-2.8.759,1.522,1.522,0,0,1,1.02,1.786,5.086,5.086,0,0,1-.76,1.93,71.243,71.243,0,0,0-6.376,13.268,61.632,61.632,0,0,0-3.349,14.088,44.593,44.593,0,0,0,.738,15.164,21.245,21.245,0,0,0,2.71,6.057,4.1,4.1,0,0,0,1.49,1.217,35.73,35.73,0,0,0,8.036-8.127,76.971,76.971,0,0,0,6.545-10.543,42.774,42.774,0,0,0,4.83-15.21" transform="translate(74.31 143.62)" fill="#ffc300"/>
      </g>
      <g transform="matrix(1, 0, 0, 1, 0, 0)" filter="url(#Path_149)">
        <path id="Path_149-2" data-name="Path 149" d="M134.624,282.4a18.168,18.168,0,0,1,7.833-2.7,5.778,5.778,0,0,1,3.461.59,2.319,2.319,0,0,1,.921,2.663q-.852,5.142-1.2,8.24-2.659,17.576-5.746,29.975a80.761,80.761,0,0,1-10.19,23.656,36.807,36.807,0,0,1-19.113,15.56,31.685,31.685,0,0,1-7.651,1.687q-8.761.7-14.824-3.879t-6.038-13.268q.119-3.479.317-5.234a74.37,74.37,0,0,1,5.013-19.232q3.966-9.933,10.988-24.12,2.051-3.768,4.741-9.593,1.079-2.357,4.607-4.179a18.1,18.1,0,0,1,6.814-2.084,5.761,5.761,0,0,1,3.461.589,2.256,2.256,0,0,1,1.088,2.383,8.185,8.185,0,0,1-.455,1.639q-3.619,8.038-5.561,12.065-5.2,11.238-8.214,18.756a95.346,95.346,0,0,0-4.7,15.268q-.64,3.258-.849,5.142-.895,7.952,2.682,11.135a9.545,9.545,0,0,0,3.035,1.957,9.077,9.077,0,0,0,3.7.837l1.065.182c.09-.008.29-.156.593-.448a19.712,19.712,0,0,0,6.37-7.792,53.106,53.106,0,0,0,3.844-9.456q1.138-4.1,3.356-12.956,1.76-7.218,3.333-15.759t2.875-16.522q.437-2.706,4.439-5.1" transform="translate(95.49 140.46)" fill="#ffc300"/>
      </g>
      <g transform="matrix(1, 0, 0, 1, 0, 0)" filter="url(#Path_150)">
        <path id="Path_150-2" data-name="Path 150" d="M179.011,322.9a19.628,19.628,0,0,1,7.019-2.1q4.518-.363,4.2,2.467a6.271,6.271,0,0,1-.623,1.92A181.465,181.465,0,0,0,178.3,350.935a11.9,11.9,0,0,1-4.531,5.306,13.662,13.662,0,0,1-4.51,3.3,15.873,15.873,0,0,1-5.68,1.658,5.934,5.934,0,0,1-3.658-.64,2.9,2.9,0,0,1-1.241-2.836,25.515,25.515,0,0,0-4.016-15.568,18.274,18.274,0,0,0-12.424-8.343L139.36,353.4q-.426,2.573-4.843,5.064a20.3,20.3,0,0,1-8.25,2.8,5.67,5.67,0,0,1-3.2-.476,2.073,2.073,0,0,1-.967-2.259l2.5-18.63a2.73,2.73,0,0,1-1.462-2.685,6.179,6.179,0,0,1,2.464-3.8q3.441-24.58,7.143-49.047.453-2.844,4.454-5.234a18.127,18.127,0,0,1,7.834-2.7q2.873-.232,3.954,1.015,14.464,2.839,29.94,6.4a21.188,21.188,0,0,1,3.482-.816,5.024,5.024,0,0,1,3.514.72,2.989,2.989,0,0,1,.96,2.926,19.378,19.378,0,0,1-4.84,10.472,105.741,105.741,0,0,1-11.426,11.136l-3.012,2.646q-7.283,6.866-13.989,12.212a25.308,25.308,0,0,1,16.692,10.8q.7-1.388,3.633-6.969a11.7,11.7,0,0,1,5.072-4.082m-24.99-13.007q5.809-4.606,9.526-8.112a36.673,36.673,0,0,0,5.862-6.882q-7.179-1.289-21.206-4.433l-3.762,27.409q4.487-3.7,5.246-4.427Z" transform="translate(115.58 138.82)" fill="#ffc300"/>
      </g>
      <g transform="matrix(1, 0, 0, 1, 0, 0)" filter="url(#Path_151)">
        <path id="Path_151-2" data-name="Path 151" d="M219.7,321.994q-1.183,10.51-1.573,21.226a4.068,4.068,0,0,1,.122,1.327,4.866,4.866,0,0,1-.41,1.232.152.152,0,0,1-.152.147l-.032.269a10.287,10.287,0,0,1-4.28,4.286,18.349,18.349,0,0,1-6.654,2.471q-5.537.983-6.252-2.3-3.369-12.281-11.257-33.81l-1.217-3.642Q185,330.135,182.578,349.29q-.318,2.83-4.4,5.363a18.039,18.039,0,0,1-8.054,2.851,6.559,6.559,0,0,1-3.864-.623q-1.4-.818-1.02-2.987a652.828,652.828,0,0,1,13.143-69.83l.2-.55q.059-2.938,4.3-5.687a17.846,17.846,0,0,1,8.214-3.066q4.106-.331,4.761,2.287,3.062,11.371,9.611,29.136,2.244-12.732,5.77-25.97.712-2.729,4.918-5.138a19.412,19.412,0,0,1,8.037-2.716q4.928-.4,3.987,3.15a373.316,373.316,0,0,0-8.483,46.483" transform="translate(137.22 136.78)" fill="#ffc300"/>
      </g>
      <g transform="matrix(1, 0, 0, 1, 0, 0)" filter="url(#Path_152)">
        <path id="Path_152-2" data-name="Path 152" d="M260.922,293.842q1.591,11.824,4.076,27.11,2.3,14.507,2.99,19.256a3.955,3.955,0,0,1,0,1.2q-.363,3.234-4.325,5.89a16.62,16.62,0,0,1-7.932,2.976q-3.288.266-4.869-1.343a86.568,86.568,0,0,0-7.457-7.277q-3.959-3.419-10.454-8.372l-4.109-3.273q-7.114,12.592-10.912,18.642-1.188,2.1-5.414,4.107a22.357,22.357,0,0,1-7.651,2.286q-3.831.309-3.559-2.117a4.847,4.847,0,0,1,.592-1.651q5.228-10.3,12.3-23.691l3.648-7.1L214.8,317.39a2.433,2.433,0,0,1-.715-2.079q.257-2.29,3.5-4.623a20.915,20.915,0,0,1,7.019-3.3q8.315-16.024,15.867-32.525.759-1.927,3.862-3.583a23.514,23.514,0,0,1,6.434-2.321,16.388,16.388,0,0,1,4.046-.994q3.831-.309,3.924,2.489.6,11.569,2.186,23.392m-22.215,17.213-1.4,2.785L246,321.016l-.52-3.831q-.534-3.693-2.03-15.727Z" transform="translate(155.37 134.57)" fill="#ffc300"/>
      </g>
      <g transform="matrix(1, 0, 0, 1, 0, 0)" filter="url(#Path_153)">
        <path id="Path_153-2" data-name="Path 153" d="M321.722,268.559Q321.5,285,321.715,320.5l.052,15.218q.077,2.932-3.945,5.525a17.522,17.522,0,0,1-8.13,2.928,7.162,7.162,0,0,1-4.061-.676,2.952,2.952,0,0,1-1.492-3.018q.322-18.584.24-38.342-4.575,8.115-9.013,15.015a8.474,8.474,0,0,1-2.3,2.321,17.736,17.736,0,0,1-4.746,2.987,16.336,16.336,0,0,1-5.247,1.424q-4.241.342-5.294-2.377-1.857-5.189-3.625-11.19l-1.137,4.1q-3.042,11.33-8.036,29.223-.728,2.862-5.141,5.288a20.98,20.98,0,0,1-8.381,2.745,5.522,5.522,0,0,1-3.331-.53c-.76-.475-.986-1.3-.669-2.485q12.558-47.747,19.179-70.448.868-2.873,5.217-5.36a18.072,18.072,0,0,1,8.031-2.65,7.534,7.534,0,0,1,3.726.032,2.087,2.087,0,0,1,1.613,1.94,159.059,159.059,0,0,0,5.351,27.21q7.353-13.543,14.258-27.855,1.077-2.357,4.75-4.256a18.792,18.792,0,0,1,7.1-2.175q4.108-.332,4.656,2.028a4.419,4.419,0,0,1,.38,1.439" transform="translate(178.49 133.12)" fill="#ffc300"/>
      </g>
      <g transform="matrix(1, 0, 0, 1, 0, 0)" filter="url(#Path_154)">
        <path id="Path_154-2" data-name="Path 154" d="M361.213,331.689q-.243,2.157-3.129,4.924a12.237,12.237,0,0,1-7.714,3.428,10.307,10.307,0,0,1-3.634-.242,40.7,40.7,0,0,0-12.883-1.232q-10.266.827-21.674,8.157a18.868,18.868,0,0,1-4.531,2.3,18.636,18.636,0,0,1-4.807,1.124,5.652,5.652,0,0,1-3.2-.478,2.072,2.072,0,0,1-.969-2.258,4.8,4.8,0,0,1,.458-1.639q5.194-11.235,8.577-20.189a116.169,116.169,0,0,0,5.219-18.047q2.6-12.225,3.233-17.886,1.683-14.958-3.313-22.433a2.786,2.786,0,0,1-.44-2.1q.3-2.693,4.4-5.362a17,17,0,0,1,7.8-2.965q2.465-.2,3.439.792a2.816,2.816,0,0,1,2.084,1.969,33.563,33.563,0,0,0,7.758,14.261,15.915,15.915,0,0,0,13.546,4.983,30.341,30.341,0,0,0,4.579-.9c1.3-.281,2.129-.439,2.494-.469a4.513,4.513,0,0,1,3.377.729,2.894,2.894,0,0,1,.855,2.669,7.259,7.259,0,0,1-2,3.9,11.124,11.124,0,0,1-4.48,3.033,39.011,39.011,0,0,1-11.437,2.791,28.726,28.726,0,0,1-12.566-1.659q-1.124,7.571-1.956,11.375l-1.915,8.567q5.444-1.372,10.863-2.479l1.93-.288q5.473-.442,5.067,3.2-.273,2.427-3.224,4.535a18.072,18.072,0,0,1-5.886,2.877q-4.333,1.149-11.833,2.689-2.249,6.729-4.68,12.664a60.475,60.475,0,0,1,18.707-4.713,54.337,54.337,0,0,1,20.111,2.115q1.978.511,1.78,2.261" transform="translate(204.27 128.96)" fill="#ffc300"/>
      </g>
      <g transform="matrix(1, 0, 0, 1, 0, 0)" filter="url(#Path_155)">
        <path id="Path_155-2" data-name="Path 155" d="M395.844,307.792q-1.183,10.51-1.571,21.225a4.061,4.061,0,0,1,.122,1.327,4.879,4.879,0,0,1-.41,1.232.151.151,0,0,1-.152.147l-.03.269a10.3,10.3,0,0,1-4.28,4.284,18.35,18.35,0,0,1-6.655,2.473q-5.536.982-6.253-2.3-3.371-12.278-11.256-33.808L364.14,299q-2.99,16.934-5.416,36.089-.318,2.83-4.4,5.363a18.039,18.039,0,0,1-8.052,2.851,6.563,6.563,0,0,1-3.865-.624q-1.4-.818-1.022-2.986a652.837,652.837,0,0,1,13.146-69.829l.2-.551q.059-2.938,4.3-5.686a17.83,17.83,0,0,1,8.211-3.066q4.108-.331,4.762,2.287,3.062,11.371,9.611,29.135,2.245-12.729,5.77-25.968.714-2.729,4.917-5.138a19.424,19.424,0,0,1,8.04-2.716q4.928-.4,3.984,3.15a373.6,373.6,0,0,0-8.483,46.483" transform="translate(225.69 129.64)" fill="#ffc300"/>
      </g>
      <g transform="matrix(1, 0, 0, 1, 0, 0)" filter="url(#Path_156)">
        <path id="Path_156-2" data-name="Path 156" d="M432.98,263.7a8.773,8.773,0,0,1,2.944,3.368,5.043,5.043,0,0,1,.763,2.877q-.333,2.963-4.226,3.811l-4.854.927q-6.817,1.485-7.223,1.516-4.757,21.75-7.909,37.759t-5.31,31.541a4.412,4.412,0,0,1-1.893,2.956,7.836,7.836,0,0,1-3.873,1.247,14.681,14.681,0,0,1-7.894-1.565q-3.79-1.9-3.335-4.74,2.021-14.316,4.924-29.306t7.173-34.828l-8.746,1.774a7.83,7.83,0,0,1-2.919.033,3.32,3.32,0,0,1-1.813-1.39,26.45,26.45,0,0,1-1.612-2.54,4.211,4.211,0,0,1-.76-2.877,3.64,3.64,0,0,1,1.2-2.232,6.154,6.154,0,0,1,3.012-1.445q3.053-.647,7.088-1.505l7.088-1.507,5.085-23.51q.838-3.8,6.039-4.226a13.99,13.99,0,0,1,7.756,1.577q3.653,1.909,3.062,4.761l-3.81,18.2q3.858-.575,5.673-.99a6.811,6.811,0,0,1,4.371.314" transform="translate(248.34 120.44)" fill="#ffc300"/>
      </g>
    </g>
  </g>
</svg>
