<?xml version="1.0" encoding="UTF-8"?>
<svg xmlns="http://www.w3.org/2000/svg" xmlns:xlink="http://www.w3.org/1999/xlink" version="1.1" viewBox="0 0 712.4 655.5">
  <defs>
    <style>
      .cls-1 {
        fill: none;
      }

      .cls-2 {
        font-family: SedgwickAveDisplay-Regular, 'Sedgwick Ave Display';
        font-size: 96px;
      }

      .cls-2, .cls-3 {
        fill: #ffc300;
      }

      .cls-4 {
        clip-path: url(#clippath);
      }
    </style>
    <clipPath id="clippath">
      <rect class="cls-1" width="712.4" height="655.5"/>
    </clipPath>
  </defs>
  <!-- Generator: Adobe Illustrator 28.6.0, SVG Export Plug-In . SVG Version: 1.2.0 Build 709)  -->
  <g>
    <g id="Layer_1">
      <g id="logo">
        <g class="cls-4">
          <g id="Group_16">
            <path id="Path_136-2" class="cls-3" d="M155.6,2.6l62.8,89h-30.1l-54.1-72.3c-2.3-2.8-2.3-6,0-7.4l13.9-10.2c2.2-1.8,5.5-1.4,7.3.8,0,0,0,0,0,.1"/>
            <path id="Path_137-2" class="cls-3" d="M656.8,576.1c-.5,7.4-6.5,14.4-12.1,17.2-5.6,3.2-17.2,6.5-40.4,9.8-28.8,3.7-35.8,3.7-41.3,4.2-2.5,0-5.1-.4-7.4-1.4-.4,0-.7-.2-.9-.5-3.4-1.2-6.5-2.9-9.3-5.1-7-5.6-13.5-14.4-13.5-14.4l-26-35.7-8.4-13.5q0-.5.5-.9l-20.9-28.7h16.5l14.2,19.4h.9l10.2,12.5,26,35.8s2.8,4.2,6.5,3.7c3.2-.5,5.1-4.2,6.5-5.6.9-1.4,11.6-8.4,24.6-16.3,13-8.4,23.7-13.9,23.7-13.9,0,0,14.9-8.8,22.7-9.8,4.4-.6,9,.6,12.5,3.3,3.2,2.8,7,7,10.2,14.9,3.7,7.8,5.4,16.4,5.1,25.1"/>
            <path id="Path_138-2" class="cls-3" d="M235.8,526.6l-21.2,29.2q.5.5.5.9l-8.4,13.5-26,35.7s-6.5,8.8-13.5,14.4c-2.9,2-6,3.7-9.3,5.1-.3.3-.6.4-.9.5-.9,0-3.7,1.4-7.4,1.4-5.6,0-12.5,0-41.3-4.2-22.7-3.2-34.8-6.5-40.4-9.8-6-2.8-11.6-9.7-12.1-17.2s1.4-18.1,5.1-25.1c3.2-7.9,6.5-11.6,10.2-14.9,3.5-2.8,8.1-4,12.5-3.3,7.9.9,22.7,9.8,22.7,9.8,0,0,10.7,5.6,23.7,13.9,13,7.9,23.2,14.9,24.6,16.3s3.7,5.1,6.5,5.6c3.3.5,6.5-3.7,6.5-3.7l26-35.7,10.2-12.5h.9l14.5-19.9h16.5Z"/>
            <path id="Path_139-2" class="cls-3" d="M616.1,19.7l-107.2,126h-18.8L594.8,2.1c1.7-2.3,5-2.8,7.3-1,0,0,0,0,.1,0l13.9,10.2c2.3,1.9,2.3,5.1,0,8.4"/>
            <path id="Path_140-2" class="cls-3" d="M176.3,170.3c-.3,1.5-.8,2.8-1.6,4.1-.9,1.5-2.1,2.9-3.4,4.1-1,1-2.2,1.7-3.6,1.9-.3,0-.7,0-1-.1-5.4-1.7-12.2-2.3-20.1-1.6-8.1.8-16.1,2.2-23.9,4.3-.3,0-.6.2-.9.2-1.4.1-2-.6-1.9-2,.2-1.4.7-2.7,1.4-3.9.6-1.2,1.4-2.4,2.2-3.5l41.3-51c-1.8-.4-3.6-.6-5.4-.4-4,.4-7.8,1.6-11.3,3.5-3.1,1.5-6,3.3-8.8,5.3-2.4,1.6-4.3,3.8-5.4,6.5-.7,1.8-1.7,3.4-2.9,4.8-1,1.4-2.4,2.5-4,3-1,.3-1.8.2-2.2-.3-.5-.6-.6-1.4-.5-2.2,0-.7.2-1.3.5-1.9,2.1-5.2,5.3-10,9.3-14,4.4-4.7,9.5-8.7,15.2-11.9,4.9-3,10.5-4.9,16.2-5.5,4-.4,7.9.3,11.4,2.3.4.3.6.6.8,1.1.2.4.2.8.2,1.2,0,.5-.2.9-.3,1.3-.4,1.3-1,2.5-1.8,3.6-.8,1.2-1.7,2.3-2.7,3.3-16.8,20.7-29.3,36.2-37.6,46.5,5.8-1.3,11.7-2.3,17.6-2.8,8.7-.7,16.1,0,22.4,2,.8.2,1.1.9,1,2.2"/>
            <path id="Path_141-2" class="cls-3" d="M205.5,106.2c2.5-1.5,5.4-2.4,8.3-2.7,4.5-.4,8.9,1.2,12,4.4,5.1,5,7.1,11.8,6.1,20.5-.5,4-1.5,8-3,11.8-1.5,4-3.5,7.8-5.8,11.4-1.1,1.8-2.3,3.5-3.5,5.1l1.5,2.7c.2.4.2.9.1,1.3-.3,1.6-1,3.1-2,4.5-1.1,1.7-2.4,3.3-3.9,4.8-1.4,1.4-2.6,2.1-3.5,2.2-.4,0-.8-.2-1-.6-.2-.4-.4-.8-.6-1.2-.3-.4-.6-1-.9-1.6-6.8,6.8-12.7,10.5-17.6,10.9-1.5.2-3,0-4.4-.7-4.5-2-6.2-7.8-5.2-17.4.2-1.8.7-4.8,1.5-8.9,1.4-7.9,3.4-15.7,5.9-23.3l-.8-1.9-2.2-5.6c-.1-.4-.1-.7,0-1.1.3-1.6,1-3.2,2-4.5,1.2-1.7,2.5-3.4,4-4.8,1.5-1.4,2.6-2.1,3.4-2.2.4,0,.7.2.8.5.1.4.3.8.5,1.3s.3.8.5,1.3c2.2-2.4,4.8-4.5,7.6-6.1M204.8,160.1c-2.7-5-5.4-10.2-8-15.7-.3,1.6-.6,2.9-.8,3.9-.4,2.5-.7,4.5-.8,5.9-.3,2.6-.4,5.2-.1,7.8,0,.7.2,1.4.4,2.1.2.6.5,1.1.9,1.5,0,0,0,0,.3,0,.2,0,.5,0,.7-.1,2.8-1.3,5.4-3.1,7.5-5.3M214.7,147.4c2.6-4,4.3-8.5,5-13.2.3-2.3.1-4.7-.5-7-.7-2.7-2.2-5.2-4.3-7-2.2-2.1-4.5-3-6.8-2.8-1.5.2-3,.9-4,2l-.6,1.7c0,0,0,.1-.1.2h0c-.1.2-.2.6-.4.9l-.4,1.2c3.7,7.9,7.7,16,12.1,24.1"/>
            <path id="Path_142-2" class="cls-3" d="M291.3,161c-.3,1.5-.8,2.8-1.6,4.1-.9,1.5-2.1,2.9-3.4,4.2-1,1-2.2,1.7-3.6,1.9-.3,0-.7,0-1-.1-5.4-1.7-12.2-2.3-20.1-1.6-8.1.8-16.1,2.2-23.9,4.3-.3,0-.6.2-.9.2-1.4.1-2-.6-1.9-2,.2-1.4.7-2.7,1.4-3.9.6-1.2,1.4-2.4,2.2-3.5l41.3-51c-1.8-.4-3.6-.6-5.4-.4-4,.4-7.8,1.6-11.3,3.5-3.1,1.5-6,3.3-8.8,5.3-2.4,1.6-4.3,3.8-5.4,6.5-.7,1.8-1.7,3.4-2.9,4.8-1,1.4-2.4,2.5-4,3-1,.3-1.8.2-2.2-.3-.5-.6-.6-1.4-.5-2.2,0-.7.2-1.3.5-1.9,2.1-5.2,5.3-10,9.3-14,4.4-4.7,9.5-8.7,15.2-11.9,4.9-3,10.5-4.9,16.2-5.5,4-.4,7.9.3,11.4,2.3.4.3.6.6.8,1.1.2.4.2.8.1,1.2,0,.5-.2.9-.3,1.3-.4,1.3-1,2.5-1.8,3.6-.8,1.2-1.7,2.3-2.7,3.3-16.8,20.7-29.3,36.2-37.6,46.5,5.8-1.3,11.7-2.3,17.6-2.8,8.7-.7,16.1,0,22.4,2,.8.2,1.1.9,1,2.2"/>
            <path id="Path_144-2" class="cls-3" d="M316.4,211.8c-.7,5.9-6.6,14-17.8,24.3-11.2,10.3-26.9,23.4-47.1,39.4-10.6,8.4-18.5,14.8-23.9,19.3-5.4,4.5-8.8,7.9-10.2,10.1-1,1.6-1.8,3.4-2.3,5.3-.6,2.1-1,4.2-1.2,6.3-.2,1.9-.5,3.7-.9,5.6-2.1,8.2-4.2,15.4-6.4,21.6-1.9,5.6-4.3,11.1-7,16.5-2.4,4.8-5.6,9.1-9.3,13-2.5,2.7-5.3,5.2-8.3,7.4-3.1,2.3-5.9,3.5-8.4,3.7-5.7.5-8-3.8-7-12.9.4-3.5,1.1-6.9,2-10.3,1-3.9,1.7-6.5,2-7.6l2.1-8c-4,3.3-7.5,5-10.5,5.3-2,.2-3.4-.4-4.3-1.6-.9-1.6-1.2-3.5-.9-5.3.5-3.7,1.8-7.2,3.9-10.4,2.6-4.1,5.7-7.9,9.2-11.3,3.4-3.7,5.8-6.5,7.3-8.5,1.5-2,2.6-4.2,3.3-6.5,2.2-8,3.8-16.1,4.7-24.4.7-5.5,1-11,.9-16.5,0-3.8-.4-7.6-1-11.4,0-.8-.3-3.3-.7-7.4-.4-3.9-.3-7.8,0-11.6,2-17.5,13-27,33.1-28.6,2.2-.2,5.4-.3,9.7-.3,10.6.1,23.3-.2,38.2-1.1l7.8-.4,18.3-1.7c10.5-.8,17.8,0,21.9,2.4,1.9,1.2,3,3.4,2.6,5.7M259.6,242.1c-8.6.2-21.6.2-38.8,0,0,12.4-.4,23.9-1.1,34.4,15-13.6,28.3-25,39.9-34.3"/>
            <path id="Path_145-2" class="cls-3" d="M458.8,167.7c.7,1.6,1.1,3.4,1,5.2-.4,3.9-1.7,7.7-3.7,11.1-2.5,4.9-5.9,9.4-9.8,13.3-3.5,3.6-8,6.1-12.9,7.2-8.5,1.8-14.4,3.1-17.8,3.9,2.5,9.3,4,18.9,4.5,28.5.8,10.9,1,18,.8,21.5-.2,4.6-.4,8.1-.7,10.6-.3,2.3-.8,5.9-1.7,10.9-3.1,18.4-6.7,33-10.9,44-2.7,7.5-6.1,14.7-10.1,21.6-2.9,5.1-5.5,9.4-7.9,12.8-2.3,3.3-5,6.4-8,9.1l-7.8,7-5.1,3.1c-2.1,1.6-4.6,2.6-7.3,2.8-.8.4-1.7.6-2.6.7-6,.3-12-.7-17.6-3-4-1.9-7.9-4.3-11.4-7-3.5-2.7-7.7-6.3-12.7-10.8l-24.2-21.5c-2-1.8-2.7-4.4-2.3-7.9.5-4.8,3.2-10.4,7.9-16.8,4.9-6.6,9.9-11.1,14.9-13.4,1.3-.7,2.7-1.2,4.1-1.3,1.3-.1,2.7,0,3.9.7l17.5,16.7,5.4,4.9c4.7,4.4,9.7,8.6,14.9,12.5,4.2,3.1,9,5.5,14,6.9.5.2,1,.2,1.5.1,1-1.8,1.9-3.7,2.6-5.6,2.5-6.1,5.3-15.3,8.3-27.6,1.7-8,2.9-15.2,3.7-21.6.4-3.8.7-6.6.7-8.4v-5.1c.2-10.1,0-17.8-.3-23-.9-9.8-3.3-19.3-7.3-28.3-.6-1.5-.7-3.1-.5-4.6l-3.6.8c-15.1,4.8-26.5,8.5-34.1,11.1-.5.2-1.1.4-1.7.6-.7.2-1.4.4-2.2.4-2,.3-4-.9-4.7-2.8-.3-1.4-.4-2.9-.3-4.4.2-1.3.5-2.5.9-3.7,1.6-5.3,4.8-10.5,9.7-15.5,2.5-2.6,5.4-4.7,8.7-6.3,11-3.8,19.3-6.8,24.9-8.9,2.4-1,5-1.9,7.5-2.6,6.2-2.3,11.2-4,15-5.1,17.3-5.2,34.5-10,51.6-14.4l1-.3c1.7-.3,3.3.7,3.8,2.3"/>
            <path id="Path_146-2" class="cls-3" d="M573.6,304.9l2.1,5.2c1.6,3.1,3,6.3,4.1,9.6.9,2.6,1.1,5.4.8,8.1-.5,4.3-2.8,8.8-7,13.7-3.7,4.4-8.2,8.1-13.2,11-2.7,1.6-5.7,2.6-8.8,2.9-5,.4-10.1-.8-14.4-3.4-5.7-3.5-11.2-7.4-16.2-11.8-3.2-2.7-6.6-5.2-10.1-7.5-3.2-1.8-6.5-3.3-9.9-4.6-8.9-3.9-15.6-7.4-20.3-10.6-4.7-3.2-6.8-7.3-6.2-12.2.5-2.1,1.3-4.2,2.4-6.1-3.8,5.9-9.2,14.8-16.2,26.8-8.6,14.6-13.5,22.7-14.7,24.4-3.2,4.7-6.9,9-11.1,12.8-5,4.7-9.4,7.2-13.3,7.6-1.9.2-3.7-.5-5-1.8-1-1.1-1.4-2.8-1.1-5.3.8-6.9,7.5-19.6,20.2-38.1.8-1.4,2.1-3.4,3.9-5.9l6.7-10.8c13.7-22,23.8-38.6,30.2-49.7,3.7-6.5,9.1-16.2,16.2-29.2l11.3-20.7c3.9-7.1,8.3-13.8,13.2-20.3,4.1-5.3,9.3-9.8,15.2-13.1,2.5-1.5,5.3-2.5,8.3-2.9,3.3-.3,5.6,1.1,6.8,4s2,7.3,2.5,13.1c1.2,17.7,3.4,35.4,6.5,52.8,3.9,21.1,9.7,41.9,17.1,62M520.9,284.7c-3-17.4-5.2-32.2-6.4-44.5-8,13.4-18.3,29.7-31.1,49-1,1.9-2.8,4.5-5.1,8,7.8-10.7,16-16.5,24.6-17.2,3.2-.3,6.5.1,9.6,1.2,2.9.9,5.8,2.1,8.6,3.5"/>
            <path id="Path_147-2" class="cls-3" d="M141.4,405.8c-.3,1.9-1,3.8-2.1,5.4-1,1.8-2.2,3.4-3.5,5-1.9,2.3-4.3,4.1-7.1,5.2-2.8,1.1-5.7,1.7-8.6,1.9-1.1,0-2.8.1-5.2.1-2.2,0-4.4.1-6.6.4l-2.5.2c-.7,0-1.4.2-2,.7-.6.8-1.1,1.6-1.4,2.5-.4,1.1-.7,2.3-.9,3.5-.2,1.4-.3,2.5-.4,3.1l-2.6,15c-.9,5.2-1.6,9.8-2.1,13.7s-1,7.2-1.4,9.8c-.4,3.5-.7,6.1-1,7.8.5-.2,1-.3,1.5-.4,2-.2,2.8,1.3,2.5,4.3-.3,2.4-.9,4.7-1.8,7-1,2.5-2.1,5.2-3.4,8.3-1.2,2.3-2.6,4.4-4.2,6.4-2,2.6-4.2,5-6.7,7.2-2.4,2.1-4.4,3.2-6.1,3.3-2.1.2-3.3-1.3-3.7-4.5-.4-3.7-.3-7.5.2-11.2.8-6.4,2-12.6,3.6-18.9l2.1-9.8c3.3-17.6,6.6-32,9.9-43.3-.6.2-2.1.8-4.6,1.8-2.4.9-4.7,2-6.9,3.2-1.8.9-3.5,2.1-5,3.5-1.5,1.5-2.7,3.2-3.7,5.1-1.1,1.7-2.3,3.3-3.6,4.8-1.1,1.2-2.5,2.2-4.1,2.9-1,.5-2,.8-3.1.9-1.9.2-2.7-.9-2.5-3.3.3-1.9.9-3.7,1.7-5.5.8-1.8,1.8-3.5,2.9-5.2,7.2-10.4,17.4-18.3,30.6-23.6,13.1-5.4,26.9-8.7,41-9.8,2-.2,4.7-.3,8.2-.4,2,0,2.9.8,2.7,2.7"/>
            <path id="Path_148-2" class="cls-3" d="M170,434.6c2.9,2.8,5,6.3,6.1,10.1,1.2,4.2,1.5,8.5,1,12.8-.7,5.8-2.4,11.4-5,16.6-2.7,5.8-6.2,11.2-10.4,16.1-3.8,4.7-8.4,8.7-13.4,12-3.8,2.6-8.2,4.2-12.7,4.8-3.6.4-7.3-.6-10.1-2.8-2.7-2.2-4.5-5.5-5.4-10-1.1-5.1-1.2-10.4-.6-15.6.4-3.5,1.1-6.9,2-10.3-.9.3-1.9.5-2.9.5-3.1.2-4.5-.7-4.3-2.7,0-.6.2-1.2.5-1.8,4-8.8,9.6-16.7,16.5-23.4,7-6.8,14.5-10.6,22.6-11.2,1.8,0,3.5,0,5.3.1,4,.4,7.9,2.1,10.8,4.9M160.6,461.7c.5-3.7.2-7.4-.9-10.9-1-3.2-3-5.9-5.7-7.8-1.6-1.2-3.5-1.8-5.5-1.7-1,.1-1.9.4-2.8.8.8.2,1.2,1,1,1.8-.1.7-.4,1.3-.8,1.9-2.6,4.2-4.7,8.6-6.4,13.3-1.7,4.5-2.8,9.3-3.3,14.1-.6,5.1-.4,10.2.7,15.2.6,2.1,1.5,4.2,2.7,6.1.4.5.9.9,1.5,1.2,3.1-2.3,5.8-5,8-8.1,2.5-3.3,4.7-6.9,6.5-10.5,2.5-4.7,4.2-9.9,4.8-15.2"/>
            <path id="Path_149-2" class="cls-3" d="M230.1,422.9c2.4-1.5,5-2.4,7.8-2.7,1.2-.2,2.4,0,3.5.6.9.6,1.3,1.7.9,2.7-.6,3.4-1,6.2-1.2,8.2-1.8,11.7-3.7,21.7-5.7,30-2.1,8.4-5.5,16.4-10.2,23.7-4.4,7.2-11.1,12.7-19.1,15.6-2.5.9-5,1.4-7.7,1.7-5.8.5-10.8-.8-14.8-3.9s-6.1-7.5-6-13.3c0-2.3.2-4.1.3-5.2.8-6.6,2.5-13.1,5-19.2,2.6-6.6,6.3-14.7,11-24.1,1.4-2.5,2.9-5.7,4.7-9.6.7-1.6,2.3-3,4.6-4.2,2.1-1.1,4.4-1.8,6.8-2.1,1.2-.2,2.4,0,3.5.6.8.5,1.3,1.4,1.1,2.4,0,.6-.2,1.1-.5,1.6-2.4,5.4-4.3,9.4-5.6,12.1-3.5,7.5-6.2,13.7-8.2,18.8-2,4.9-3.6,10.1-4.7,15.3-.4,2.2-.7,3.9-.8,5.1-.6,5.3.3,9,2.7,11.1.9.8,1.9,1.5,3,2,1.2.5,2.4.8,3.7.8l1.1.2c0,0,.3-.2.6-.4,2.8-2,5-4.7,6.4-7.8,1.6-3,2.9-6.2,3.8-9.5.8-2.7,1.9-7.1,3.4-13,1.2-4.8,2.3-10.1,3.3-15.8,1-5.7,2-11.2,2.9-16.5.3-1.8,1.8-3.5,4.4-5.1"/>
            <path id="Path_150-2" class="cls-3" d="M294.6,461.7c2.2-1.1,4.6-1.8,7-2.1,3-.2,4.4.6,4.2,2.5-.1.7-.3,1.3-.6,1.9-4.4,8.3-8.2,16.9-11.3,25.7-.9,2.2-2.5,4-4.5,5.3-1.3,1.4-2.8,2.5-4.5,3.3-1.8.9-3.7,1.5-5.7,1.7-1.3.2-2.5,0-3.7-.6-.9-.6-1.4-1.7-1.2-2.8.4-5.5-1-10.9-4-15.6-2.8-4.4-7.3-7.5-12.4-8.3l-2.9,19.6c-.3,1.7-1.9,3.4-4.8,5.1-2.5,1.5-5.3,2.5-8.2,2.8-1.1.2-2.2,0-3.2-.5-.8-.5-1.2-1.4-1-2.3l2.5-18.6c-1-.5-1.6-1.6-1.5-2.7.3-1.5,1.2-2.9,2.5-3.8,2.3-16.4,4.7-32.7,7.1-49,.3-1.9,1.8-3.6,4.5-5.2,2.4-1.5,5-2.4,7.8-2.7,1.9-.2,3.2.2,4,1,9.6,1.9,19.6,4,29.9,6.4,1.1-.4,2.3-.6,3.5-.8,1.2-.2,2.5,0,3.5.7.8.7,1.2,1.8,1,2.9-.5,3.9-2.2,7.6-4.8,10.5-3.5,4-7.3,7.7-11.4,11.1l-3,2.6c-4.9,4.6-9.5,8.6-14,12.2,6.8,1.2,12.8,5.1,16.7,10.8.5-.9,1.7-3.2,3.6-7,1.3-1.8,3-3.2,5.1-4.1M269.6,448.7c3.9-3.1,7-5.8,9.5-8.1,2.2-2,4.2-4.4,5.9-6.9-4.8-.9-11.9-2.3-21.2-4.4l-3.8,27.4c3-2.5,4.7-3.9,5.2-4.4l4.3-3.6Z"/>
            <path id="Path_151-2" class="cls-3" d="M356.9,458.8c-.8,7-1.3,14.1-1.6,21.2.1.4.2.9.1,1.3,0,.4-.2.8-.4,1.2,0,0,0,.1-.2.1v.3c-1,1.8-2.5,3.3-4.3,4.3-2,1.2-4.3,2.1-6.7,2.5-3.7.7-5.8-.1-6.3-2.3-2.2-8.2-6-19.5-11.3-33.8l-1.2-3.6c-2,11.3-3.8,23.3-5.4,36.1-.2,1.9-1.7,3.7-4.4,5.4-2.4,1.6-5.2,2.6-8.1,2.9-1.3.2-2.7,0-3.9-.6-.9-.5-1.3-1.5-1-3,3.1-23.5,7.5-46.8,13.1-69.8l.2-.5c0-2,1.5-3.9,4.3-5.7,2.4-1.7,5.3-2.7,8.2-3.1,2.7-.2,4.3.5,4.8,2.3,2,7.6,5.2,17.3,9.6,29.1,1.5-8.5,3.4-17.1,5.8-26,.5-1.8,2.1-3.5,4.9-5.1,2.4-1.5,5.2-2.4,8-2.7,3.3-.3,4.6.8,4,3.1-3.8,15.3-6.6,30.8-8.5,46.5"/>
            <path id="Path_152-2" class="cls-3" d="M416.3,428.4c1.1,7.9,2.4,16.9,4.1,27.1,1.5,9.7,2.5,16.1,3,19.3,0,.4,0,.8,0,1.2-.2,2.2-1.7,4.1-4.3,5.9-2.3,1.7-5.1,2.7-7.9,3-2.2.2-3.8-.3-4.9-1.3-2.3-2.6-4.8-5-7.5-7.3-2.6-2.3-6.1-5.1-10.5-8.4l-4.1-3.3c-4.7,8.4-8.4,14.6-10.9,18.6-.8,1.4-2.6,2.8-5.4,4.1-2.4,1.2-5,2-7.7,2.3-2.6.2-3.7-.5-3.6-2.1,0-.6.3-1.1.6-1.7,3.5-6.9,7.6-14.8,12.3-23.7l3.6-7.1-3-3.1c-.6-.5-.8-1.3-.7-2.1.2-1.5,1.3-3.1,3.5-4.6,2.1-1.5,4.5-2.6,7-3.3,5.5-10.7,10.8-21.5,15.9-32.5.5-1.3,1.8-2.5,3.9-3.6,2-1.1,4.2-1.9,6.4-2.3,1.3-.5,2.7-.8,4-1,2.6-.2,3.9.6,3.9,2.5.4,7.7,1.1,15.5,2.2,23.4M394.1,445.6l-1.4,2.8,8.7,7.2-.5-3.8c-.4-2.5-1-7.7-2-15.7l-4.7,9.6Z"/>
            <path id="Path_153-2" class="cls-3" d="M500.2,401.7c-.1,11-.2,28.3,0,51.9v15.2c.1,2-1.2,3.8-3.9,5.5-2.4,1.6-5.2,2.6-8.1,2.9-1.4.2-2.8,0-4.1-.7-1.1-.6-1.7-1.8-1.5-3,.2-12.4.3-25.2.2-38.3-3.1,5.4-6.1,10.4-9,15-.6.9-1.4,1.7-2.3,2.3-1.4,1.2-3,2.2-4.7,3-1.7.8-3.4,1.2-5.2,1.4-2.8.2-4.6-.6-5.3-2.4-1.2-3.5-2.4-7.2-3.6-11.2l-1.1,4.1c-2,7.6-4.7,17.3-8,29.2-.5,1.9-2.2,3.7-5.1,5.3-2.6,1.5-5.4,2.4-8.4,2.7-1.1.2-2.3,0-3.3-.5-.8-.5-1-1.3-.7-2.5,8.4-31.8,14.8-55.3,19.2-70.4.6-1.9,2.3-3.7,5.2-5.4,2.4-1.5,5.2-2.4,8-2.6,1.2-.3,2.5-.3,3.7,0,.9.2,1.6,1,1.6,1.9,1,9.2,2.8,18.3,5.4,27.2,4.9-9,9.7-18.3,14.3-27.9.7-1.6,2.3-3,4.8-4.3,2.2-1.2,4.6-1.9,7.1-2.2,2.7-.2,4.3.5,4.7,2,.2.5.3.9.4,1.4"/>
            <path id="Path_154-2" class="cls-3" d="M565.5,460.6c-.2,1.4-1.2,3.1-3.1,4.9-2.1,2-4.8,3.2-7.7,3.4-1.2.1-2.4,0-3.6-.2-4.2-1.1-8.6-1.5-12.9-1.2-6.8.6-14.1,3.3-21.7,8.2-1.4,1-2.9,1.7-4.5,2.3-1.5.6-3.2,1-4.8,1.1-1.1.2-2.2,0-3.2-.5-.8-.5-1.2-1.4-1-2.3,0-.6.2-1.1.5-1.6,3.5-7.5,6.3-14.2,8.6-20.2,2.2-5.9,4-11.9,5.2-18,1.7-8.2,2.8-14.1,3.2-17.9,1.1-10,0-17.4-3.3-22.4-.4-.6-.6-1.4-.4-2.1.2-1.8,1.7-3.6,4.4-5.4,2.3-1.6,5-2.6,7.8-3,1.6-.1,2.8.1,3.4.8,1,.2,1.8,1,2.1,2,1.4,5.3,4,10.2,7.8,14.3,3.5,3.7,8.5,5.6,13.5,5,1.5-.2,3.1-.5,4.6-.9,1.3-.3,2.1-.4,2.5-.5,1.2-.2,2.4,0,3.4.7.7.7,1,1.7.9,2.7-.2,1.5-.9,2.8-2,3.9-1.2,1.4-2.8,2.4-4.5,3-3.6,1.5-7.5,2.4-11.4,2.8-4.3.4-8.6-.2-12.6-1.7-.7,5-1.4,8.8-2,11.4l-1.9,8.6c3.6-.9,7.3-1.7,10.9-2.5l1.9-.3c3.6-.3,5.3.8,5.1,3.2-.2,1.6-1.3,3.1-3.2,4.5-1.8,1.3-3.8,2.3-5.9,2.9-2.9.8-6.8,1.7-11.8,2.7-1.5,4.5-3.1,8.7-4.7,12.7,5.9-2.6,12.3-4.2,18.7-4.7,6.8-.6,13.6.2,20.1,2.1,1.3.3,1.9,1.1,1.8,2.3"/>
            <path id="Path_155-2" class="cls-3" d="M621.5,437.4c-.8,7-1.3,14.1-1.6,21.2.1.4.2.9.1,1.3,0,.4-.2.8-.4,1.2,0,0,0,.1-.2.1v.3c-1,1.8-2.5,3.3-4.3,4.3-2,1.2-4.3,2.1-6.7,2.5-3.7.7-5.8-.1-6.3-2.3-2.2-8.2-6-19.5-11.3-33.8l-1.2-3.6c-2,11.3-3.8,23.3-5.4,36.1-.2,1.9-1.7,3.7-4.4,5.4-2.4,1.6-5.2,2.6-8.1,2.9-1.3.2-2.7,0-3.9-.6-.9-.5-1.3-1.5-1-3,3.1-23.5,7.5-46.8,13.1-69.8l.2-.6c0-2,1.5-3.9,4.3-5.7,2.4-1.7,5.3-2.7,8.2-3.1,2.7-.2,4.3.5,4.8,2.3,2,7.6,5.2,17.3,9.6,29.1,1.5-8.5,3.4-17.1,5.8-26,.5-1.8,2.1-3.5,4.9-5.1,2.4-1.5,5.2-2.4,8-2.7,3.3-.3,4.6.8,4,3.1-3.8,15.3-6.6,30.8-8.5,46.5"/>
            <path id="Path_156-2" class="cls-3" d="M681.3,384.1c1.3.8,2.3,2,2.9,3.4.5.9.8,1.9.8,2.9-.2,2-1.6,3.2-4.2,3.8l-4.9.9c-4.5,1-7,1.5-7.2,1.5-3.2,14.5-5.8,27.1-7.9,37.8-2.1,10.7-3.9,21.2-5.3,31.5-.2,1.2-.9,2.3-1.9,3-1.2.7-2.5,1.2-3.9,1.2-2.7.2-5.5-.3-7.9-1.6-2.5-1.3-3.6-2.8-3.3-4.7,1.3-9.5,3-19.3,4.9-29.3,1.9-10,4.3-21.6,7.2-34.8l-8.7,1.8c-1,.2-2,.2-2.9,0-.7-.2-1.4-.7-1.8-1.4-.6-.8-1.1-1.7-1.6-2.5-.6-.8-.9-1.9-.8-2.9.1-.9.5-1.7,1.2-2.2.9-.8,1.9-1.3,3-1.4,2-.4,4.4-.9,7.1-1.5l7.1-1.5,5.1-23.5c.6-2.5,2.6-3.9,6-4.2,2.7-.2,5.4.3,7.8,1.6,2.4,1.3,3.5,2.9,3.1,4.8l-3.8,18.2c2.6-.4,4.5-.7,5.7-1,1.5-.4,3-.3,4.4.3"/>
            <text class="cls-2" transform="translate(286.8 170.6)"><tspan x="0" y="0">4</tspan></text>
          </g>
        </g>
      </g>
    </g>
  </g>
</svg>