<svg xmlns="http://www.w3.org/2000/svg" width="17.455" height="12.219" viewBox="0 0 17.455 12.219">
  <path id="people-group-solid" d="M1.964,33.527a1.527,1.527,0,1,1,1.527,1.527A1.527,1.527,0,0,1,1.964,33.527Zm-.218,4.3a1.743,1.743,0,0,0,0,2.307Zm3.938-1.345a3.924,3.924,0,0,0-.447,5.4v.586a.872.872,0,0,1-.873.873H2.618a.872.872,0,0,1-.873-.873v-.731a3.055,3.055,0,0,1,1.309-5.815h.873a3.041,3.041,0,0,1,1.756.554Zm6.535,5.989v-.586a3.928,3.928,0,0,0-.447-5.406,3.041,3.041,0,0,1,1.756-.554H14.4a3.055,3.055,0,0,1,1.309,5.815v.731a.872.872,0,0,1-.873.873H13.091A.872.872,0,0,1,12.219,42.473Zm.218-8.946a1.527,1.527,0,1,1,1.527,1.527A1.527,1.527,0,0,1,12.437,33.527Zm3.273,4.3v2.31a1.743,1.743,0,0,0,0-2.307ZM8.728,32a1.746,1.746,0,1,1-1.746,1.746A1.746,1.746,0,0,1,8.728,32ZM6.546,39.418a1.733,1.733,0,0,0,.436,1.154V38.265A1.733,1.733,0,0,0,6.546,39.418Zm3.927-1.154v2.31a1.743,1.743,0,0,0,0-2.307Zm1.746,1.154a3.056,3.056,0,0,1-1.746,2.76v1.167a.872.872,0,0,1-.873.873H7.855a.872.872,0,0,1-.873-.873V42.179a3.055,3.055,0,0,1,1.309-5.815h.873A3.053,3.053,0,0,1,12.219,39.418Z" transform="translate(0 -32)" fill="#ffc300"/>
</svg>
